<mxfile host="65bd71144e">
    <diagram id="eA_nwGEyrrlPk8IvKrsl" name="(Deprecated)Initialization Overview">
        <mxGraphModel dx="1399" dy="752" grid="1" gridSize="10" guides="1" tooltips="1" connect="1" arrows="1" fold="1" page="1" pageScale="1" pageWidth="1169" pageHeight="827" math="0" shadow="0">
            <root>
                <mxCell id="0"/>
                <mxCell id="1" parent="0"/>
                <mxCell id="20" style="edgeStyle=none;html=1;exitX=1;exitY=0.5;exitDx=0;exitDy=0;entryX=0;entryY=0.5;entryDx=0;entryDy=0;fontFamily=Cantarell;fontSource=http%3A%2F%2Fcantarell.gnome.org%2Ffonts%2FCantarell-VF.otf;" parent="1" source="3" target="17" edge="1">
                    <mxGeometry relative="1" as="geometry"/>
                </mxCell>
                <mxCell id="23" style="edgeStyle=none;html=1;exitX=1;exitY=1;exitDx=0;exitDy=0;entryX=0;entryY=0;entryDx=0;entryDy=0;fontFamily=Cantarell;fontSource=http%3A%2F%2Fcantarell.gnome.org%2Ffonts%2FCantarell-VF.otf;" parent="1" source="3" target="11" edge="1">
                    <mxGeometry relative="1" as="geometry"/>
                </mxCell>
                <mxCell id="24" value="Ext" style="edgeLabel;html=1;align=center;verticalAlign=middle;resizable=0;points=[];fontFamily=Cantarell;fontSource=http%3A%2F%2Fcantarell.gnome.org%2Ffonts%2FCantarell-VF.otf;" parent="23" vertex="1" connectable="0">
                    <mxGeometry x="-0.2317" y="2" relative="1" as="geometry">
                        <mxPoint y="2" as="offset"/>
                    </mxGeometry>
                </mxCell>
                <mxCell id="3" value="Window" style="rounded=1;whiteSpace=wrap;html=1;fontFamily=Cantarell;fontSource=http%3A%2F%2Fcantarell.gnome.org%2Ffonts%2FCantarell-VF.otf;" parent="1" vertex="1">
                    <mxGeometry x="60" y="40" width="120" height="60" as="geometry"/>
                </mxCell>
                <mxCell id="36" style="edgeStyle=none;html=1;exitX=1;exitY=0.5;exitDx=0;exitDy=0;entryX=0;entryY=0.5;entryDx=0;entryDy=0;fontFamily=Cantarell;fontSource=http%3A%2F%2Fcantarell.gnome.org%2Ffonts%2FCantarell-VF.otf;" parent="1" target="14" edge="1">
                    <mxGeometry relative="1" as="geometry">
                        <mxPoint x="200" y="180" as="sourcePoint"/>
                    </mxGeometry>
                </mxCell>
                <mxCell id="11" value="Instance" style="rounded=1;whiteSpace=wrap;html=1;fontFamily=Cantarell;fontSource=http%3A%2F%2Fcantarell.gnome.org%2Ffonts%2FCantarell-VF.otf;" parent="1" vertex="1">
                    <mxGeometry x="240" y="150" width="120" height="60" as="geometry"/>
                </mxCell>
                <mxCell id="21" style="edgeStyle=none;html=1;exitX=1;exitY=0.5;exitDx=0;exitDy=0;entryX=0;entryY=0.5;entryDx=0;entryDy=0;fontFamily=Cantarell;fontSource=http%3A%2F%2Fcantarell.gnome.org%2Ffonts%2FCantarell-VF.otf;" parent="1" source="12" target="11" edge="1">
                    <mxGeometry relative="1" as="geometry"/>
                </mxCell>
                <mxCell id="25" value="Ext" style="edgeLabel;html=1;align=center;verticalAlign=middle;resizable=0;points=[];fontFamily=Cantarell;fontSource=http%3A%2F%2Fcantarell.gnome.org%2Ffonts%2FCantarell-VF.otf;" parent="21" vertex="1" connectable="0">
                    <mxGeometry x="-0.2778" y="-2" relative="1" as="geometry">
                        <mxPoint x="9" y="-2" as="offset"/>
                    </mxGeometry>
                </mxCell>
                <mxCell id="12" value="Debug Utility" style="rounded=1;whiteSpace=wrap;html=1;fontFamily=Cantarell;fontSource=http%3A%2F%2Fcantarell.gnome.org%2Ffonts%2FCantarell-VF.otf;" parent="1" vertex="1">
                    <mxGeometry x="60" y="150" width="120" height="60" as="geometry"/>
                </mxCell>
                <mxCell id="26" style="edgeStyle=none;html=1;exitX=0.5;exitY=0;exitDx=0;exitDy=0;entryX=0.5;entryY=1;entryDx=0;entryDy=0;fontFamily=Cantarell;fontSource=http%3A%2F%2Fcantarell.gnome.org%2Ffonts%2FCantarell-VF.otf;" parent="1" source="14" target="18" edge="1">
                    <mxGeometry relative="1" as="geometry"/>
                </mxCell>
                <mxCell id="29" style="edgeStyle=none;html=1;fontFamily=Cantarell;fontSource=http%3A%2F%2Fcantarell.gnome.org%2Ffonts%2FCantarell-VF.otf;" parent="1" source="14" target="19" edge="1">
                    <mxGeometry relative="1" as="geometry"/>
                </mxCell>
                <mxCell id="31" style="edgeStyle=elbowEdgeStyle;html=1;exitX=0.5;exitY=1;exitDx=0;exitDy=0;entryX=0.5;entryY=0;entryDx=0;entryDy=0;elbow=vertical;fontFamily=Cantarell;fontSource=http%3A%2F%2Fcantarell.gnome.org%2Ffonts%2FCantarell-VF.otf;" parent="1" source="14" target="30" edge="1">
                    <mxGeometry relative="1" as="geometry"/>
                </mxCell>
                <mxCell id="14" value="(Selected) Physical Device" style="rounded=1;whiteSpace=wrap;html=1;fontFamily=Cantarell;fontSource=http%3A%2F%2Fcantarell.gnome.org%2Ffonts%2FCantarell-VF.otf;" parent="1" vertex="1">
                    <mxGeometry x="430" y="150" width="120" height="60" as="geometry"/>
                </mxCell>
                <mxCell id="27" style="edgeStyle=none;html=1;exitX=1;exitY=0.5;exitDx=0;exitDy=0;entryX=0;entryY=0.5;entryDx=0;entryDy=0;fontFamily=Cantarell;fontSource=http%3A%2F%2Fcantarell.gnome.org%2Ffonts%2FCantarell-VF.otf;" parent="1" target="18" edge="1">
                    <mxGeometry relative="1" as="geometry">
                        <mxPoint x="200" y="70" as="sourcePoint"/>
                    </mxGeometry>
                </mxCell>
                <mxCell id="48" style="edgeStyle=elbowEdgeStyle;html=1;exitX=1;exitY=0.5;exitDx=0;exitDy=0;entryX=1;entryY=0.5;entryDx=0;entryDy=0;" parent="1" source="17" target="30" edge="1">
                    <mxGeometry relative="1" as="geometry">
                        <Array as="points">
                            <mxPoint x="400" y="190"/>
                            <mxPoint x="400" y="170"/>
                        </Array>
                    </mxGeometry>
                </mxCell>
                <mxCell id="17" value="Surface" style="rounded=1;whiteSpace=wrap;html=1;fontFamily=Cantarell;fontSource=http%3A%2F%2Fcantarell.gnome.org%2Ffonts%2FCantarell-VF.otf;" parent="1" vertex="1">
                    <mxGeometry x="240" y="40" width="120" height="60" as="geometry"/>
                </mxCell>
                <mxCell id="37" style="edgeStyle=elbowEdgeStyle;html=1;exitX=1;exitY=0.5;exitDx=0;exitDy=0;elbow=vertical;fontFamily=Cantarell;fontSource=http%3A%2F%2Fcantarell.gnome.org%2Ffonts%2FCantarell-VF.otf;" parent="1" source="18" target="19" edge="1">
                    <mxGeometry relative="1" as="geometry">
                        <Array as="points">
                            <mxPoint x="650" y="70"/>
                            <mxPoint x="600" y="70"/>
                        </Array>
                    </mxGeometry>
                </mxCell>
                <mxCell id="52" style="edgeStyle=none;html=1;exitX=1;exitY=0.5;exitDx=0;exitDy=0;entryX=0;entryY=0.5;entryDx=0;entryDy=0;" parent="1" source="18" target="51" edge="1">
                    <mxGeometry relative="1" as="geometry"/>
                </mxCell>
                <mxCell id="18" value="Queue Famlies" style="ellipse;whiteSpace=wrap;html=1;fontFamily=Cantarell;fontSource=http%3A%2F%2Fcantarell.gnome.org%2Ffonts%2FCantarell-VF.otf;" parent="1" vertex="1">
                    <mxGeometry x="430" y="30" width="120" height="80" as="geometry"/>
                </mxCell>
                <mxCell id="35" style="edgeStyle=elbowEdgeStyle;html=1;exitX=0.5;exitY=1;exitDx=0;exitDy=0;entryX=0.75;entryY=0;entryDx=0;entryDy=0;elbow=vertical;fontFamily=Cantarell;fontSource=http%3A%2F%2Fcantarell.gnome.org%2Ffonts%2FCantarell-VF.otf;" parent="1" source="19" target="33" edge="1">
                    <mxGeometry relative="1" as="geometry">
                        <Array as="points">
                            <mxPoint x="570" y="270"/>
                            <mxPoint x="500" y="280"/>
                            <mxPoint x="430" y="300"/>
                            <mxPoint x="560" y="282"/>
                        </Array>
                    </mxGeometry>
                </mxCell>
                <mxCell id="46" style="edgeStyle=elbowEdgeStyle;elbow=vertical;html=1;exitX=0.5;exitY=1;exitDx=0;exitDy=0;fontFamily=Cantarell;fontSource=http%3A%2F%2Fcantarell.gnome.org%2Ffonts%2FCantarell-VF.otf;entryX=0.5;entryY=0;entryDx=0;entryDy=0;" parent="1" source="19" target="44" edge="1">
                    <mxGeometry relative="1" as="geometry">
                        <Array as="points">
                            <mxPoint x="710" y="270"/>
                        </Array>
                    </mxGeometry>
                </mxCell>
                <mxCell id="gQLLnRuquo6_95683umM-51" style="edgeStyle=orthogonalEdgeStyle;html=1;exitX=1;exitY=0.5;exitDx=0;exitDy=0;entryX=0;entryY=0.5;entryDx=0;entryDy=0;" parent="1" source="19" target="gQLLnRuquo6_95683umM-50" edge="1">
                    <mxGeometry relative="1" as="geometry"/>
                </mxCell>
                <mxCell id="50" style="edgeStyle=elbowEdgeStyle;html=1;exitX=1;exitY=0.5;exitDx=0;exitDy=0;entryX=0;entryY=0.5;entryDx=0;entryDy=0;" parent="1" source="19" target="49" edge="1">
                    <mxGeometry relative="1" as="geometry"/>
                </mxCell>
                <mxCell id="t4P6OeeRM0YHBfWq9Ygm-56" style="edgeStyle=orthogonalEdgeStyle;html=1;exitX=0.5;exitY=1;exitDx=0;exitDy=0;entryX=1;entryY=0.5;entryDx=0;entryDy=0;" parent="1" source="19" target="gn9V34H32k142-__LZ86-46" edge="1">
                    <mxGeometry relative="1" as="geometry">
                        <Array as="points">
                            <mxPoint x="650" y="270"/>
                            <mxPoint x="870" y="270"/>
                            <mxPoint x="870" y="545"/>
                        </Array>
                    </mxGeometry>
                </mxCell>
                <mxCell id="53" style="edgeStyle=orthogonalEdgeStyle;html=1;exitX=0.75;exitY=0;exitDx=0;exitDy=0;entryX=0;entryY=0.75;entryDx=0;entryDy=0;" parent="1" source="19" target="51" edge="1">
                    <mxGeometry relative="1" as="geometry"/>
                </mxCell>
                <mxCell id="19" value="Device" style="rounded=1;whiteSpace=wrap;html=1;fontFamily=Cantarell;fontSource=http%3A%2F%2Fcantarell.gnome.org%2Ffonts%2FCantarell-VF.otf;" parent="1" vertex="1">
                    <mxGeometry x="590" y="150" width="120" height="60" as="geometry"/>
                </mxCell>
                <mxCell id="34" style="edgeStyle=elbowEdgeStyle;html=1;exitX=0.5;exitY=1;exitDx=0;exitDy=0;entryX=0;entryY=0.5;entryDx=0;entryDy=0;fontFamily=Cantarell;fontSource=http%3A%2F%2Fcantarell.gnome.org%2Ffonts%2FCantarell-VF.otf;" parent="1" source="30" target="33" edge="1">
                    <mxGeometry relative="1" as="geometry">
                        <Array as="points">
                            <mxPoint x="310" y="360"/>
                        </Array>
                    </mxGeometry>
                </mxCell>
                <mxCell id="30" value="Swapchain Detail" style="ellipse;whiteSpace=wrap;html=1;fontFamily=Cantarell;fontSource=http%3A%2F%2Fcantarell.gnome.org%2Ffonts%2FCantarell-VF.otf;" parent="1" vertex="1">
                    <mxGeometry x="250" y="260" width="120" height="80" as="geometry"/>
                </mxCell>
                <mxCell id="39" style="edgeStyle=elbowEdgeStyle;elbow=vertical;html=1;exitX=0.5;exitY=1;exitDx=0;exitDy=0;entryX=0.5;entryY=0;entryDx=0;entryDy=0;fontFamily=Cantarell;fontSource=http%3A%2F%2Fcantarell.gnome.org%2Ffonts%2FCantarell-VF.otf;" parent="1" source="33" target="38" edge="1">
                    <mxGeometry relative="1" as="geometry"/>
                </mxCell>
                <mxCell id="33" value="Swap Chain" style="rounded=1;whiteSpace=wrap;html=1;fontFamily=Cantarell;fontSource=http%3A%2F%2Fcantarell.gnome.org%2Ffonts%2FCantarell-VF.otf;" parent="1" vertex="1">
                    <mxGeometry x="330" y="360" width="120" height="60" as="geometry"/>
                </mxCell>
                <mxCell id="41" style="edgeStyle=elbowEdgeStyle;elbow=vertical;html=1;exitX=0.5;exitY=1;exitDx=0;exitDy=0;entryX=0.5;entryY=0;entryDx=0;entryDy=0;fontFamily=Cantarell;fontSource=http%3A%2F%2Fcantarell.gnome.org%2Ffonts%2FCantarell-VF.otf;" parent="1" source="38" target="40" edge="1">
                    <mxGeometry relative="1" as="geometry"/>
                </mxCell>
                <mxCell id="38" value="Swapchain Images" style="rounded=1;whiteSpace=wrap;html=1;fontFamily=Cantarell;fontSource=http%3A%2F%2Fcantarell.gnome.org%2Ffonts%2FCantarell-VF.otf;" parent="1" vertex="1">
                    <mxGeometry x="170" y="468.5" width="120" height="60" as="geometry"/>
                </mxCell>
                <mxCell id="gQLLnRuquo6_95683umM-47" style="edgeStyle=orthogonalEdgeStyle;html=1;" parent="1" source="40" target="gQLLnRuquo6_95683umM-46" edge="1">
                    <mxGeometry relative="1" as="geometry"/>
                </mxCell>
                <mxCell id="40" value="Image View" style="rounded=1;whiteSpace=wrap;html=1;fontFamily=Cantarell;fontSource=http%3A%2F%2Fcantarell.gnome.org%2Ffonts%2FCantarell-VF.otf;" parent="1" vertex="1">
                    <mxGeometry x="170" y="550" width="120" height="60" as="geometry"/>
                </mxCell>
                <mxCell id="45" style="edgeStyle=elbowEdgeStyle;elbow=vertical;html=1;exitX=1;exitY=0.5;exitDx=0;exitDy=0;fontFamily=Cantarell;fontSource=http%3A%2F%2Fcantarell.gnome.org%2Ffonts%2FCantarell-VF.otf;" parent="1" source="43" target="44" edge="1">
                    <mxGeometry relative="1" as="geometry"/>
                </mxCell>
                <mxCell id="43" value="Pipeline Configuration" style="shape=parallelogram;perimeter=parallelogramPerimeter;whiteSpace=wrap;html=1;fixedSize=1;fontFamily=Cantarell;fontSource=http%3A%2F%2Fcantarell.gnome.org%2Ffonts%2FCantarell-VF.otf;" parent="1" vertex="1">
                    <mxGeometry x="500" y="306" width="170" height="60" as="geometry"/>
                </mxCell>
                <mxCell id="44" value="Graphics Pipeline" style="rounded=1;whiteSpace=wrap;html=1;fontFamily=Cantarell;fontSource=http%3A%2F%2Fcantarell.gnome.org%2Ffonts%2FCantarell-VF.otf;" parent="1" vertex="1">
                    <mxGeometry x="690" y="306" width="120" height="60" as="geometry"/>
                </mxCell>
                <mxCell id="t4P6OeeRM0YHBfWq9Ygm-55" style="edgeStyle=orthogonalEdgeStyle;html=1;" parent="1" source="gn9V34H32k142-__LZ86-46" target="44" edge="1">
                    <mxGeometry relative="1" as="geometry"/>
                </mxCell>
                <mxCell id="gn9V34H32k142-__LZ86-46" value="Render Pass" style="rounded=1;whiteSpace=wrap;html=1;fontFamily=Cantarell;fontSource=http%3A%2F%2Fcantarell.gnome.org%2Ffonts%2FCantarell-VF.otf;" parent="1" vertex="1">
                    <mxGeometry x="695" y="514.5" width="110" height="62" as="geometry"/>
                </mxCell>
                <mxCell id="gn9V34H32k142-__LZ86-52" style="edgeStyle=orthogonalEdgeStyle;html=1;fontFamily=Cantarell;fontSource=http%3A%2F%2Fcantarell.gnome.org%2Ffonts%2FCantarell-VF.otf;" parent="1" source="gn9V34H32k142-__LZ86-47" target="gn9V34H32k142-__LZ86-46" edge="1">
                    <mxGeometry relative="1" as="geometry"/>
                </mxCell>
                <mxCell id="gn9V34H32k142-__LZ86-47" value="Subpass" style="rounded=1;whiteSpace=wrap;html=1;fontFamily=Cantarell;fontSource=http%3A%2F%2Fcantarell.gnome.org%2Ffonts%2FCantarell-VF.otf;" parent="1" vertex="1">
                    <mxGeometry x="705" y="615.5" width="90" height="30" as="geometry"/>
                </mxCell>
                <mxCell id="gn9V34H32k142-__LZ86-54" style="edgeStyle=orthogonalEdgeStyle;html=1;exitX=0.5;exitY=0;exitDx=0;exitDy=0;fontFamily=Cantarell;fontSource=http%3A%2F%2Fcantarell.gnome.org%2Ffonts%2FCantarell-VF.otf;" parent="1" source="gn9V34H32k142-__LZ86-48" target="43" edge="1">
                    <mxGeometry relative="1" as="geometry"/>
                </mxCell>
                <mxCell id="gn9V34H32k142-__LZ86-48" value="Shaders" style="rounded=1;whiteSpace=wrap;html=1;fontFamily=Cantarell;fontSource=http%3A%2F%2Fcantarell.gnome.org%2Ffonts%2FCantarell-VF.otf;" parent="1" vertex="1">
                    <mxGeometry x="480" y="438" width="90" height="30" as="geometry"/>
                </mxCell>
                <mxCell id="gn9V34H32k142-__LZ86-55" style="edgeStyle=orthogonalEdgeStyle;html=1;exitX=0.5;exitY=0;exitDx=0;exitDy=0;fontFamily=Cantarell;fontSource=http%3A%2F%2Fcantarell.gnome.org%2Ffonts%2FCantarell-VF.otf;" parent="1" source="gn9V34H32k142-__LZ86-49" target="43" edge="1">
                    <mxGeometry relative="1" as="geometry"/>
                </mxCell>
                <mxCell id="gn9V34H32k142-__LZ86-49" value="Pipeline States" style="rounded=1;whiteSpace=wrap;html=1;fontFamily=Cantarell;fontSource=http%3A%2F%2Fcantarell.gnome.org%2Ffonts%2FCantarell-VF.otf;" parent="1" vertex="1">
                    <mxGeometry x="600" y="438" width="90" height="30" as="geometry"/>
                </mxCell>
                <mxCell id="gQLLnRuquo6_95683umM-46" value="Framebuffers" style="rounded=1;whiteSpace=wrap;html=1;fontFamily=Cantarell;fontSource=http%3A%2F%2Fcantarell.gnome.org%2Ffonts%2FCantarell-VF.otf;" parent="1" vertex="1">
                    <mxGeometry x="315" y="550" width="120" height="60" as="geometry"/>
                </mxCell>
                <mxCell id="gQLLnRuquo6_95683umM-53" style="edgeStyle=orthogonalEdgeStyle;html=1;fontFamily=Cantarell;fontSource=http%3A%2F%2Fcantarell.gnome.org%2Ffonts%2FCantarell-VF.otf;" parent="1" source="gQLLnRuquo6_95683umM-50" target="gQLLnRuquo6_95683umM-52" edge="1">
                    <mxGeometry relative="1" as="geometry"/>
                </mxCell>
                <mxCell id="gQLLnRuquo6_95683umM-50" value="Command Pool" style="rounded=1;whiteSpace=wrap;html=1;glass=0;fontFamily=Cantarell;fontSource=http%3A%2F%2Fcantarell.gnome.org%2Ffonts%2FCantarell-VF.otf;" parent="1" vertex="1">
                    <mxGeometry x="750" y="120" width="120" height="60" as="geometry"/>
                </mxCell>
                <mxCell id="54" style="edgeStyle=orthogonalEdgeStyle;html=1;exitX=0.5;exitY=0;exitDx=0;exitDy=0;entryX=1;entryY=0.5;entryDx=0;entryDy=0;" parent="1" source="gQLLnRuquo6_95683umM-52" target="51" edge="1">
                    <mxGeometry relative="1" as="geometry"/>
                </mxCell>
                <mxCell id="55" value="Submit" style="edgeLabel;html=1;align=center;verticalAlign=middle;resizable=0;points=[];fontFamily=Cantarell;fontSource=http%3A%2F%2Fcantarell.gnome.org%2Ffonts%2FCantarell-VF.otf;" parent="54" vertex="1" connectable="0">
                    <mxGeometry x="-0.0041" y="1" relative="1" as="geometry">
                        <mxPoint x="-20" y="-1" as="offset"/>
                    </mxGeometry>
                </mxCell>
                <mxCell id="gQLLnRuquo6_95683umM-52" value="Command Buffer" style="rounded=1;whiteSpace=wrap;html=1;glass=0;fontFamily=Cantarell;fontSource=http%3A%2F%2Fcantarell.gnome.org%2Ffonts%2FCantarell-VF.otf;" parent="1" vertex="1">
                    <mxGeometry x="900" y="120" width="120" height="60" as="geometry"/>
                </mxCell>
                <mxCell id="49" value="Synchronization Objects" style="rounded=1;whiteSpace=wrap;html=1;glass=0;fontFamily=Cantarell;fontSource=http%3A%2F%2Fcantarell.gnome.org%2Ffonts%2FCantarell-VF.otf;" parent="1" vertex="1">
                    <mxGeometry x="750" y="190" width="120" height="60" as="geometry"/>
                </mxCell>
                <mxCell id="t4P6OeeRM0YHBfWq9Ygm-54" style="edgeStyle=orthogonalEdgeStyle;html=1;exitX=1;exitY=0.5;exitDx=0;exitDy=0;" parent="1" source="t4P6OeeRM0YHBfWq9Ygm-53" target="gn9V34H32k142-__LZ86-46" edge="1">
                    <mxGeometry relative="1" as="geometry"/>
                </mxCell>
                <mxCell id="t4P6OeeRM0YHBfWq9Ygm-53" value="Attachment Description" style="rounded=1;whiteSpace=wrap;html=1;fontFamily=Cantarell;fontSource=http%3A%2F%2Fcantarell.gnome.org%2Ffonts%2FCantarell-VF.otf;" parent="1" vertex="1">
                    <mxGeometry x="575" y="528.5" width="90" height="34" as="geometry"/>
                </mxCell>
                <mxCell id="51" value="Queue Handles" style="rounded=1;whiteSpace=wrap;html=1;glass=0;fontFamily=Cantarell;fontSource=http%3A%2F%2Fcantarell.gnome.org%2Ffonts%2FCantarell-VF.otf;" parent="1" vertex="1">
                    <mxGeometry x="750" y="40" width="120" height="60" as="geometry"/>
                </mxCell>
            </root>
        </mxGraphModel>
    </diagram>
    <diagram id="Y7M3WGmySOPv_7u_cuFc" name="Vertex Binding &amp; Attribute">
        <mxGraphModel dx="1399" dy="752" grid="1" gridSize="10" guides="1" tooltips="1" connect="1" arrows="1" fold="1" page="1" pageScale="1" pageWidth="1654" pageHeight="1169" math="0" shadow="0">
            <root>
                <mxCell id="0"/>
                <mxCell id="1" parent="0"/>
                <mxCell id="0my0_8O4Zz-QT_3my2oU-1" value="&lt;div style=&quot;color: rgb(212, 212, 212); background-color: rgb(30, 30, 30); font-family: &amp;quot;Fira Code&amp;quot;, Consolas, &amp;quot;Courier New&amp;quot;, monospace; font-weight: normal; font-size: 14px; line-height: 19px;&quot;&gt;&lt;div&gt;&lt;span style=&quot;color: #e06c75;&quot;&gt;&amp;nbsp;layout&lt;/span&gt;&lt;span style=&quot;color: #d4d4d4;&quot;&gt;(location &lt;/span&gt;&lt;span style=&quot;color: #56b6c2;&quot;&gt;=&lt;/span&gt;&lt;span style=&quot;color: #d4d4d4;&quot;&gt; &lt;/span&gt;&lt;span style=&quot;color: #9ce79c;&quot;&gt;0&lt;/span&gt;&lt;span style=&quot;color: #d4d4d4;&quot;&gt;) &lt;/span&gt;&lt;span style=&quot;color: #e06c75;&quot;&gt;in&lt;/span&gt;&lt;span style=&quot;color: #d4d4d4;&quot;&gt; &lt;/span&gt;&lt;span style=&quot;color: #e06c75;&quot;&gt;vec3&lt;/span&gt;&lt;span style=&quot;color: #d4d4d4;&quot;&gt;&amp;nbsp;vertexPosition;&lt;/span&gt;&lt;/div&gt;&lt;div&gt;&lt;span style=&quot;color: #e06c75;&quot;&gt;&amp;nbsp;layout&lt;/span&gt;&lt;span style=&quot;color: #d4d4d4;&quot;&gt;(location &lt;/span&gt;&lt;span style=&quot;color: #56b6c2;&quot;&gt;=&lt;/span&gt;&lt;span style=&quot;color: #d4d4d4;&quot;&gt; &lt;/span&gt;&lt;span style=&quot;color: #9ce79c;&quot;&gt;1&lt;/span&gt;&lt;span style=&quot;color: #d4d4d4;&quot;&gt;) &lt;/span&gt;&lt;span style=&quot;color: #e06c75;&quot;&gt;in&lt;/span&gt;&lt;span style=&quot;color: #d4d4d4;&quot;&gt; &lt;/span&gt;&lt;span style=&quot;color: #e06c75;&quot;&gt;vec3&lt;/span&gt;&lt;span style=&quot;color: #d4d4d4;&quot;&gt;&amp;nbsp;vertexColor;&lt;/span&gt;&lt;/div&gt;&lt;div&gt;&lt;span style=&quot;color: #e06c75;&quot;&gt;&amp;nbsp;layout&lt;/span&gt;&lt;span style=&quot;color: #d4d4d4;&quot;&gt;(location &lt;/span&gt;&lt;span style=&quot;color: #56b6c2;&quot;&gt;=&lt;/span&gt;&lt;span style=&quot;color: #d4d4d4;&quot;&gt; &lt;/span&gt;&lt;span style=&quot;color: #9ce79c;&quot;&gt;2&lt;/span&gt;&lt;span style=&quot;color: #d4d4d4;&quot;&gt;) &lt;/span&gt;&lt;span style=&quot;color: #e06c75;&quot;&gt;in&lt;/span&gt;&lt;span style=&quot;color: #d4d4d4;&quot;&gt; &lt;/span&gt;&lt;span style=&quot;color: #e06c75;&quot;&gt;vec2&lt;/span&gt;&lt;span style=&quot;color: #d4d4d4;&quot;&gt;&amp;nbsp;vertexUV;&lt;/span&gt;&lt;/div&gt;&lt;/div&gt;" style="text;whiteSpace=wrap;html=1;strokeColor=default;" parent="1" vertex="1">
                    <mxGeometry x="1187" y="350" width="390" height="70" as="geometry"/>
                </mxCell>
                <mxCell id="0my0_8O4Zz-QT_3my2oU-2" style="edgeStyle=orthogonalEdgeStyle;rounded=0;orthogonalLoop=1;jettySize=auto;html=1;exitX=1;exitY=0.5;exitDx=0;exitDy=0;entryX=0;entryY=0.25;entryDx=0;entryDy=0;fontFamily=Cantarell;fontSource=http%3A%2F%2Fcantarell.gnome.org%2Ffonts%2FCantarell-VF.otf;" parent="1" source="0my0_8O4Zz-QT_3my2oU-29" target="0my0_8O4Zz-QT_3my2oU-1" edge="1">
                    <mxGeometry relative="1" as="geometry"/>
                </mxCell>
                <mxCell id="0my0_8O4Zz-QT_3my2oU-3" style="edgeStyle=orthogonalEdgeStyle;rounded=0;orthogonalLoop=1;jettySize=auto;html=1;exitX=1;exitY=0.5;exitDx=0;exitDy=0;entryX=0;entryY=0.5;entryDx=0;entryDy=0;fontFamily=Cantarell;fontSource=http%3A%2F%2Fcantarell.gnome.org%2Ffonts%2FCantarell-VF.otf;" parent="1" source="0my0_8O4Zz-QT_3my2oU-35" target="0my0_8O4Zz-QT_3my2oU-1" edge="1">
                    <mxGeometry relative="1" as="geometry"/>
                </mxCell>
                <mxCell id="0my0_8O4Zz-QT_3my2oU-4" style="edgeStyle=orthogonalEdgeStyle;rounded=0;orthogonalLoop=1;jettySize=auto;html=1;exitX=1;exitY=0.5;exitDx=0;exitDy=0;entryX=0;entryY=0.75;entryDx=0;entryDy=0;fontFamily=Cantarell;fontSource=http%3A%2F%2Fcantarell.gnome.org%2Ffonts%2FCantarell-VF.otf;" parent="1" source="0my0_8O4Zz-QT_3my2oU-41" target="0my0_8O4Zz-QT_3my2oU-1" edge="1">
                    <mxGeometry relative="1" as="geometry"/>
                </mxCell>
                <mxCell id="0my0_8O4Zz-QT_3my2oU-5" value="Vertex Shader" style="text;html=1;strokeColor=none;fillColor=none;align=center;verticalAlign=middle;whiteSpace=wrap;rounded=0;fontFamily=Cantarell;fontSource=http%3A%2F%2Fcantarell.gnome.org%2Ffonts%2FCantarell-VF.otf;" parent="1" vertex="1">
                    <mxGeometry x="1187" y="330" width="90" height="15" as="geometry"/>
                </mxCell>
                <mxCell id="0my0_8O4Zz-QT_3my2oU-6" value="&lt;font style=&quot;font-size: 18px;&quot;&gt;Binding 0&lt;/font&gt;" style="swimlane;horizontal=0;whiteSpace=wrap;html=1;labelBorderColor=none;fillColor=#0050ef;strokeColor=#001DBC;fontColor=#ffffff;fontFamily=Cantarell;fontSource=http%3A%2F%2Fcantarell.gnome.org%2Ffonts%2FCantarell-VF.otf;" parent="1" vertex="1">
                    <mxGeometry x="77" y="180" width="1030" height="440" as="geometry">
                        <mxRectangle x="110" y="100" width="50" height="110" as="alternateBounds"/>
                    </mxGeometry>
                </mxCell>
                <mxCell id="0my0_8O4Zz-QT_3my2oU-7" value="Vertex Buffer 0" style="swimlane;childLayout=stackLayout;resizeParent=1;resizeParentMax=0;horizontal=1;startSize=20;horizontalStack=0;html=1;fillColor=#1ba1e2;fontColor=#ffffff;strokeColor=#006EAF;fontFamily=Cantarell;fontSource=http%3A%2F%2Fcantarell.gnome.org%2Ffonts%2FCantarell-VF.otf;" parent="0my0_8O4Zz-QT_3my2oU-6" vertex="1">
                    <mxGeometry x="312" y="10" width="150" height="380" as="geometry">
                        <mxRectangle x="312" y="10" width="130" height="30" as="alternateBounds"/>
                    </mxGeometry>
                </mxCell>
                <mxCell id="0my0_8O4Zz-QT_3my2oU-8" value="Vertex 0" style="swimlane;startSize=20;horizontal=0;html=1;fillColor=#76608a;fontColor=#ffffff;strokeColor=#432D57;fontFamily=Cantarell;fontSource=http%3A%2F%2Fcantarell.gnome.org%2Ffonts%2FCantarell-VF.otf;" parent="0my0_8O4Zz-QT_3my2oU-7" vertex="1">
                    <mxGeometry y="20" width="150" height="120" as="geometry"/>
                </mxCell>
                <mxCell id="0my0_8O4Zz-QT_3my2oU-9" value="Position (vec3)" style="rounded=0;whiteSpace=wrap;html=1;fontFamily=Cantarell;fontSource=http%3A%2F%2Fcantarell.gnome.org%2Ffonts%2FCantarell-VF.otf;" parent="0my0_8O4Zz-QT_3my2oU-8" vertex="1">
                    <mxGeometry x="30" y="10" width="110" height="30" as="geometry"/>
                </mxCell>
                <mxCell id="0my0_8O4Zz-QT_3my2oU-10" value="Color (vec3)" style="rounded=0;whiteSpace=wrap;html=1;fontFamily=Cantarell;fontSource=http%3A%2F%2Fcantarell.gnome.org%2Ffonts%2FCantarell-VF.otf;" parent="0my0_8O4Zz-QT_3my2oU-8" vertex="1">
                    <mxGeometry x="30" y="45" width="110" height="30" as="geometry"/>
                </mxCell>
                <mxCell id="0my0_8O4Zz-QT_3my2oU-11" value="UV (vec2)" style="rounded=0;whiteSpace=wrap;html=1;fontFamily=Cantarell;fontSource=http%3A%2F%2Fcantarell.gnome.org%2Ffonts%2FCantarell-VF.otf;" parent="0my0_8O4Zz-QT_3my2oU-8" vertex="1">
                    <mxGeometry x="30" y="80" width="110" height="30" as="geometry"/>
                </mxCell>
                <mxCell id="0my0_8O4Zz-QT_3my2oU-12" value="Vertex 1" style="swimlane;startSize=20;horizontal=0;html=1;fillColor=#76608a;fontColor=#ffffff;strokeColor=#432D57;fontFamily=Cantarell;fontSource=http%3A%2F%2Fcantarell.gnome.org%2Ffonts%2FCantarell-VF.otf;" parent="0my0_8O4Zz-QT_3my2oU-7" vertex="1">
                    <mxGeometry y="140" width="150" height="120" as="geometry"/>
                </mxCell>
                <mxCell id="0my0_8O4Zz-QT_3my2oU-13" value="Position (vec3)" style="rounded=0;whiteSpace=wrap;html=1;fontFamily=Cantarell;fontSource=http%3A%2F%2Fcantarell.gnome.org%2Ffonts%2FCantarell-VF.otf;" parent="0my0_8O4Zz-QT_3my2oU-12" vertex="1">
                    <mxGeometry x="30" y="10" width="110" height="30" as="geometry"/>
                </mxCell>
                <mxCell id="0my0_8O4Zz-QT_3my2oU-14" value="Color (vec3)" style="rounded=0;whiteSpace=wrap;html=1;fontFamily=Cantarell;fontSource=http%3A%2F%2Fcantarell.gnome.org%2Ffonts%2FCantarell-VF.otf;" parent="0my0_8O4Zz-QT_3my2oU-12" vertex="1">
                    <mxGeometry x="30" y="45" width="110" height="30" as="geometry"/>
                </mxCell>
                <mxCell id="0my0_8O4Zz-QT_3my2oU-15" value="UV (vec2)" style="rounded=0;whiteSpace=wrap;html=1;fontFamily=Cantarell;fontSource=http%3A%2F%2Fcantarell.gnome.org%2Ffonts%2FCantarell-VF.otf;" parent="0my0_8O4Zz-QT_3my2oU-12" vertex="1">
                    <mxGeometry x="30" y="80" width="110" height="30" as="geometry"/>
                </mxCell>
                <mxCell id="0my0_8O4Zz-QT_3my2oU-16" value="Vertex 2" style="swimlane;startSize=20;horizontal=0;html=1;fillColor=#76608a;fontColor=#ffffff;strokeColor=#432D57;fontFamily=Cantarell;fontSource=http%3A%2F%2Fcantarell.gnome.org%2Ffonts%2FCantarell-VF.otf;" parent="0my0_8O4Zz-QT_3my2oU-7" vertex="1">
                    <mxGeometry y="260" width="150" height="120" as="geometry"/>
                </mxCell>
                <mxCell id="0my0_8O4Zz-QT_3my2oU-17" value="Position (vec3)" style="rounded=0;whiteSpace=wrap;html=1;fontFamily=Cantarell;fontSource=http%3A%2F%2Fcantarell.gnome.org%2Ffonts%2FCantarell-VF.otf;" parent="0my0_8O4Zz-QT_3my2oU-16" vertex="1">
                    <mxGeometry x="30" y="10" width="110" height="30" as="geometry"/>
                </mxCell>
                <mxCell id="0my0_8O4Zz-QT_3my2oU-18" value="Color (vec3)" style="rounded=0;whiteSpace=wrap;html=1;fontFamily=Cantarell;fontSource=http%3A%2F%2Fcantarell.gnome.org%2Ffonts%2FCantarell-VF.otf;" parent="0my0_8O4Zz-QT_3my2oU-16" vertex="1">
                    <mxGeometry x="30" y="45" width="110" height="30" as="geometry"/>
                </mxCell>
                <mxCell id="0my0_8O4Zz-QT_3my2oU-19" value="UV (vec2)" style="rounded=0;whiteSpace=wrap;html=1;fontFamily=Cantarell;fontSource=http%3A%2F%2Fcantarell.gnome.org%2Ffonts%2FCantarell-VF.otf;" parent="0my0_8O4Zz-QT_3my2oU-16" vertex="1">
                    <mxGeometry x="30" y="80" width="110" height="30" as="geometry"/>
                </mxCell>
                <mxCell id="0my0_8O4Zz-QT_3my2oU-20" style="edgeStyle=orthogonalEdgeStyle;rounded=0;orthogonalLoop=1;jettySize=auto;html=1;exitX=0;exitY=0.5;exitDx=0;exitDy=0;entryX=1;entryY=0.5;entryDx=0;entryDy=0;fontFamily=Cantarell;fontSource=http%3A%2F%2Fcantarell.gnome.org%2Ffonts%2FCantarell-VF.otf;" parent="0my0_8O4Zz-QT_3my2oU-6" source="0my0_8O4Zz-QT_3my2oU-23" target="0my0_8O4Zz-QT_3my2oU-8" edge="1">
                    <mxGeometry relative="1" as="geometry"/>
                </mxCell>
                <mxCell id="0my0_8O4Zz-QT_3my2oU-21" style="edgeStyle=orthogonalEdgeStyle;rounded=0;orthogonalLoop=1;jettySize=auto;html=1;exitX=0;exitY=0.5;exitDx=0;exitDy=0;entryX=1;entryY=0.5;entryDx=0;entryDy=0;fontFamily=Cantarell;fontSource=http%3A%2F%2Fcantarell.gnome.org%2Ffonts%2FCantarell-VF.otf;" parent="0my0_8O4Zz-QT_3my2oU-6" source="0my0_8O4Zz-QT_3my2oU-23" target="0my0_8O4Zz-QT_3my2oU-12" edge="1">
                    <mxGeometry relative="1" as="geometry"/>
                </mxCell>
                <mxCell id="0my0_8O4Zz-QT_3my2oU-22" style="edgeStyle=orthogonalEdgeStyle;rounded=0;orthogonalLoop=1;jettySize=auto;html=1;exitX=0;exitY=0.5;exitDx=0;exitDy=0;entryX=1;entryY=0.5;entryDx=0;entryDy=0;fontFamily=Cantarell;fontSource=http%3A%2F%2Fcantarell.gnome.org%2Ffonts%2FCantarell-VF.otf;" parent="0my0_8O4Zz-QT_3my2oU-6" source="0my0_8O4Zz-QT_3my2oU-23" target="0my0_8O4Zz-QT_3my2oU-16" edge="1">
                    <mxGeometry relative="1" as="geometry"/>
                </mxCell>
                <mxCell id="0my0_8O4Zz-QT_3my2oU-23" value="Pattern Per Vertex" style="swimlane;whiteSpace=wrap;html=1;fillColor=#60a917;fontColor=#ffffff;strokeColor=#2D7600;fontFamily=Cantarell;fontSource=http%3A%2F%2Fcantarell.gnome.org%2Ffonts%2FCantarell-VF.otf;" parent="0my0_8O4Zz-QT_3my2oU-6" vertex="1">
                    <mxGeometry x="510" y="135" width="130" height="140" as="geometry"/>
                </mxCell>
                <mxCell id="0my0_8O4Zz-QT_3my2oU-24" value="Position (vec3)" style="rounded=0;whiteSpace=wrap;html=1;fontFamily=Cantarell;fontSource=http%3A%2F%2Fcantarell.gnome.org%2Ffonts%2FCantarell-VF.otf;" parent="0my0_8O4Zz-QT_3my2oU-23" vertex="1">
                    <mxGeometry x="10" y="30" width="110" height="30" as="geometry"/>
                </mxCell>
                <mxCell id="0my0_8O4Zz-QT_3my2oU-25" value="Color (vec3)" style="rounded=0;whiteSpace=wrap;html=1;fontFamily=Cantarell;fontSource=http%3A%2F%2Fcantarell.gnome.org%2Ffonts%2FCantarell-VF.otf;" parent="0my0_8O4Zz-QT_3my2oU-23" vertex="1">
                    <mxGeometry x="10" y="65" width="110" height="30" as="geometry"/>
                </mxCell>
                <mxCell id="0my0_8O4Zz-QT_3my2oU-26" value="UV (vec2)" style="rounded=0;whiteSpace=wrap;html=1;fontFamily=Cantarell;fontSource=http%3A%2F%2Fcantarell.gnome.org%2Ffonts%2FCantarell-VF.otf;" parent="0my0_8O4Zz-QT_3my2oU-23" vertex="1">
                    <mxGeometry x="10" y="100" width="110" height="30" as="geometry"/>
                </mxCell>
                <mxCell id="0my0_8O4Zz-QT_3my2oU-27" style="edgeStyle=orthogonalEdgeStyle;rounded=0;orthogonalLoop=1;jettySize=auto;html=1;exitX=0;exitY=0.5;exitDx=0;exitDy=0;entryX=1;entryY=0.5;entryDx=0;entryDy=0;fontFamily=Cantarell;fontSource=http%3A%2F%2Fcantarell.gnome.org%2Ffonts%2FCantarell-VF.otf;" parent="0my0_8O4Zz-QT_3my2oU-6" source="0my0_8O4Zz-QT_3my2oU-28" target="0my0_8O4Zz-QT_3my2oU-24" edge="1">
                    <mxGeometry relative="1" as="geometry"/>
                </mxCell>
                <mxCell id="0my0_8O4Zz-QT_3my2oU-28" value="VertexInputAttributeDescription" style="swimlane;whiteSpace=wrap;html=1;fillColor=#d80073;fontColor=#ffffff;strokeColor=#A50040;fontFamily=Cantarell;fontSource=http%3A%2F%2Fcantarell.gnome.org%2Ffonts%2FCantarell-VF.otf;" parent="0my0_8O4Zz-QT_3my2oU-6" vertex="1">
                    <mxGeometry x="672" y="20" width="336" height="120" as="geometry"/>
                </mxCell>
                <mxCell id="0my0_8O4Zz-QT_3my2oU-29" value="location = 0" style="rounded=0;whiteSpace=wrap;html=1;fontFamily=Cantarell;fontSource=http%3A%2F%2Fcantarell.gnome.org%2Ffonts%2FCantarell-VF.otf;" parent="0my0_8O4Zz-QT_3my2oU-28" vertex="1">
                    <mxGeometry x="206" y="35" width="120" height="30" as="geometry"/>
                </mxCell>
                <mxCell id="0my0_8O4Zz-QT_3my2oU-30" value="format = R32G32B32Sfloat" style="rounded=0;whiteSpace=wrap;html=1;fontFamily=Cantarell;fontSource=http%3A%2F%2Fcantarell.gnome.org%2Ffonts%2FCantarell-VF.otf;" parent="0my0_8O4Zz-QT_3my2oU-28" vertex="1">
                    <mxGeometry x="16" y="35" width="174" height="30" as="geometry"/>
                </mxCell>
                <mxCell id="0my0_8O4Zz-QT_3my2oU-31" value="offset = 0 Byte" style="rounded=0;whiteSpace=wrap;html=1;fontFamily=Cantarell;fontSource=http%3A%2F%2Fcantarell.gnome.org%2Ffonts%2FCantarell-VF.otf;" parent="0my0_8O4Zz-QT_3my2oU-28" vertex="1">
                    <mxGeometry x="16" y="75" width="174" height="30" as="geometry"/>
                </mxCell>
                <mxCell id="0my0_8O4Zz-QT_3my2oU-32" value="binding = 0" style="rounded=0;whiteSpace=wrap;html=1;fillColor=#6d8764;fontColor=#ffffff;strokeColor=#3A5431;fontFamily=Cantarell;fontSource=http%3A%2F%2Fcantarell.gnome.org%2Ffonts%2FCantarell-VF.otf;" parent="0my0_8O4Zz-QT_3my2oU-28" vertex="1">
                    <mxGeometry x="206" y="75" width="120" height="30" as="geometry"/>
                </mxCell>
                <mxCell id="0my0_8O4Zz-QT_3my2oU-33" style="edgeStyle=orthogonalEdgeStyle;rounded=0;orthogonalLoop=1;jettySize=auto;html=1;exitX=0;exitY=0.5;exitDx=0;exitDy=0;entryX=1;entryY=0.5;entryDx=0;entryDy=0;fontFamily=Cantarell;fontSource=http%3A%2F%2Fcantarell.gnome.org%2Ffonts%2FCantarell-VF.otf;" parent="0my0_8O4Zz-QT_3my2oU-6" source="0my0_8O4Zz-QT_3my2oU-34" target="0my0_8O4Zz-QT_3my2oU-25" edge="1">
                    <mxGeometry relative="1" as="geometry"/>
                </mxCell>
                <mxCell id="0my0_8O4Zz-QT_3my2oU-34" value="VertexInputAttributeDescription" style="swimlane;whiteSpace=wrap;html=1;fillColor=#d80073;fontColor=#ffffff;strokeColor=#A50040;fontFamily=Cantarell;fontSource=http%3A%2F%2Fcantarell.gnome.org%2Ffonts%2FCantarell-VF.otf;" parent="0my0_8O4Zz-QT_3my2oU-6" vertex="1">
                    <mxGeometry x="672" y="155" width="336" height="120" as="geometry"/>
                </mxCell>
                <mxCell id="0my0_8O4Zz-QT_3my2oU-35" value="location = 1" style="rounded=0;whiteSpace=wrap;html=1;fontFamily=Cantarell;fontSource=http%3A%2F%2Fcantarell.gnome.org%2Ffonts%2FCantarell-VF.otf;" parent="0my0_8O4Zz-QT_3my2oU-34" vertex="1">
                    <mxGeometry x="206" y="35" width="120" height="30" as="geometry"/>
                </mxCell>
                <mxCell id="0my0_8O4Zz-QT_3my2oU-36" value="format = R32G32B32Sfloat" style="rounded=0;whiteSpace=wrap;html=1;fontFamily=Cantarell;fontSource=http%3A%2F%2Fcantarell.gnome.org%2Ffonts%2FCantarell-VF.otf;" parent="0my0_8O4Zz-QT_3my2oU-34" vertex="1">
                    <mxGeometry x="16" y="35" width="174" height="30" as="geometry"/>
                </mxCell>
                <mxCell id="0my0_8O4Zz-QT_3my2oU-37" value="offset = 12 Bytes" style="rounded=0;whiteSpace=wrap;html=1;fontFamily=Cantarell;fontSource=http%3A%2F%2Fcantarell.gnome.org%2Ffonts%2FCantarell-VF.otf;" parent="0my0_8O4Zz-QT_3my2oU-34" vertex="1">
                    <mxGeometry x="16" y="75" width="174" height="30" as="geometry"/>
                </mxCell>
                <mxCell id="0my0_8O4Zz-QT_3my2oU-38" value="binding = 0" style="rounded=0;whiteSpace=wrap;html=1;fillColor=#6d8764;fontColor=#ffffff;strokeColor=#3A5431;fontFamily=Cantarell;fontSource=http%3A%2F%2Fcantarell.gnome.org%2Ffonts%2FCantarell-VF.otf;" parent="0my0_8O4Zz-QT_3my2oU-34" vertex="1">
                    <mxGeometry x="206" y="75" width="120" height="30" as="geometry"/>
                </mxCell>
                <mxCell id="0my0_8O4Zz-QT_3my2oU-39" style="edgeStyle=orthogonalEdgeStyle;rounded=0;orthogonalLoop=1;jettySize=auto;html=1;exitX=0;exitY=0.5;exitDx=0;exitDy=0;entryX=1;entryY=0.5;entryDx=0;entryDy=0;fontFamily=Cantarell;fontSource=http%3A%2F%2Fcantarell.gnome.org%2Ffonts%2FCantarell-VF.otf;" parent="0my0_8O4Zz-QT_3my2oU-6" source="0my0_8O4Zz-QT_3my2oU-40" target="0my0_8O4Zz-QT_3my2oU-26" edge="1">
                    <mxGeometry relative="1" as="geometry"/>
                </mxCell>
                <mxCell id="0my0_8O4Zz-QT_3my2oU-40" value="VertexInputAttributeDescription" style="swimlane;whiteSpace=wrap;html=1;fillColor=#d80073;fontColor=#ffffff;strokeColor=#A50040;fontFamily=Cantarell;fontSource=http%3A%2F%2Fcantarell.gnome.org%2Ffonts%2FCantarell-VF.otf;" parent="0my0_8O4Zz-QT_3my2oU-6" vertex="1">
                    <mxGeometry x="672" y="295" width="336" height="120" as="geometry"/>
                </mxCell>
                <mxCell id="0my0_8O4Zz-QT_3my2oU-41" value="location = 2" style="rounded=0;whiteSpace=wrap;html=1;fontFamily=Cantarell;fontSource=http%3A%2F%2Fcantarell.gnome.org%2Ffonts%2FCantarell-VF.otf;" parent="0my0_8O4Zz-QT_3my2oU-40" vertex="1">
                    <mxGeometry x="206" y="35" width="120" height="30" as="geometry"/>
                </mxCell>
                <mxCell id="0my0_8O4Zz-QT_3my2oU-42" value="format = R32G32Sfloat" style="rounded=0;whiteSpace=wrap;html=1;fontFamily=Cantarell;fontSource=http%3A%2F%2Fcantarell.gnome.org%2Ffonts%2FCantarell-VF.otf;" parent="0my0_8O4Zz-QT_3my2oU-40" vertex="1">
                    <mxGeometry x="16" y="35" width="174" height="30" as="geometry"/>
                </mxCell>
                <mxCell id="0my0_8O4Zz-QT_3my2oU-43" value="offset = 24 Bytes" style="rounded=0;whiteSpace=wrap;html=1;fontFamily=Cantarell;fontSource=http%3A%2F%2Fcantarell.gnome.org%2Ffonts%2FCantarell-VF.otf;" parent="0my0_8O4Zz-QT_3my2oU-40" vertex="1">
                    <mxGeometry x="16" y="75" width="174" height="30" as="geometry"/>
                </mxCell>
                <mxCell id="0my0_8O4Zz-QT_3my2oU-44" value="binding = 0" style="rounded=0;whiteSpace=wrap;html=1;fillColor=#6d8764;fontColor=#ffffff;strokeColor=#3A5431;fontFamily=Cantarell;fontSource=http%3A%2F%2Fcantarell.gnome.org%2Ffonts%2FCantarell-VF.otf;" parent="0my0_8O4Zz-QT_3my2oU-40" vertex="1">
                    <mxGeometry x="206" y="75" width="120" height="30" as="geometry"/>
                </mxCell>
                <mxCell id="0my0_8O4Zz-QT_3my2oU-45" value="VertexInputBindingDescription" style="swimlane;whiteSpace=wrap;html=1;fillColor=#d80073;fontColor=#ffffff;strokeColor=#A50040;fontFamily=Cantarell;fontSource=http%3A%2F%2Fcantarell.gnome.org%2Ffonts%2FCantarell-VF.otf;" parent="0my0_8O4Zz-QT_3my2oU-6" vertex="1">
                    <mxGeometry x="50" y="135" width="190" height="170" as="geometry"/>
                </mxCell>
                <mxCell id="0my0_8O4Zz-QT_3my2oU-46" value="stride = 32 Bytes" style="whiteSpace=wrap;html=1;fontFamily=Cantarell;fontSource=http%3A%2F%2Fcantarell.gnome.org%2Ffonts%2FCantarell-VF.otf;" parent="0my0_8O4Zz-QT_3my2oU-45" vertex="1">
                    <mxGeometry x="10" y="35" width="170" height="35" as="geometry"/>
                </mxCell>
                <mxCell id="0my0_8O4Zz-QT_3my2oU-47" value="binding = 0" style="whiteSpace=wrap;html=1;fillColor=#6d8764;fontColor=#ffffff;strokeColor=#3A5431;fontFamily=Cantarell;fontSource=http%3A%2F%2Fcantarell.gnome.org%2Ffonts%2FCantarell-VF.otf;" parent="0my0_8O4Zz-QT_3my2oU-45" vertex="1">
                    <mxGeometry x="10" y="77.5" width="170" height="35" as="geometry"/>
                </mxCell>
                <mxCell id="0my0_8O4Zz-QT_3my2oU-48" value="inputRate = perVertex" style="whiteSpace=wrap;html=1;fontFamily=Cantarell;fontSource=http%3A%2F%2Fcantarell.gnome.org%2Ffonts%2FCantarell-VF.otf;" parent="0my0_8O4Zz-QT_3my2oU-45" vertex="1">
                    <mxGeometry x="10" y="120" width="170" height="35" as="geometry"/>
                </mxCell>
                <mxCell id="0my0_8O4Zz-QT_3my2oU-49" value="" style="shape=crossbar;whiteSpace=wrap;html=1;rounded=1;direction=south;fontFamily=Cantarell;fontSource=http%3A%2F%2Fcantarell.gnome.org%2Ffonts%2FCantarell-VF.otf;" parent="0my0_8O4Zz-QT_3my2oU-6" vertex="1">
                    <mxGeometry x="292" y="30" width="20" height="120" as="geometry"/>
                </mxCell>
                <mxCell id="0my0_8O4Zz-QT_3my2oU-50" value="32 Bytes" style="text;html=1;align=center;verticalAlign=middle;resizable=0;points=[];autosize=1;strokeColor=none;fillColor=none;rotation=-90;fontFamily=Cantarell;fontSource=http%3A%2F%2Fcantarell.gnome.org%2Ffonts%2FCantarell-VF.otf;" parent="0my0_8O4Zz-QT_3my2oU-6" vertex="1">
                    <mxGeometry x="252" y="75" width="70" height="30" as="geometry"/>
                </mxCell>
                <mxCell id="0my0_8O4Zz-QT_3my2oU-51" style="edgeStyle=orthogonalEdgeStyle;rounded=0;orthogonalLoop=1;jettySize=auto;html=1;exitX=1;exitY=0.5;exitDx=0;exitDy=0;entryX=0.476;entryY=-0.01;entryDx=0;entryDy=0;entryPerimeter=0;fontFamily=Cantarell;fontSource=http%3A%2F%2Fcantarell.gnome.org%2Ffonts%2FCantarell-VF.otf;" parent="0my0_8O4Zz-QT_3my2oU-6" source="0my0_8O4Zz-QT_3my2oU-46" target="0my0_8O4Zz-QT_3my2oU-50" edge="1">
                    <mxGeometry relative="1" as="geometry"/>
                </mxCell>
                <mxCell id="0my0_8O4Zz-QT_3my2oU-52" value="&lt;h1&gt;Per Vertex&lt;/h1&gt;&lt;p&gt;Values stays the same across vertices with the same index in every instance&lt;/p&gt;" style="text;html=1;strokeColor=default;fillColor=none;spacing=5;spacingTop=-20;whiteSpace=wrap;overflow=hidden;rounded=0;dashed=1;fontFamily=Cantarell;fontSource=http%3A%2F%2Fcantarell.gnome.org%2Ffonts%2FCantarell-VF.otf;" parent="0my0_8O4Zz-QT_3my2oU-6" vertex="1">
                    <mxGeometry x="50" y="325" width="190" height="95" as="geometry"/>
                </mxCell>
                <mxCell id="0my0_8O4Zz-QT_3my2oU-53" style="rounded=0;orthogonalLoop=1;jettySize=auto;html=1;exitX=0.5;exitY=1;exitDx=0;exitDy=0;endArrow=none;endFill=0;shape=link;fontFamily=Cantarell;fontSource=http%3A%2F%2Fcantarell.gnome.org%2Ffonts%2FCantarell-VF.otf;" parent="0my0_8O4Zz-QT_3my2oU-6" source="0my0_8O4Zz-QT_3my2oU-48" target="0my0_8O4Zz-QT_3my2oU-52" edge="1">
                    <mxGeometry relative="1" as="geometry">
                        <mxPoint x="145" y="290" as="sourcePoint"/>
                    </mxGeometry>
                </mxCell>
                <mxCell id="0my0_8O4Zz-QT_3my2oU-54" value="&lt;font style=&quot;font-size: 18px;&quot;&gt;Binding 1&lt;br&gt;&lt;/font&gt;" style="swimlane;horizontal=0;whiteSpace=wrap;html=1;labelBorderColor=none;fillColor=#0050ef;strokeColor=#001DBC;fontColor=#ffffff;fontFamily=Cantarell;fontSource=http%3A%2F%2Fcantarell.gnome.org%2Ffonts%2FCantarell-VF.otf;" parent="1" vertex="1">
                    <mxGeometry x="77" y="670" width="1030" height="320" as="geometry">
                        <mxRectangle x="110" y="100" width="50" height="110" as="alternateBounds"/>
                    </mxGeometry>
                </mxCell>
                <mxCell id="0my0_8O4Zz-QT_3my2oU-55" value="Vertex Buffer 1" style="swimlane;childLayout=stackLayout;resizeParent=1;resizeParentMax=0;horizontal=1;startSize=20;horizontalStack=0;html=1;fillColor=#1ba1e2;fontColor=#ffffff;strokeColor=#006EAF;fontFamily=Cantarell;fontSource=http%3A%2F%2Fcantarell.gnome.org%2Ffonts%2FCantarell-VF.otf;" parent="0my0_8O4Zz-QT_3my2oU-54" vertex="1">
                    <mxGeometry x="312" y="30" width="150" height="200" as="geometry">
                        <mxRectangle x="312" y="10" width="130" height="30" as="alternateBounds"/>
                    </mxGeometry>
                </mxCell>
                <mxCell id="0my0_8O4Zz-QT_3my2oU-56" value="Instance 0" style="swimlane;startSize=20;horizontal=0;html=1;fillColor=#76608a;fontColor=#ffffff;strokeColor=#432D57;fontFamily=Cantarell;fontSource=http%3A%2F%2Fcantarell.gnome.org%2Ffonts%2FCantarell-VF.otf;" parent="0my0_8O4Zz-QT_3my2oU-55" vertex="1">
                    <mxGeometry y="20" width="150" height="90" as="geometry"/>
                </mxCell>
                <mxCell id="0my0_8O4Zz-QT_3my2oU-57" value="Position (vec3)" style="rounded=0;whiteSpace=wrap;html=1;fontFamily=Cantarell;fontSource=http%3A%2F%2Fcantarell.gnome.org%2Ffonts%2FCantarell-VF.otf;" parent="0my0_8O4Zz-QT_3my2oU-56" vertex="1">
                    <mxGeometry x="30" y="10" width="110" height="30" as="geometry"/>
                </mxCell>
                <mxCell id="0my0_8O4Zz-QT_3my2oU-58" value="Color (vec3)" style="rounded=0;whiteSpace=wrap;html=1;fontFamily=Cantarell;fontSource=http%3A%2F%2Fcantarell.gnome.org%2Ffonts%2FCantarell-VF.otf;" parent="0my0_8O4Zz-QT_3my2oU-56" vertex="1">
                    <mxGeometry x="30" y="45" width="110" height="30" as="geometry"/>
                </mxCell>
                <mxCell id="0my0_8O4Zz-QT_3my2oU-59" value="Instance 1" style="swimlane;startSize=20;horizontal=0;html=1;fillColor=#76608a;fontColor=#ffffff;strokeColor=#432D57;fontFamily=Cantarell;fontSource=http%3A%2F%2Fcantarell.gnome.org%2Ffonts%2FCantarell-VF.otf;" parent="0my0_8O4Zz-QT_3my2oU-55" vertex="1">
                    <mxGeometry y="110" width="150" height="90" as="geometry"/>
                </mxCell>
                <mxCell id="0my0_8O4Zz-QT_3my2oU-60" value="Position (vec3)" style="rounded=0;whiteSpace=wrap;html=1;fontFamily=Cantarell;fontSource=http%3A%2F%2Fcantarell.gnome.org%2Ffonts%2FCantarell-VF.otf;" parent="0my0_8O4Zz-QT_3my2oU-59" vertex="1">
                    <mxGeometry x="30" y="10" width="110" height="30" as="geometry"/>
                </mxCell>
                <mxCell id="0my0_8O4Zz-QT_3my2oU-61" value="Color (vec3)" style="rounded=0;whiteSpace=wrap;html=1;fontFamily=Cantarell;fontSource=http%3A%2F%2Fcantarell.gnome.org%2Ffonts%2FCantarell-VF.otf;" parent="0my0_8O4Zz-QT_3my2oU-59" vertex="1">
                    <mxGeometry x="30" y="45" width="110" height="30" as="geometry"/>
                </mxCell>
                <mxCell id="0my0_8O4Zz-QT_3my2oU-62" style="edgeStyle=orthogonalEdgeStyle;rounded=0;orthogonalLoop=1;jettySize=auto;html=1;exitX=0;exitY=0.5;exitDx=0;exitDy=0;entryX=1;entryY=0.5;entryDx=0;entryDy=0;fontFamily=Cantarell;fontSource=http%3A%2F%2Fcantarell.gnome.org%2Ffonts%2FCantarell-VF.otf;" parent="0my0_8O4Zz-QT_3my2oU-54" source="0my0_8O4Zz-QT_3my2oU-64" target="0my0_8O4Zz-QT_3my2oU-56" edge="1">
                    <mxGeometry relative="1" as="geometry"/>
                </mxCell>
                <mxCell id="0my0_8O4Zz-QT_3my2oU-63" style="edgeStyle=orthogonalEdgeStyle;rounded=0;orthogonalLoop=1;jettySize=auto;html=1;exitX=0;exitY=0.5;exitDx=0;exitDy=0;entryX=1;entryY=0.5;entryDx=0;entryDy=0;fontFamily=Cantarell;fontSource=http%3A%2F%2Fcantarell.gnome.org%2Ffonts%2FCantarell-VF.otf;" parent="0my0_8O4Zz-QT_3my2oU-54" source="0my0_8O4Zz-QT_3my2oU-64" target="0my0_8O4Zz-QT_3my2oU-59" edge="1">
                    <mxGeometry relative="1" as="geometry"/>
                </mxCell>
                <mxCell id="0my0_8O4Zz-QT_3my2oU-64" value="Pattern Per Vertex" style="swimlane;whiteSpace=wrap;html=1;fillColor=#60a917;fontColor=#ffffff;strokeColor=#2D7600;fontFamily=Cantarell;fontSource=http%3A%2F%2Fcantarell.gnome.org%2Ffonts%2FCantarell-VF.otf;" parent="0my0_8O4Zz-QT_3my2oU-54" vertex="1">
                    <mxGeometry x="510" y="82.5" width="130" height="105" as="geometry"/>
                </mxCell>
                <mxCell id="0my0_8O4Zz-QT_3my2oU-65" value="Position (vec3)" style="rounded=0;whiteSpace=wrap;html=1;fontFamily=Cantarell;fontSource=http%3A%2F%2Fcantarell.gnome.org%2Ffonts%2FCantarell-VF.otf;" parent="0my0_8O4Zz-QT_3my2oU-64" vertex="1">
                    <mxGeometry x="10" y="30" width="110" height="30" as="geometry"/>
                </mxCell>
                <mxCell id="0my0_8O4Zz-QT_3my2oU-66" value="Color (vec3)" style="rounded=0;whiteSpace=wrap;html=1;fontFamily=Cantarell;fontSource=http%3A%2F%2Fcantarell.gnome.org%2Ffonts%2FCantarell-VF.otf;" parent="0my0_8O4Zz-QT_3my2oU-64" vertex="1">
                    <mxGeometry x="10" y="65" width="110" height="30" as="geometry"/>
                </mxCell>
                <mxCell id="0my0_8O4Zz-QT_3my2oU-67" style="edgeStyle=orthogonalEdgeStyle;rounded=0;orthogonalLoop=1;jettySize=auto;html=1;exitX=0;exitY=0.5;exitDx=0;exitDy=0;entryX=1;entryY=0.5;entryDx=0;entryDy=0;fontFamily=Cantarell;fontSource=http%3A%2F%2Fcantarell.gnome.org%2Ffonts%2FCantarell-VF.otf;" parent="0my0_8O4Zz-QT_3my2oU-54" source="0my0_8O4Zz-QT_3my2oU-68" target="0my0_8O4Zz-QT_3my2oU-65" edge="1">
                    <mxGeometry relative="1" as="geometry"/>
                </mxCell>
                <mxCell id="0my0_8O4Zz-QT_3my2oU-68" value="VertexInputAttributeDescription" style="swimlane;whiteSpace=wrap;html=1;fillColor=#d80073;fontColor=#ffffff;strokeColor=#A50040;fontFamily=Cantarell;fontSource=http%3A%2F%2Fcantarell.gnome.org%2Ffonts%2FCantarell-VF.otf;" parent="0my0_8O4Zz-QT_3my2oU-54" vertex="1">
                    <mxGeometry x="672" y="20" width="336" height="120" as="geometry"/>
                </mxCell>
                <mxCell id="0my0_8O4Zz-QT_3my2oU-69" value="location = 3" style="rounded=0;whiteSpace=wrap;html=1;fontFamily=Cantarell;fontSource=http%3A%2F%2Fcantarell.gnome.org%2Ffonts%2FCantarell-VF.otf;" parent="0my0_8O4Zz-QT_3my2oU-68" vertex="1">
                    <mxGeometry x="206" y="35" width="120" height="30" as="geometry"/>
                </mxCell>
                <mxCell id="0my0_8O4Zz-QT_3my2oU-70" value="format = R32G32B32Sfloat" style="rounded=0;whiteSpace=wrap;html=1;fontFamily=Cantarell;fontSource=http%3A%2F%2Fcantarell.gnome.org%2Ffonts%2FCantarell-VF.otf;" parent="0my0_8O4Zz-QT_3my2oU-68" vertex="1">
                    <mxGeometry x="16" y="35" width="174" height="30" as="geometry"/>
                </mxCell>
                <mxCell id="0my0_8O4Zz-QT_3my2oU-71" value="offset = 0 Byte" style="rounded=0;whiteSpace=wrap;html=1;fontFamily=Cantarell;fontSource=http%3A%2F%2Fcantarell.gnome.org%2Ffonts%2FCantarell-VF.otf;" parent="0my0_8O4Zz-QT_3my2oU-68" vertex="1">
                    <mxGeometry x="16" y="75" width="174" height="30" as="geometry"/>
                </mxCell>
                <mxCell id="0my0_8O4Zz-QT_3my2oU-72" value="binding = 1" style="rounded=0;whiteSpace=wrap;html=1;fillColor=#6d8764;fontColor=#ffffff;strokeColor=#3A5431;fontFamily=Cantarell;fontSource=http%3A%2F%2Fcantarell.gnome.org%2Ffonts%2FCantarell-VF.otf;" parent="0my0_8O4Zz-QT_3my2oU-68" vertex="1">
                    <mxGeometry x="206" y="75" width="120" height="30" as="geometry"/>
                </mxCell>
                <mxCell id="0my0_8O4Zz-QT_3my2oU-73" style="edgeStyle=orthogonalEdgeStyle;rounded=0;orthogonalLoop=1;jettySize=auto;html=1;exitX=0;exitY=0.5;exitDx=0;exitDy=0;entryX=1;entryY=0.5;entryDx=0;entryDy=0;fontFamily=Cantarell;fontSource=http%3A%2F%2Fcantarell.gnome.org%2Ffonts%2FCantarell-VF.otf;" parent="0my0_8O4Zz-QT_3my2oU-54" source="0my0_8O4Zz-QT_3my2oU-74" target="0my0_8O4Zz-QT_3my2oU-66" edge="1">
                    <mxGeometry relative="1" as="geometry"/>
                </mxCell>
                <mxCell id="0my0_8O4Zz-QT_3my2oU-74" value="VertexInputAttributeDescription" style="swimlane;whiteSpace=wrap;html=1;fillColor=#d80073;fontColor=#ffffff;strokeColor=#A50040;fontFamily=Cantarell;fontSource=http%3A%2F%2Fcantarell.gnome.org%2Ffonts%2FCantarell-VF.otf;" parent="0my0_8O4Zz-QT_3my2oU-54" vertex="1">
                    <mxGeometry x="672" y="150" width="336" height="120" as="geometry"/>
                </mxCell>
                <mxCell id="0my0_8O4Zz-QT_3my2oU-75" value="location = 4" style="rounded=0;whiteSpace=wrap;html=1;fontFamily=Cantarell;fontSource=http%3A%2F%2Fcantarell.gnome.org%2Ffonts%2FCantarell-VF.otf;" parent="0my0_8O4Zz-QT_3my2oU-74" vertex="1">
                    <mxGeometry x="206" y="35" width="120" height="30" as="geometry"/>
                </mxCell>
                <mxCell id="0my0_8O4Zz-QT_3my2oU-76" value="format = R32G32B32Sfloat" style="rounded=0;whiteSpace=wrap;html=1;fontFamily=Cantarell;fontSource=http%3A%2F%2Fcantarell.gnome.org%2Ffonts%2FCantarell-VF.otf;" parent="0my0_8O4Zz-QT_3my2oU-74" vertex="1">
                    <mxGeometry x="16" y="35" width="174" height="30" as="geometry"/>
                </mxCell>
                <mxCell id="0my0_8O4Zz-QT_3my2oU-77" value="offset = 12 Bytes" style="rounded=0;whiteSpace=wrap;html=1;fontFamily=Cantarell;fontSource=http%3A%2F%2Fcantarell.gnome.org%2Ffonts%2FCantarell-VF.otf;" parent="0my0_8O4Zz-QT_3my2oU-74" vertex="1">
                    <mxGeometry x="16" y="75" width="174" height="30" as="geometry"/>
                </mxCell>
                <mxCell id="0my0_8O4Zz-QT_3my2oU-78" value="binding = 1" style="rounded=0;whiteSpace=wrap;html=1;fillColor=#6d8764;fontColor=#ffffff;strokeColor=#3A5431;fontFamily=Cantarell;fontSource=http%3A%2F%2Fcantarell.gnome.org%2Ffonts%2FCantarell-VF.otf;" parent="0my0_8O4Zz-QT_3my2oU-74" vertex="1">
                    <mxGeometry x="206" y="75" width="120" height="30" as="geometry"/>
                </mxCell>
                <mxCell id="0my0_8O4Zz-QT_3my2oU-79" value="VertexInputBindingDescription" style="swimlane;whiteSpace=wrap;html=1;fillColor=#d80073;fontColor=#ffffff;strokeColor=#A50040;fontFamily=Cantarell;fontSource=http%3A%2F%2Fcantarell.gnome.org%2Ffonts%2FCantarell-VF.otf;" parent="0my0_8O4Zz-QT_3my2oU-54" vertex="1">
                    <mxGeometry x="50" y="30" width="190" height="170" as="geometry"/>
                </mxCell>
                <mxCell id="0my0_8O4Zz-QT_3my2oU-80" value="stride = 24 Bytes" style="whiteSpace=wrap;html=1;fontFamily=Cantarell;fontSource=http%3A%2F%2Fcantarell.gnome.org%2Ffonts%2FCantarell-VF.otf;" parent="0my0_8O4Zz-QT_3my2oU-79" vertex="1">
                    <mxGeometry x="10" y="35" width="170" height="35" as="geometry"/>
                </mxCell>
                <mxCell id="0my0_8O4Zz-QT_3my2oU-81" value="binding = 1" style="whiteSpace=wrap;html=1;fillColor=#6d8764;fontColor=#ffffff;strokeColor=#3A5431;fontFamily=Cantarell;fontSource=http%3A%2F%2Fcantarell.gnome.org%2Ffonts%2FCantarell-VF.otf;" parent="0my0_8O4Zz-QT_3my2oU-79" vertex="1">
                    <mxGeometry x="10" y="77.5" width="170" height="35" as="geometry"/>
                </mxCell>
                <mxCell id="0my0_8O4Zz-QT_3my2oU-82" value="inputRate = perInstance" style="whiteSpace=wrap;html=1;fontFamily=Cantarell;fontSource=http%3A%2F%2Fcantarell.gnome.org%2Ffonts%2FCantarell-VF.otf;" parent="0my0_8O4Zz-QT_3my2oU-79" vertex="1">
                    <mxGeometry x="10" y="120" width="170" height="35" as="geometry"/>
                </mxCell>
                <mxCell id="0my0_8O4Zz-QT_3my2oU-83" value="" style="shape=crossbar;whiteSpace=wrap;html=1;rounded=1;direction=south;fontFamily=Cantarell;fontSource=http%3A%2F%2Fcantarell.gnome.org%2Ffonts%2FCantarell-VF.otf;" parent="0my0_8O4Zz-QT_3my2oU-54" vertex="1">
                    <mxGeometry x="292" y="50" width="20" height="90" as="geometry"/>
                </mxCell>
                <mxCell id="0my0_8O4Zz-QT_3my2oU-84" value="24 Bytes" style="text;html=1;align=center;verticalAlign=middle;resizable=0;points=[];autosize=1;strokeColor=none;fillColor=none;rotation=-90;fontFamily=Cantarell;fontSource=http%3A%2F%2Fcantarell.gnome.org%2Ffonts%2FCantarell-VF.otf;" parent="0my0_8O4Zz-QT_3my2oU-54" vertex="1">
                    <mxGeometry x="252" y="80" width="70" height="30" as="geometry"/>
                </mxCell>
                <mxCell id="0my0_8O4Zz-QT_3my2oU-85" style="edgeStyle=orthogonalEdgeStyle;rounded=0;orthogonalLoop=1;jettySize=auto;html=1;exitX=1;exitY=0.5;exitDx=0;exitDy=0;entryX=0.476;entryY=-0.01;entryDx=0;entryDy=0;entryPerimeter=0;fontFamily=Cantarell;fontSource=http%3A%2F%2Fcantarell.gnome.org%2Ffonts%2FCantarell-VF.otf;" parent="0my0_8O4Zz-QT_3my2oU-54" source="0my0_8O4Zz-QT_3my2oU-80" target="0my0_8O4Zz-QT_3my2oU-84" edge="1">
                    <mxGeometry relative="1" as="geometry"/>
                </mxCell>
                <mxCell id="0my0_8O4Zz-QT_3my2oU-86" value="&lt;h1&gt;Per Instance&lt;/h1&gt;&lt;p&gt;Values stays the same across all vertices in the same instance&lt;/p&gt;" style="text;html=1;strokeColor=default;fillColor=none;spacing=5;spacingTop=-20;whiteSpace=wrap;overflow=hidden;rounded=0;dashed=1;fontFamily=Cantarell;fontSource=http%3A%2F%2Fcantarell.gnome.org%2Ffonts%2FCantarell-VF.otf;" parent="0my0_8O4Zz-QT_3my2oU-54" vertex="1">
                    <mxGeometry x="50" y="220" width="190" height="90" as="geometry"/>
                </mxCell>
                <mxCell id="0my0_8O4Zz-QT_3my2oU-87" style="rounded=0;orthogonalLoop=1;jettySize=auto;html=1;exitX=0.5;exitY=1;exitDx=0;exitDy=0;endArrow=none;endFill=0;shape=link;fontFamily=Cantarell;fontSource=http%3A%2F%2Fcantarell.gnome.org%2Ffonts%2FCantarell-VF.otf;" parent="0my0_8O4Zz-QT_3my2oU-54" source="0my0_8O4Zz-QT_3my2oU-82" target="0my0_8O4Zz-QT_3my2oU-86" edge="1">
                    <mxGeometry relative="1" as="geometry"/>
                </mxCell>
                <mxCell id="0my0_8O4Zz-QT_3my2oU-88" value="&lt;div style=&quot;background-color: rgb(30, 30, 30); font-family: &amp;quot;Fira Code&amp;quot;, Consolas, &amp;quot;Courier New&amp;quot;, monospace; font-weight: normal; font-size: 14px; line-height: 19px;&quot;&gt;&lt;div style=&quot;&quot;&gt;&lt;span style=&quot;color: rgb(224, 108, 117);&quot;&gt;&amp;nbsp;layout&lt;/span&gt;&lt;span style=&quot;color: rgb(212, 212, 212);&quot;&gt;(location &lt;/span&gt;&lt;span style=&quot;color: rgb(86, 182, 194);&quot;&gt;=&lt;/span&gt;&lt;span style=&quot;color: rgb(212, 212, 212);&quot;&gt;&amp;nbsp;&lt;/span&gt;&lt;font color=&quot;#9ce79c&quot;&gt;3&lt;/font&gt;&lt;span style=&quot;color: rgb(212, 212, 212);&quot;&gt;) &lt;/span&gt;&lt;span style=&quot;color: rgb(224, 108, 117);&quot;&gt;in&lt;/span&gt;&lt;span style=&quot;color: rgb(212, 212, 212);&quot;&gt; &lt;/span&gt;&lt;span style=&quot;color: rgb(224, 108, 117);&quot;&gt;vec3&lt;/span&gt;&lt;span style=&quot;color: rgb(212, 212, 212);&quot;&gt;&amp;nbsp;instancePosition;&lt;/span&gt;&lt;/div&gt;&lt;div style=&quot;&quot;&gt;&lt;span style=&quot;color: rgb(224, 108, 117);&quot;&gt;&amp;nbsp;layout&lt;/span&gt;&lt;span style=&quot;color: rgb(212, 212, 212);&quot;&gt;(location &lt;/span&gt;&lt;span style=&quot;color: rgb(86, 182, 194);&quot;&gt;=&lt;/span&gt;&lt;span style=&quot;color: rgb(212, 212, 212);&quot;&gt;&amp;nbsp;&lt;/span&gt;&lt;font color=&quot;#9ce79c&quot;&gt;4&lt;/font&gt;&lt;span style=&quot;color: rgb(212, 212, 212);&quot;&gt;) &lt;/span&gt;&lt;span style=&quot;color: rgb(224, 108, 117);&quot;&gt;in&lt;/span&gt;&lt;span style=&quot;color: rgb(212, 212, 212);&quot;&gt; &lt;/span&gt;&lt;span style=&quot;color: rgb(224, 108, 117);&quot;&gt;vec3&lt;/span&gt;&lt;span style=&quot;color: rgb(212, 212, 212);&quot;&gt;&amp;nbsp;instanceColor;&lt;/span&gt;&lt;/div&gt;&lt;/div&gt;" style="text;whiteSpace=wrap;html=1;strokeColor=default;" parent="1" vertex="1">
                    <mxGeometry x="1167" y="790" width="410" height="50" as="geometry"/>
                </mxCell>
                <mxCell id="0my0_8O4Zz-QT_3my2oU-89" value="Vertex Shader" style="text;html=1;strokeColor=none;fillColor=none;align=center;verticalAlign=middle;whiteSpace=wrap;rounded=0;fontFamily=Cantarell;fontSource=http%3A%2F%2Fcantarell.gnome.org%2Ffonts%2FCantarell-VF.otf;" parent="1" vertex="1">
                    <mxGeometry x="1167" y="770" width="90" height="15" as="geometry"/>
                </mxCell>
                <mxCell id="0my0_8O4Zz-QT_3my2oU-90" style="edgeStyle=orthogonalEdgeStyle;rounded=0;orthogonalLoop=1;jettySize=auto;html=1;exitX=1;exitY=0.5;exitDx=0;exitDy=0;entryX=0;entryY=0.25;entryDx=0;entryDy=0;fontFamily=Cantarell;fontSource=http%3A%2F%2Fcantarell.gnome.org%2Ffonts%2FCantarell-VF.otf;" parent="1" source="0my0_8O4Zz-QT_3my2oU-68" target="0my0_8O4Zz-QT_3my2oU-88" edge="1">
                    <mxGeometry relative="1" as="geometry"/>
                </mxCell>
                <mxCell id="0my0_8O4Zz-QT_3my2oU-91" style="edgeStyle=orthogonalEdgeStyle;rounded=0;orthogonalLoop=1;jettySize=auto;html=1;exitX=1;exitY=0.5;exitDx=0;exitDy=0;entryX=0;entryY=0.75;entryDx=0;entryDy=0;fontFamily=Cantarell;fontSource=http%3A%2F%2Fcantarell.gnome.org%2Ffonts%2FCantarell-VF.otf;" parent="1" source="0my0_8O4Zz-QT_3my2oU-74" target="0my0_8O4Zz-QT_3my2oU-88" edge="1">
                    <mxGeometry relative="1" as="geometry"/>
                </mxCell>
                <mxCell id="0my0_8O4Zz-QT_3my2oU-92" value="Graphic" style="swimlane;whiteSpace=wrap;html=1;fontFamily=Cantarell;fontSource=http%3A%2F%2Fcantarell.gnome.org%2Ffonts%2FCantarell-VF.otf;" parent="1" vertex="1">
                    <mxGeometry x="1237" y="484.5" width="270" height="220" as="geometry"/>
                </mxCell>
                <mxCell id="0my0_8O4Zz-QT_3my2oU-93" value="" style="triangle;whiteSpace=wrap;html=1;rotation=-90;fillColor=#6d8764;fontColor=#ffffff;strokeColor=#3A5431;fontFamily=Cantarell;fontSource=http%3A%2F%2Fcantarell.gnome.org%2Ffonts%2FCantarell-VF.otf;" parent="0my0_8O4Zz-QT_3my2oU-92" vertex="1">
                    <mxGeometry x="55" y="40" width="110" height="120" as="geometry"/>
                </mxCell>
                <mxCell id="0my0_8O4Zz-QT_3my2oU-94" value="" style="triangle;whiteSpace=wrap;html=1;rotation=-90;fillColor=#76608a;fontColor=#ffffff;strokeColor=#432D57;fontFamily=Cantarell;fontSource=http%3A%2F%2Fcantarell.gnome.org%2Ffonts%2FCantarell-VF.otf;" parent="0my0_8O4Zz-QT_3my2oU-92" vertex="1">
                    <mxGeometry x="90" y="70" width="110" height="120" as="geometry"/>
                </mxCell>
                <mxCell id="0my0_8O4Zz-QT_3my2oU-95" value="Vertex 0" style="text;html=1;align=center;verticalAlign=middle;resizable=0;points=[];autosize=1;strokeColor=none;fillColor=none;fontSize=10;fontFamily=Cantarell;fontSource=http%3A%2F%2Fcantarell.gnome.org%2Ffonts%2FCantarell-VF.otf;" parent="0my0_8O4Zz-QT_3my2oU-92" vertex="1">
                    <mxGeometry x="140" y="60" width="60" height="30" as="geometry"/>
                </mxCell>
                <mxCell id="0my0_8O4Zz-QT_3my2oU-96" value="Vertex 1" style="text;html=1;align=center;verticalAlign=middle;resizable=0;points=[];autosize=1;strokeColor=none;fillColor=none;fontSize=10;fontFamily=Cantarell;fontSource=http%3A%2F%2Fcantarell.gnome.org%2Ffonts%2FCantarell-VF.otf;" parent="0my0_8O4Zz-QT_3my2oU-92" vertex="1">
                    <mxGeometry x="200" y="170" width="60" height="30" as="geometry"/>
                </mxCell>
                <mxCell id="0my0_8O4Zz-QT_3my2oU-97" value="Vertex 2" style="text;html=1;align=center;verticalAlign=middle;resizable=0;points=[];autosize=1;strokeColor=none;fillColor=none;fontSize=10;fontFamily=Cantarell;fontSource=http%3A%2F%2Fcantarell.gnome.org%2Ffonts%2FCantarell-VF.otf;" parent="0my0_8O4Zz-QT_3my2oU-92" vertex="1">
                    <mxGeometry x="30" y="170" width="60" height="30" as="geometry"/>
                </mxCell>
                <mxCell id="0my0_8O4Zz-QT_3my2oU-98" value="Instance 0" style="text;html=1;align=center;verticalAlign=middle;resizable=0;points=[];autosize=1;strokeColor=none;fillColor=none;fontSize=10;fontFamily=Cantarell;fontSource=http%3A%2F%2Fcantarell.gnome.org%2Ffonts%2FCantarell-VF.otf;" parent="0my0_8O4Zz-QT_3my2oU-92" vertex="1">
                    <mxGeometry x="110" y="140" width="70" height="30" as="geometry"/>
                </mxCell>
                <mxCell id="0my0_8O4Zz-QT_3my2oU-99" value="Instance 1" style="text;html=1;align=center;verticalAlign=middle;resizable=0;points=[];autosize=1;strokeColor=none;fillColor=none;fontSize=10;rotation=-60;fontFamily=Cantarell;fontSource=http%3A%2F%2Fcantarell.gnome.org%2Ffonts%2FCantarell-VF.otf;" parent="0my0_8O4Zz-QT_3my2oU-92" vertex="1">
                    <mxGeometry x="55" y="100" width="70" height="30" as="geometry"/>
                </mxCell>
                <mxCell id="0my0_8O4Zz-QT_3my2oU-100" value="Vertex 0" style="text;html=1;align=center;verticalAlign=middle;resizable=0;points=[];autosize=1;strokeColor=none;fillColor=none;fontSize=10;fontFamily=Cantarell;fontSource=http%3A%2F%2Fcantarell.gnome.org%2Ffonts%2FCantarell-VF.otf;" parent="0my0_8O4Zz-QT_3my2oU-92" vertex="1">
                    <mxGeometry x="105" y="30" width="60" height="30" as="geometry"/>
                </mxCell>
                <mxCell id="0my0_8O4Zz-QT_3my2oU-101" value="Vertex 2" style="text;html=1;align=center;verticalAlign=middle;resizable=0;points=[];autosize=1;strokeColor=none;fillColor=none;fontSize=10;fontFamily=Cantarell;fontSource=http%3A%2F%2Fcantarell.gnome.org%2Ffonts%2FCantarell-VF.otf;" parent="0my0_8O4Zz-QT_3my2oU-92" vertex="1">
                    <mxGeometry x="-5" y="140" width="60" height="30" as="geometry"/>
                </mxCell>
            </root>
        </mxGraphModel>
    </diagram>
    <diagram id="kZYAvAEtT2Rk5LLmi0iJ" name="Graphics Pipeline">
        <mxGraphModel dx="1399" dy="752" grid="1" gridSize="10" guides="1" tooltips="1" connect="1" arrows="1" fold="1" page="1" pageScale="1" pageWidth="1169" pageHeight="827" background="none" math="0" shadow="0">
            <root>
                <mxCell id="0"/>
                <mxCell id="1" parent="0"/>
                <mxCell id="JrCdFKoOf_U83BGG_Y9f-20" style="edgeStyle=orthogonalEdgeStyle;shape=flexArrow;html=1;exitX=1;exitY=0.5;exitDx=0;exitDy=0;entryX=0.5;entryY=0;entryDx=0;entryDy=0;elbow=vertical;shadow=1;fontFamily=Cantarell;fontSource=http%3A%2F%2Fcantarell.gnome.org%2Ffonts%2FCantarell-VF.otf;" parent="1" source="wVS6Ze9wND7FLs_Az07J-1" target="wVS6Ze9wND7FLs_Az07J-8" edge="1">
                    <mxGeometry relative="1" as="geometry"/>
                </mxCell>
                <mxCell id="wVS6Ze9wND7FLs_Az07J-1" value="Basic Graphics Pipeline" style="swimlane;startSize=0;movable=1;resizable=1;rotatable=1;deletable=1;editable=1;connectable=1;opacity=50;shadow=1;fontFamily=Cantarell;fontSource=http%3A%2F%2Fcantarell.gnome.org%2Ffonts%2FCantarell-VF.otf;" parent="1" vertex="1">
                    <mxGeometry x="210" y="364" width="810" height="100" as="geometry"/>
                </mxCell>
                <mxCell id="wVS6Ze9wND7FLs_Az07J-13" style="edgeStyle=none;html=1;exitX=1;exitY=0.5;exitDx=0;exitDy=0;shape=flexArrow;shadow=1;fontFamily=Cantarell;fontSource=http%3A%2F%2Fcantarell.gnome.org%2Ffonts%2FCantarell-VF.otf;" parent="wVS6Ze9wND7FLs_Az07J-1" source="wVS6Ze9wND7FLs_Az07J-2" target="wVS6Ze9wND7FLs_Az07J-3" edge="1">
                    <mxGeometry relative="1" as="geometry"/>
                </mxCell>
                <mxCell id="wVS6Ze9wND7FLs_Az07J-2" value="Input Assembling" style="rounded=1;whiteSpace=wrap;html=1;shadow=1;fontFamily=Cantarell;fontSource=http%3A%2F%2Fcantarell.gnome.org%2Ffonts%2FCantarell-VF.otf;" parent="wVS6Ze9wND7FLs_Az07J-1" vertex="1">
                    <mxGeometry x="45" y="20" width="120" height="60" as="geometry"/>
                </mxCell>
                <mxCell id="wVS6Ze9wND7FLs_Az07J-14" style="edgeStyle=none;html=1;exitX=1;exitY=0.5;exitDx=0;exitDy=0;shape=flexArrow;shadow=1;fontFamily=Cantarell;fontSource=http%3A%2F%2Fcantarell.gnome.org%2Ffonts%2FCantarell-VF.otf;" parent="wVS6Ze9wND7FLs_Az07J-1" source="wVS6Ze9wND7FLs_Az07J-3" target="wVS6Ze9wND7FLs_Az07J-4" edge="1">
                    <mxGeometry relative="1" as="geometry"/>
                </mxCell>
                <mxCell id="wVS6Ze9wND7FLs_Az07J-3" value="Vertex Shader" style="rounded=1;whiteSpace=wrap;html=1;shadow=1;fontFamily=Cantarell;fontSource=http%3A%2F%2Fcantarell.gnome.org%2Ffonts%2FCantarell-VF.otf;" parent="wVS6Ze9wND7FLs_Az07J-1" vertex="1">
                    <mxGeometry x="195" y="20" width="120" height="60" as="geometry"/>
                </mxCell>
                <mxCell id="wVS6Ze9wND7FLs_Az07J-15" style="edgeStyle=none;html=1;exitX=1;exitY=0.5;exitDx=0;exitDy=0;shape=flexArrow;shadow=1;fontFamily=Cantarell;fontSource=http%3A%2F%2Fcantarell.gnome.org%2Ffonts%2FCantarell-VF.otf;" parent="wVS6Ze9wND7FLs_Az07J-1" source="wVS6Ze9wND7FLs_Az07J-4" target="wVS6Ze9wND7FLs_Az07J-5" edge="1">
                    <mxGeometry relative="1" as="geometry">
                        <Array as="points">
                            <mxPoint x="480" y="50"/>
                        </Array>
                    </mxGeometry>
                </mxCell>
                <mxCell id="wVS6Ze9wND7FLs_Az07J-4" value="Rasterization" style="rounded=1;whiteSpace=wrap;html=1;shadow=1;fontFamily=Cantarell;fontSource=http%3A%2F%2Fcantarell.gnome.org%2Ffonts%2FCantarell-VF.otf;" parent="wVS6Ze9wND7FLs_Az07J-1" vertex="1">
                    <mxGeometry x="345" y="20" width="120" height="60" as="geometry"/>
                </mxCell>
                <mxCell id="wVS6Ze9wND7FLs_Az07J-16" style="edgeStyle=none;html=1;exitX=1;exitY=0.5;exitDx=0;exitDy=0;shape=flexArrow;shadow=1;fontFamily=Cantarell;fontSource=http%3A%2F%2Fcantarell.gnome.org%2Ffonts%2FCantarell-VF.otf;" parent="wVS6Ze9wND7FLs_Az07J-1" source="wVS6Ze9wND7FLs_Az07J-5" target="wVS6Ze9wND7FLs_Az07J-6" edge="1">
                    <mxGeometry relative="1" as="geometry"/>
                </mxCell>
                <mxCell id="wVS6Ze9wND7FLs_Az07J-5" value="Fragment Shader" style="rounded=1;whiteSpace=wrap;html=1;shadow=1;fontFamily=Cantarell;fontSource=http%3A%2F%2Fcantarell.gnome.org%2Ffonts%2FCantarell-VF.otf;" parent="wVS6Ze9wND7FLs_Az07J-1" vertex="1">
                    <mxGeometry x="495" y="20" width="120" height="60" as="geometry"/>
                </mxCell>
                <mxCell id="wVS6Ze9wND7FLs_Az07J-17" style="edgeStyle=none;html=1;exitX=1;exitY=0.5;exitDx=0;exitDy=0;entryX=1;entryY=0.5;entryDx=0;entryDy=0;shape=flexArrow;shadow=1;fontFamily=Cantarell;fontSource=http%3A%2F%2Fcantarell.gnome.org%2Ffonts%2FCantarell-VF.otf;" parent="wVS6Ze9wND7FLs_Az07J-1" source="wVS6Ze9wND7FLs_Az07J-6" target="wVS6Ze9wND7FLs_Az07J-1" edge="1">
                    <mxGeometry relative="1" as="geometry"/>
                </mxCell>
                <mxCell id="wVS6Ze9wND7FLs_Az07J-6" value="Color Blending" style="rounded=1;whiteSpace=wrap;html=1;shadow=1;fontFamily=Cantarell;fontSource=http%3A%2F%2Fcantarell.gnome.org%2Ffonts%2FCantarell-VF.otf;" parent="wVS6Ze9wND7FLs_Az07J-1" vertex="1">
                    <mxGeometry x="645" y="20" width="120" height="60" as="geometry"/>
                </mxCell>
                <mxCell id="wVS6Ze9wND7FLs_Az07J-12" style="edgeStyle=none;html=1;exitX=0;exitY=0.5;exitDx=0;exitDy=0;entryX=0;entryY=0.5;entryDx=0;entryDy=0;shape=flexArrow;shadow=1;fontFamily=Cantarell;fontSource=http%3A%2F%2Fcantarell.gnome.org%2Ffonts%2FCantarell-VF.otf;" parent="wVS6Ze9wND7FLs_Az07J-1" source="wVS6Ze9wND7FLs_Az07J-1" target="wVS6Ze9wND7FLs_Az07J-2" edge="1">
                    <mxGeometry relative="1" as="geometry"/>
                </mxCell>
                <mxCell id="JrCdFKoOf_U83BGG_Y9f-13" style="edgeStyle=orthogonalEdgeStyle;html=1;exitX=0.5;exitY=1;exitDx=0;exitDy=0;entryX=0;entryY=0.5;entryDx=0;entryDy=0;elbow=vertical;shape=flexArrow;shadow=1;fontFamily=Cantarell;fontSource=http%3A%2F%2Fcantarell.gnome.org%2Ffonts%2FCantarell-VF.otf;" parent="1" source="wVS6Ze9wND7FLs_Az07J-7" target="wVS6Ze9wND7FLs_Az07J-1" edge="1">
                    <mxGeometry relative="1" as="geometry"/>
                </mxCell>
                <mxCell id="wVS6Ze9wND7FLs_Az07J-7" value="Vertex/Index Buffer" style="ellipse;whiteSpace=wrap;html=1;shadow=1;fontFamily=Cantarell;fontSource=http%3A%2F%2Fcantarell.gnome.org%2Ffonts%2FCantarell-VF.otf;" parent="1" vertex="1">
                    <mxGeometry x="20" y="180" width="120" height="80" as="geometry"/>
                </mxCell>
                <mxCell id="wVS6Ze9wND7FLs_Az07J-8" value="Framebuffer" style="ellipse;whiteSpace=wrap;html=1;shadow=1;fontFamily=Cantarell;fontSource=http%3A%2F%2Fcantarell.gnome.org%2Ffonts%2FCantarell-VF.otf;" parent="1" vertex="1">
                    <mxGeometry x="1020" y="600" width="120" height="80" as="geometry"/>
                </mxCell>
                <mxCell id="JrCdFKoOf_U83BGG_Y9f-9" style="edgeStyle=orthogonalEdgeStyle;elbow=vertical;html=1;exitX=1;exitY=0.5;exitDx=0;exitDy=0;entryX=0.5;entryY=0;entryDx=0;entryDy=0;shadow=1;fontFamily=Cantarell;fontSource=http%3A%2F%2Fcantarell.gnome.org%2Ffonts%2FCantarell-VF.otf;" parent="1" source="JrCdFKoOf_U83BGG_Y9f-6" target="wVS6Ze9wND7FLs_Az07J-2" edge="1">
                    <mxGeometry relative="1" as="geometry"/>
                </mxCell>
                <mxCell id="JrCdFKoOf_U83BGG_Y9f-6" value="Topology" style="rounded=0;whiteSpace=wrap;html=1;shadow=1;fontFamily=Cantarell;fontSource=http%3A%2F%2Fcantarell.gnome.org%2Ffonts%2FCantarell-VF.otf;" parent="1" vertex="1">
                    <mxGeometry x="180" y="260" width="120" height="30" as="geometry"/>
                </mxCell>
                <mxCell id="JrCdFKoOf_U83BGG_Y9f-8" style="edgeStyle=orthogonalEdgeStyle;elbow=vertical;html=1;exitX=1;exitY=0.5;exitDx=0;exitDy=0;entryX=0.5;entryY=0;entryDx=0;entryDy=0;shadow=1;fontFamily=Cantarell;fontSource=http%3A%2F%2Fcantarell.gnome.org%2Ffonts%2FCantarell-VF.otf;" parent="1" source="JrCdFKoOf_U83BGG_Y9f-7" target="wVS6Ze9wND7FLs_Az07J-2" edge="1">
                    <mxGeometry relative="1" as="geometry"/>
                </mxCell>
                <mxCell id="JrCdFKoOf_U83BGG_Y9f-7" value="Restart Enabled" style="rounded=0;whiteSpace=wrap;html=1;shadow=1;fontFamily=Cantarell;fontSource=http%3A%2F%2Fcantarell.gnome.org%2Ffonts%2FCantarell-VF.otf;" parent="1" vertex="1">
                    <mxGeometry x="180" y="310" width="120" height="30" as="geometry"/>
                </mxCell>
                <mxCell id="JrCdFKoOf_U83BGG_Y9f-18" style="edgeStyle=orthogonalEdgeStyle;html=1;exitX=0;exitY=0.5;exitDx=0;exitDy=0;entryX=0.5;entryY=0;entryDx=0;entryDy=0;elbow=vertical;shadow=1;fontFamily=Cantarell;fontSource=http%3A%2F%2Fcantarell.gnome.org%2Ffonts%2FCantarell-VF.otf;" parent="1" source="JrCdFKoOf_U83BGG_Y9f-14" target="wVS6Ze9wND7FLs_Az07J-7" edge="1">
                    <mxGeometry relative="1" as="geometry"/>
                </mxCell>
                <mxCell id="JrCdFKoOf_U83BGG_Y9f-14" value="Vertex Binding" style="rounded=0;whiteSpace=wrap;html=1;shadow=1;fontFamily=Cantarell;fontSource=http%3A%2F%2Fcantarell.gnome.org%2Ffonts%2FCantarell-VF.otf;" parent="1" vertex="1">
                    <mxGeometry x="110" y="80" width="120" height="30" as="geometry"/>
                </mxCell>
                <mxCell id="JrCdFKoOf_U83BGG_Y9f-16" style="edgeStyle=orthogonalEdgeStyle;html=1;exitX=0;exitY=0.5;exitDx=0;exitDy=0;entryX=0.5;entryY=0;entryDx=0;entryDy=0;elbow=vertical;shadow=1;fontFamily=Cantarell;fontSource=http%3A%2F%2Fcantarell.gnome.org%2Ffonts%2FCantarell-VF.otf;" parent="1" source="JrCdFKoOf_U83BGG_Y9f-15" target="wVS6Ze9wND7FLs_Az07J-7" edge="1">
                    <mxGeometry relative="1" as="geometry"/>
                </mxCell>
                <mxCell id="JrCdFKoOf_U83BGG_Y9f-15" value="Vertex Attribute" style="rounded=0;whiteSpace=wrap;html=1;shadow=1;fontFamily=Cantarell;fontSource=http%3A%2F%2Fcantarell.gnome.org%2Ffonts%2FCantarell-VF.otf;" parent="1" vertex="1">
                    <mxGeometry x="110" y="120" width="120" height="30" as="geometry"/>
                </mxCell>
                <mxCell id="JrCdFKoOf_U83BGG_Y9f-32" style="edgeStyle=orthogonalEdgeStyle;html=1;exitX=1;exitY=0.5;exitDx=0;exitDy=0;entryX=0.5;entryY=1;entryDx=0;entryDy=0;shadow=1;fontFamily=Cantarell;fontSource=http%3A%2F%2Fcantarell.gnome.org%2Ffonts%2FCantarell-VF.otf;" parent="1" source="JrCdFKoOf_U83BGG_Y9f-21" target="wVS6Ze9wND7FLs_Az07J-4" edge="1">
                    <mxGeometry relative="1" as="geometry"/>
                </mxCell>
                <mxCell id="JrCdFKoOf_U83BGG_Y9f-21" value="Crop" style="rounded=0;whiteSpace=wrap;html=1;shadow=1;fontFamily=Cantarell;fontSource=http%3A%2F%2Fcantarell.gnome.org%2Ffonts%2FCantarell-VF.otf;" parent="1" vertex="1">
                    <mxGeometry x="450" y="490" width="120" height="30" as="geometry"/>
                </mxCell>
                <mxCell id="JrCdFKoOf_U83BGG_Y9f-24" style="edgeStyle=orthogonalEdgeStyle;html=1;exitX=1;exitY=0.5;exitDx=0;exitDy=0;entryX=0;entryY=0.5;entryDx=0;entryDy=0;shadow=1;fontFamily=Cantarell;fontSource=http%3A%2F%2Fcantarell.gnome.org%2Ffonts%2FCantarell-VF.otf;" parent="1" source="JrCdFKoOf_U83BGG_Y9f-22" target="JrCdFKoOf_U83BGG_Y9f-21" edge="1">
                    <mxGeometry relative="1" as="geometry"/>
                </mxCell>
                <mxCell id="JrCdFKoOf_U83BGG_Y9f-22" value="Vierport" style="rounded=1;whiteSpace=wrap;html=1;shadow=1;fontFamily=Cantarell;fontSource=http%3A%2F%2Fcantarell.gnome.org%2Ffonts%2FCantarell-VF.otf;" parent="1" vertex="1">
                    <mxGeometry x="290" y="490" width="120" height="30" as="geometry"/>
                </mxCell>
                <mxCell id="JrCdFKoOf_U83BGG_Y9f-25" style="edgeStyle=orthogonalEdgeStyle;html=1;exitX=1;exitY=0.5;exitDx=0;exitDy=0;entryX=0;entryY=0.5;entryDx=0;entryDy=0;shadow=1;fontFamily=Cantarell;fontSource=http%3A%2F%2Fcantarell.gnome.org%2Ffonts%2FCantarell-VF.otf;" parent="1" source="JrCdFKoOf_U83BGG_Y9f-23" target="JrCdFKoOf_U83BGG_Y9f-21" edge="1">
                    <mxGeometry relative="1" as="geometry"/>
                </mxCell>
                <mxCell id="JrCdFKoOf_U83BGG_Y9f-23" value="Scissor" style="rounded=1;whiteSpace=wrap;html=1;shadow=1;fontFamily=Cantarell;fontSource=http%3A%2F%2Fcantarell.gnome.org%2Ffonts%2FCantarell-VF.otf;" parent="1" vertex="1">
                    <mxGeometry x="290" y="530" width="120" height="30" as="geometry"/>
                </mxCell>
                <mxCell id="JrCdFKoOf_U83BGG_Y9f-33" style="edgeStyle=orthogonalEdgeStyle;html=1;exitX=1;exitY=0.5;exitDx=0;exitDy=0;entryX=0.5;entryY=1;entryDx=0;entryDy=0;shadow=1;fontFamily=Cantarell;fontSource=http%3A%2F%2Fcantarell.gnome.org%2Ffonts%2FCantarell-VF.otf;" parent="1" source="JrCdFKoOf_U83BGG_Y9f-26" target="wVS6Ze9wND7FLs_Az07J-4" edge="1">
                    <mxGeometry relative="1" as="geometry"/>
                </mxCell>
                <mxCell id="JrCdFKoOf_U83BGG_Y9f-26" value="Depth Clamp" style="rounded=0;whiteSpace=wrap;html=1;shadow=1;fontFamily=Cantarell;fontSource=http%3A%2F%2Fcantarell.gnome.org%2Ffonts%2FCantarell-VF.otf;" parent="1" vertex="1">
                    <mxGeometry x="450" y="530" width="120" height="30" as="geometry"/>
                </mxCell>
                <mxCell id="JrCdFKoOf_U83BGG_Y9f-34" style="edgeStyle=orthogonalEdgeStyle;html=1;exitX=1;exitY=0.5;exitDx=0;exitDy=0;entryX=0.5;entryY=1;entryDx=0;entryDy=0;shadow=1;fontFamily=Cantarell;fontSource=http%3A%2F%2Fcantarell.gnome.org%2Ffonts%2FCantarell-VF.otf;" parent="1" source="JrCdFKoOf_U83BGG_Y9f-27" target="wVS6Ze9wND7FLs_Az07J-4" edge="1">
                    <mxGeometry relative="1" as="geometry"/>
                </mxCell>
                <mxCell id="JrCdFKoOf_U83BGG_Y9f-27" value="Polygon Mode" style="rounded=0;whiteSpace=wrap;html=1;shadow=1;fontFamily=Cantarell;fontSource=http%3A%2F%2Fcantarell.gnome.org%2Ffonts%2FCantarell-VF.otf;" parent="1" vertex="1">
                    <mxGeometry x="450" y="570" width="120" height="30" as="geometry"/>
                </mxCell>
                <mxCell id="JrCdFKoOf_U83BGG_Y9f-35" style="edgeStyle=orthogonalEdgeStyle;html=1;exitX=1;exitY=0.5;exitDx=0;exitDy=0;entryX=0.5;entryY=1;entryDx=0;entryDy=0;shadow=1;fontFamily=Cantarell;fontSource=http%3A%2F%2Fcantarell.gnome.org%2Ffonts%2FCantarell-VF.otf;" parent="1" source="JrCdFKoOf_U83BGG_Y9f-28" target="wVS6Ze9wND7FLs_Az07J-4" edge="1">
                    <mxGeometry relative="1" as="geometry"/>
                </mxCell>
                <mxCell id="JrCdFKoOf_U83BGG_Y9f-28" value="Cull Mode &amp;amp; Front" style="rounded=0;whiteSpace=wrap;html=1;shadow=1;fontFamily=Cantarell;fontSource=http%3A%2F%2Fcantarell.gnome.org%2Ffonts%2FCantarell-VF.otf;" parent="1" vertex="1">
                    <mxGeometry x="450" y="610" width="120" height="30" as="geometry"/>
                </mxCell>
                <mxCell id="JrCdFKoOf_U83BGG_Y9f-36" style="edgeStyle=orthogonalEdgeStyle;html=1;exitX=1;exitY=0.5;exitDx=0;exitDy=0;entryX=0.5;entryY=1;entryDx=0;entryDy=0;shadow=1;fontFamily=Cantarell;fontSource=http%3A%2F%2Fcantarell.gnome.org%2Ffonts%2FCantarell-VF.otf;" parent="1" source="JrCdFKoOf_U83BGG_Y9f-29" target="wVS6Ze9wND7FLs_Az07J-4" edge="1">
                    <mxGeometry relative="1" as="geometry"/>
                </mxCell>
                <mxCell id="JrCdFKoOf_U83BGG_Y9f-29" value="Depth Bias" style="rounded=0;whiteSpace=wrap;html=1;shadow=1;fontFamily=Cantarell;fontSource=http%3A%2F%2Fcantarell.gnome.org%2Ffonts%2FCantarell-VF.otf;" parent="1" vertex="1">
                    <mxGeometry x="450" y="650" width="120" height="30" as="geometry"/>
                </mxCell>
                <mxCell id="JrCdFKoOf_U83BGG_Y9f-37" style="edgeStyle=orthogonalEdgeStyle;html=1;exitX=1;exitY=0.5;exitDx=0;exitDy=0;entryX=0.5;entryY=1;entryDx=0;entryDy=0;shadow=1;fontFamily=Cantarell;fontSource=http%3A%2F%2Fcantarell.gnome.org%2Ffonts%2FCantarell-VF.otf;" parent="1" source="JrCdFKoOf_U83BGG_Y9f-30" target="wVS6Ze9wND7FLs_Az07J-4" edge="1">
                    <mxGeometry relative="1" as="geometry"/>
                </mxCell>
                <mxCell id="JrCdFKoOf_U83BGG_Y9f-30" value="Multi-sampling" style="rounded=0;whiteSpace=wrap;html=1;shadow=1;fontFamily=Cantarell;fontSource=http%3A%2F%2Fcantarell.gnome.org%2Ffonts%2FCantarell-VF.otf;" parent="1" vertex="1">
                    <mxGeometry x="450" y="690" width="120" height="30" as="geometry"/>
                </mxCell>
                <mxCell id="JrCdFKoOf_U83BGG_Y9f-38" style="edgeStyle=orthogonalEdgeStyle;html=1;exitX=1;exitY=0.5;exitDx=0;exitDy=0;entryX=0.5;entryY=1;entryDx=0;entryDy=0;shadow=1;fontFamily=Cantarell;fontSource=http%3A%2F%2Fcantarell.gnome.org%2Ffonts%2FCantarell-VF.otf;" parent="1" source="JrCdFKoOf_U83BGG_Y9f-31" target="wVS6Ze9wND7FLs_Az07J-4" edge="1">
                    <mxGeometry relative="1" as="geometry"/>
                </mxCell>
                <mxCell id="JrCdFKoOf_U83BGG_Y9f-31" value="Depth/Stencil Test" style="rounded=0;whiteSpace=wrap;html=1;shadow=1;fontFamily=Cantarell;fontSource=http%3A%2F%2Fcantarell.gnome.org%2Ffonts%2FCantarell-VF.otf;" parent="1" vertex="1">
                    <mxGeometry x="450" y="730" width="120" height="30" as="geometry"/>
                </mxCell>
                <mxCell id="JrCdFKoOf_U83BGG_Y9f-40" style="edgeStyle=orthogonalEdgeStyle;html=1;exitX=1;exitY=0.5;exitDx=0;exitDy=0;shadow=1;fontFamily=Cantarell;fontSource=http%3A%2F%2Fcantarell.gnome.org%2Ffonts%2FCantarell-VF.otf;" parent="1" source="JrCdFKoOf_U83BGG_Y9f-39" target="JrCdFKoOf_U83BGG_Y9f-22" edge="1">
                    <mxGeometry relative="1" as="geometry"/>
                </mxCell>
                <mxCell id="JrCdFKoOf_U83BGG_Y9f-39" value="Dynamic State" style="shape=parallelogram;perimeter=parallelogramPerimeter;whiteSpace=wrap;html=1;fixedSize=1;rounded=0;shadow=1;fontFamily=Cantarell;fontSource=http%3A%2F%2Fcantarell.gnome.org%2Ffonts%2FCantarell-VF.otf;" parent="1" vertex="1">
                    <mxGeometry x="150" y="487.5" width="110" height="35" as="geometry"/>
                </mxCell>
                <mxCell id="JrCdFKoOf_U83BGG_Y9f-43" style="edgeStyle=orthogonalEdgeStyle;html=1;exitX=0.5;exitY=1;exitDx=0;exitDy=0;entryX=0.5;entryY=0;entryDx=0;entryDy=0;shadow=1;fontFamily=Cantarell;fontSource=http%3A%2F%2Fcantarell.gnome.org%2Ffonts%2FCantarell-VF.otf;" parent="1" source="JrCdFKoOf_U83BGG_Y9f-42" target="wVS6Ze9wND7FLs_Az07J-1" edge="1">
                    <mxGeometry relative="1" as="geometry"/>
                </mxCell>
                <mxCell id="JrCdFKoOf_U83BGG_Y9f-42" value="Pipeline Layout" style="rounded=0;whiteSpace=wrap;html=1;shadow=1;fontFamily=Cantarell;fontSource=http%3A%2F%2Fcantarell.gnome.org%2Ffonts%2FCantarell-VF.otf;" parent="1" vertex="1">
                    <mxGeometry x="555" y="290" width="120" height="30" as="geometry"/>
                </mxCell>
                <mxCell id="JrCdFKoOf_U83BGG_Y9f-45" style="edgeStyle=orthogonalEdgeStyle;html=1;exitX=1;exitY=0.5;exitDx=0;exitDy=0;entryX=0.5;entryY=0;entryDx=0;entryDy=0;shadow=1;fontFamily=Cantarell;fontSource=http%3A%2F%2Fcantarell.gnome.org%2Ffonts%2FCantarell-VF.otf;" parent="1" source="JrCdFKoOf_U83BGG_Y9f-44" target="JrCdFKoOf_U83BGG_Y9f-42" edge="1">
                    <mxGeometry relative="1" as="geometry"/>
                </mxCell>
                <mxCell id="JrCdFKoOf_U83BGG_Y9f-44" value="Descriptor Set Layout" style="rounded=1;whiteSpace=wrap;html=1;shadow=1;fontFamily=Cantarell;fontSource=http%3A%2F%2Fcantarell.gnome.org%2Ffonts%2FCantarell-VF.otf;" parent="1" vertex="1">
                    <mxGeometry x="480" y="230" width="120" height="30" as="geometry"/>
                </mxCell>
                <mxCell id="Fdz3J40jc5uuOgRz2GAG-4" style="edgeStyle=orthogonalEdgeStyle;html=1;exitX=1;exitY=0.5;exitDx=0;exitDy=0;entryX=0;entryY=0.5;entryDx=0;entryDy=0;strokeColor=default;endArrow=none;endFill=0;dashed=1;fontFamily=Cantarell;fontSource=http%3A%2F%2Fcantarell.gnome.org%2Ffonts%2FCantarell-VF.otf;" parent="1" source="Fdz3J40jc5uuOgRz2GAG-1" target="Fdz3J40jc5uuOgRz2GAG-3" edge="1">
                    <mxGeometry relative="1" as="geometry"/>
                </mxCell>
                <mxCell id="Fdz3J40jc5uuOgRz2GAG-7" style="edgeStyle=orthogonalEdgeStyle;html=1;exitX=0.5;exitY=1;exitDx=0;exitDy=0;strokeColor=default;endArrow=classic;endFill=1;fontFamily=Cantarell;fontSource=http%3A%2F%2Fcantarell.gnome.org%2Ffonts%2FCantarell-VF.otf;" parent="1" source="Fdz3J40jc5uuOgRz2GAG-1" target="Fdz3J40jc5uuOgRz2GAG-5" edge="1">
                    <mxGeometry relative="1" as="geometry"/>
                </mxCell>
                <mxCell id="Fdz3J40jc5uuOgRz2GAG-1" value="Per Attachment" style="swimlane;startSize=0;strokeColor=default;swimlaneLine=1;opacity=50;fontFamily=Cantarell;fontSource=http%3A%2F%2Fcantarell.gnome.org%2Ffonts%2FCantarell-VF.otf;" parent="1" vertex="1">
                    <mxGeometry x="730" y="110" width="250" height="150" as="geometry"/>
                </mxCell>
                <mxCell id="JrCdFKoOf_U83BGG_Y9f-46" value="Component Mask" style="rounded=0;whiteSpace=wrap;html=1;shadow=1;strokeColor=default;swimlaneLine=1;fontFamily=Cantarell;fontSource=http%3A%2F%2Fcantarell.gnome.org%2Ffonts%2FCantarell-VF.otf;" parent="Fdz3J40jc5uuOgRz2GAG-1" vertex="1">
                    <mxGeometry x="100" y="20" width="120" height="30" as="geometry"/>
                </mxCell>
                <mxCell id="JrCdFKoOf_U83BGG_Y9f-47" value="Color Blend" style="rounded=0;whiteSpace=wrap;html=1;shadow=1;strokeColor=default;swimlaneLine=1;fontFamily=Cantarell;fontSource=http%3A%2F%2Fcantarell.gnome.org%2Ffonts%2FCantarell-VF.otf;" parent="Fdz3J40jc5uuOgRz2GAG-1" vertex="1">
                    <mxGeometry x="100" y="60" width="120" height="30" as="geometry"/>
                </mxCell>
                <mxCell id="JrCdFKoOf_U83BGG_Y9f-48" value="Alpha Blend" style="rounded=0;whiteSpace=wrap;html=1;shadow=1;strokeColor=default;swimlaneLine=1;fontFamily=Cantarell;fontSource=http%3A%2F%2Fcantarell.gnome.org%2Ffonts%2FCantarell-VF.otf;" parent="Fdz3J40jc5uuOgRz2GAG-1" vertex="1">
                    <mxGeometry x="100" y="100" width="120" height="30" as="geometry"/>
                </mxCell>
                <mxCell id="JrCdFKoOf_U83BGG_Y9f-53" style="edgeStyle=orthogonalEdgeStyle;html=1;exitX=0.5;exitY=1;exitDx=0;exitDy=0;entryX=0;entryY=0.5;entryDx=0;entryDy=0;shadow=1;endArrow=none;endFill=0;dashed=1;strokeColor=default;swimlaneLine=1;fontFamily=Cantarell;fontSource=http%3A%2F%2Fcantarell.gnome.org%2Ffonts%2FCantarell-VF.otf;" parent="Fdz3J40jc5uuOgRz2GAG-1" source="JrCdFKoOf_U83BGG_Y9f-52" target="JrCdFKoOf_U83BGG_Y9f-47" edge="1">
                    <mxGeometry relative="1" as="geometry"/>
                </mxCell>
                <mxCell id="JrCdFKoOf_U83BGG_Y9f-54" style="edgeStyle=orthogonalEdgeStyle;html=1;exitX=0.5;exitY=1;exitDx=0;exitDy=0;entryX=0;entryY=0.5;entryDx=0;entryDy=0;shadow=1;endArrow=none;endFill=0;dashed=1;strokeColor=default;swimlaneLine=1;fontFamily=Cantarell;fontSource=http%3A%2F%2Fcantarell.gnome.org%2Ffonts%2FCantarell-VF.otf;" parent="Fdz3J40jc5uuOgRz2GAG-1" source="JrCdFKoOf_U83BGG_Y9f-52" target="JrCdFKoOf_U83BGG_Y9f-48" edge="1">
                    <mxGeometry relative="1" as="geometry"/>
                </mxCell>
                <mxCell id="JrCdFKoOf_U83BGG_Y9f-52" value="Factor" style="ellipse;whiteSpace=wrap;html=1;rounded=0;shadow=1;strokeColor=default;swimlaneLine=1;fontFamily=Cantarell;fontSource=http%3A%2F%2Fcantarell.gnome.org%2Ffonts%2FCantarell-VF.otf;" parent="Fdz3J40jc5uuOgRz2GAG-1" vertex="1">
                    <mxGeometry x="20" y="20" width="50" height="30" as="geometry"/>
                </mxCell>
                <mxCell id="Fdz3J40jc5uuOgRz2GAG-3" value="Attachment" style="shape=hexagon;perimeter=hexagonPerimeter2;whiteSpace=wrap;html=1;fixedSize=1;strokeColor=default;fontFamily=Cantarell;fontSource=http%3A%2F%2Fcantarell.gnome.org%2Ffonts%2FCantarell-VF.otf;" parent="1" vertex="1">
                    <mxGeometry x="1025" y="165" width="115" height="40" as="geometry"/>
                </mxCell>
                <mxCell id="Fdz3J40jc5uuOgRz2GAG-6" style="edgeStyle=orthogonalEdgeStyle;html=1;exitX=0.5;exitY=1;exitDx=0;exitDy=0;strokeColor=default;endArrow=classic;endFill=1;fontFamily=Cantarell;fontSource=http%3A%2F%2Fcantarell.gnome.org%2Ffonts%2FCantarell-VF.otf;" parent="1" source="Fdz3J40jc5uuOgRz2GAG-5" target="wVS6Ze9wND7FLs_Az07J-6" edge="1">
                    <mxGeometry relative="1" as="geometry"/>
                </mxCell>
                <mxCell id="Fdz3J40jc5uuOgRz2GAG-5" value="Blend State" style="rounded=0;whiteSpace=wrap;html=1;shadow=1;strokeColor=default;swimlaneLine=1;fontFamily=Cantarell;fontSource=http%3A%2F%2Fcantarell.gnome.org%2Ffonts%2FCantarell-VF.otf;" parent="1" vertex="1">
                    <mxGeometry x="855" y="310" width="120" height="30" as="geometry"/>
                </mxCell>
            </root>
        </mxGraphModel>
    </diagram>
    <diagram id="KriH5CuuL9HU1Vf2UaRE" name="Rendering">
        <mxGraphModel dx="1399" dy="752" grid="1" gridSize="10" guides="1" tooltips="1" connect="1" arrows="1" fold="1" page="1" pageScale="1" pageWidth="1654" pageHeight="1169" math="0" shadow="0">
            <root>
                <mxCell id="0"/>
                <mxCell id="1" parent="0"/>
                <mxCell id="lGRz_JVbC4NS9obYFsnJ-21" style="edgeStyle=orthogonalEdgeStyle;html=1;fontFamily=Cantarell;fontSource=http%3A%2F%2Fcantarell.gnome.org%2Ffonts%2FCantarell-VF.otf;" parent="1" source="lGRz_JVbC4NS9obYFsnJ-18" target="lGRz_JVbC4NS9obYFsnJ-4" edge="1">
                    <mxGeometry relative="1" as="geometry"/>
                </mxCell>
                <mxCell id="lGRz_JVbC4NS9obYFsnJ-18" value="Device Memory or Managed Memory&lt;br&gt;(Device Local)" style="shape=cylinder3;whiteSpace=wrap;html=1;boundedLbl=1;backgroundOutline=1;size=10.200000000000045;fontFamily=Cantarell;fontSource=http%3A%2F%2Fcantarell.gnome.org%2Ffonts%2FCantarell-VF.otf;" parent="1" vertex="1">
                    <mxGeometry x="520" y="1000" width="100" height="110" as="geometry"/>
                </mxCell>
                <mxCell id="ZK73CwlnwU-NnRSls2jZ-15" value="" style="shape=flexArrow;endArrow=classic;html=1;fontFamily=Cantarell;fontSource=http%3A%2F%2Fcantarell.gnome.org%2Ffonts%2FCantarell-VF.otf;" parent="1" edge="1">
                    <mxGeometry width="50" height="50" relative="1" as="geometry">
                        <mxPoint x="1096.6" y="778" as="sourcePoint"/>
                        <mxPoint x="1097" y="1130" as="targetPoint"/>
                    </mxGeometry>
                </mxCell>
                <mxCell id="Lkt_DgHkiau54XedfzPw-11" style="edgeStyle=orthogonalEdgeStyle;html=1;exitX=0;exitY=0.5;exitDx=0;exitDy=0;entryX=1;entryY=0.5;entryDx=0;entryDy=0;fontFamily=Cantarell;fontSource=http%3A%2F%2Fcantarell.gnome.org%2Ffonts%2FCantarell-VF.otf;" parent="1" source="wlctVFZJox-4niqaxLMB-1" target="wlctVFZJox-4niqaxLMB-10" edge="1">
                    <mxGeometry relative="1" as="geometry"/>
                </mxCell>
                <mxCell id="wlctVFZJox-4niqaxLMB-16" value="Attachments (Placeholders)" style="swimlane;whiteSpace=wrap;html=1;strokeColor=default;fontFamily=Cantarell;fontSource=http%3A%2F%2Fcantarell.gnome.org%2Ffonts%2FCantarell-VF.otf;" parent="1" vertex="1">
                    <mxGeometry x="1102" y="288" width="190" height="260" as="geometry"/>
                </mxCell>
                <mxCell id="wlctVFZJox-4niqaxLMB-10" value="Attachment 0" style="rounded=1;whiteSpace=wrap;html=1;strokeColor=default;fontFamily=Cantarell;fontSource=http%3A%2F%2Fcantarell.gnome.org%2Ffonts%2FCantarell-VF.otf;" parent="wlctVFZJox-4niqaxLMB-16" vertex="1">
                    <mxGeometry x="15" y="35" width="155" height="60" as="geometry"/>
                </mxCell>
                <mxCell id="wlctVFZJox-4niqaxLMB-11" value="Attachment 1" style="rounded=1;whiteSpace=wrap;html=1;strokeColor=default;fontFamily=Cantarell;fontSource=http%3A%2F%2Fcantarell.gnome.org%2Ffonts%2FCantarell-VF.otf;" parent="wlctVFZJox-4niqaxLMB-16" vertex="1">
                    <mxGeometry x="15" y="108.5" width="155" height="60" as="geometry"/>
                </mxCell>
                <mxCell id="wlctVFZJox-4niqaxLMB-12" value="Attachment 2" style="rounded=1;whiteSpace=wrap;html=1;strokeColor=default;fontFamily=Cantarell;fontSource=http%3A%2F%2Fcantarell.gnome.org%2Ffonts%2FCantarell-VF.otf;" parent="wlctVFZJox-4niqaxLMB-16" vertex="1">
                    <mxGeometry x="15" y="185" width="155" height="60" as="geometry"/>
                </mxCell>
                <mxCell id="Lkt_DgHkiau54XedfzPw-12" style="edgeStyle=orthogonalEdgeStyle;html=1;exitX=0;exitY=0.5;exitDx=0;exitDy=0;entryX=1;entryY=0.5;entryDx=0;entryDy=0;fontFamily=Cantarell;fontSource=http%3A%2F%2Fcantarell.gnome.org%2Ffonts%2FCantarell-VF.otf;" parent="1" source="wlctVFZJox-4niqaxLMB-17" target="wlctVFZJox-4niqaxLMB-11" edge="1">
                    <mxGeometry relative="1" as="geometry"/>
                </mxCell>
                <mxCell id="Lkt_DgHkiau54XedfzPw-13" style="edgeStyle=orthogonalEdgeStyle;html=1;exitX=0;exitY=0.5;exitDx=0;exitDy=0;entryX=1;entryY=0.5;entryDx=0;entryDy=0;fontFamily=Cantarell;fontSource=http%3A%2F%2Fcantarell.gnome.org%2Ffonts%2FCantarell-VF.otf;" parent="1" source="wlctVFZJox-4niqaxLMB-18" target="wlctVFZJox-4niqaxLMB-12" edge="1">
                    <mxGeometry relative="1" as="geometry"/>
                </mxCell>
                <mxCell id="r1LTvgX5maK6JtMEEEWN-1" style="edgeStyle=orthogonalEdgeStyle;html=1;exitX=0;exitY=0.75;exitDx=0;exitDy=0;entryX=0.5;entryY=0;entryDx=0;entryDy=0;fontFamily=Cantarell;fontSource=http%3A%2F%2Fcantarell.gnome.org%2Ffonts%2FCantarell-VF.otf;" parent="1" source="lPu65lSoNFRgzhGjw4Nk-16" target="D90vK8iMG7J7AbNjE9b5-9" edge="1">
                    <mxGeometry relative="1" as="geometry"/>
                </mxCell>
                <mxCell id="ZK73CwlnwU-NnRSls2jZ-8" style="edgeStyle=orthogonalEdgeStyle;html=1;exitX=0.5;exitY=1;exitDx=0;exitDy=0;entryX=0;entryY=0.5;entryDx=0;entryDy=0;fontFamily=Cantarell;fontSource=http%3A%2F%2Fcantarell.gnome.org%2Ffonts%2FCantarell-VF.otf;endArrow=classic;endFill=1;" parent="1" source="lPu65lSoNFRgzhGjw4Nk-16" target="ZK73CwlnwU-NnRSls2jZ-7" edge="1">
                    <mxGeometry relative="1" as="geometry"/>
                </mxCell>
                <mxCell id="lPu65lSoNFRgzhGjw4Nk-16" value="Render Pass" style="rounded=1;whiteSpace=wrap;html=1;strokeColor=default;fontFamily=Cantarell;fontSource=http%3A%2F%2Fcantarell.gnome.org%2Ffonts%2FCantarell-VF.otf;" parent="1" vertex="1">
                    <mxGeometry x="884" y="612" width="170" height="90" as="geometry"/>
                </mxCell>
                <mxCell id="lPu65lSoNFRgzhGjw4Nk-20" value="Subpasses (Concept)" style="swimlane;whiteSpace=wrap;html=1;strokeColor=default;fontFamily=Cantarell;fontSource=http%3A%2F%2Fcantarell.gnome.org%2Ffonts%2FCantarell-VF.otf;" parent="1" vertex="1">
                    <mxGeometry x="512" y="278" width="140" height="400" as="geometry"/>
                </mxCell>
                <mxCell id="wlctVFZJox-4niqaxLMB-8" value="Subpass 0" style="shape=step;perimeter=stepPerimeter;whiteSpace=wrap;html=1;fixedSize=1;strokeColor=default;fontFamily=Cantarell;fontSource=http%3A%2F%2Fcantarell.gnome.org%2Ffonts%2FCantarell-VF.otf;direction=south;" parent="lPu65lSoNFRgzhGjw4Nk-20" vertex="1">
                    <mxGeometry x="30" y="40" width="80" height="120" as="geometry"/>
                </mxCell>
                <mxCell id="lPu65lSoNFRgzhGjw4Nk-1" value="Subpass 1" style="shape=step;perimeter=stepPerimeter;whiteSpace=wrap;html=1;fixedSize=1;strokeColor=default;fontFamily=Cantarell;fontSource=http%3A%2F%2Fcantarell.gnome.org%2Ffonts%2FCantarell-VF.otf;direction=south;" parent="lPu65lSoNFRgzhGjw4Nk-20" vertex="1">
                    <mxGeometry x="30" y="150" width="80" height="120" as="geometry"/>
                </mxCell>
                <mxCell id="lPu65lSoNFRgzhGjw4Nk-5" value="Subpass 2" style="shape=step;perimeter=stepPerimeter;whiteSpace=wrap;html=1;fixedSize=1;strokeColor=default;fontFamily=Cantarell;fontSource=http%3A%2F%2Fcantarell.gnome.org%2Ffonts%2FCantarell-VF.otf;direction=south;" parent="lPu65lSoNFRgzhGjw4Nk-20" vertex="1">
                    <mxGeometry x="30" y="260" width="80" height="120" as="geometry"/>
                </mxCell>
                <mxCell id="Pl2q6AoBj8faCkudboqg-1" value="Attachment Reference" style="swimlane;whiteSpace=wrap;html=1;fontFamily=Cantarell;fontSource=http%3A%2F%2Fcantarell.gnome.org%2Ffonts%2FCantarell-VF.otf;" parent="1" vertex="1">
                    <mxGeometry x="932" y="284.5" width="140" height="137" as="geometry"/>
                </mxCell>
                <mxCell id="Lkt_DgHkiau54XedfzPw-1" value="Attachment" style="rounded=1;whiteSpace=wrap;html=1;fontFamily=Cantarell;fontSource=http%3A%2F%2Fcantarell.gnome.org%2Ffonts%2FCantarell-VF.otf;" parent="Pl2q6AoBj8faCkudboqg-1" vertex="1">
                    <mxGeometry x="10" y="30" width="120" height="40" as="geometry"/>
                </mxCell>
                <mxCell id="Lkt_DgHkiau54XedfzPw-2" value="Layout" style="rounded=1;whiteSpace=wrap;html=1;fontFamily=Cantarell;fontSource=http%3A%2F%2Fcantarell.gnome.org%2Ffonts%2FCantarell-VF.otf;" parent="Pl2q6AoBj8faCkudboqg-1" vertex="1">
                    <mxGeometry x="10" y="80" width="120" height="40" as="geometry"/>
                </mxCell>
                <mxCell id="Lkt_DgHkiau54XedfzPw-3" style="edgeStyle=orthogonalEdgeStyle;html=1;exitX=1;exitY=0.5;exitDx=0;exitDy=0;entryX=0;entryY=0.5;entryDx=0;entryDy=0;fontFamily=Cantarell;fontSource=http%3A%2F%2Fcantarell.gnome.org%2Ffonts%2FCantarell-VF.otf;" parent="1" source="wlctVFZJox-4niqaxLMB-24" target="Pl2q6AoBj8faCkudboqg-1" edge="1">
                    <mxGeometry relative="1" as="geometry"/>
                </mxCell>
                <mxCell id="Lkt_DgHkiau54XedfzPw-5" style="edgeStyle=orthogonalEdgeStyle;html=1;exitX=1;exitY=0.5;exitDx=0;exitDy=0;entryX=0;entryY=0.5;entryDx=0;entryDy=0;fontFamily=Cantarell;fontSource=http%3A%2F%2Fcantarell.gnome.org%2Ffonts%2FCantarell-VF.otf;" parent="1" source="Lkt_DgHkiau54XedfzPw-1" target="wlctVFZJox-4niqaxLMB-10" edge="1">
                    <mxGeometry relative="1" as="geometry"/>
                </mxCell>
                <mxCell id="Lkt_DgHkiau54XedfzPw-6" value="Attachment Reference" style="swimlane;whiteSpace=wrap;html=1;fontFamily=Cantarell;fontSource=http%3A%2F%2Fcantarell.gnome.org%2Ffonts%2FCantarell-VF.otf;" parent="1" vertex="1">
                    <mxGeometry x="932" y="434.5" width="140" height="137" as="geometry"/>
                </mxCell>
                <mxCell id="Lkt_DgHkiau54XedfzPw-7" value="Attachment" style="rounded=1;whiteSpace=wrap;html=1;fontFamily=Cantarell;fontSource=http%3A%2F%2Fcantarell.gnome.org%2Ffonts%2FCantarell-VF.otf;" parent="Lkt_DgHkiau54XedfzPw-6" vertex="1">
                    <mxGeometry x="10" y="30" width="120" height="40" as="geometry"/>
                </mxCell>
                <mxCell id="Lkt_DgHkiau54XedfzPw-8" value="Layout" style="rounded=1;whiteSpace=wrap;html=1;fontFamily=Cantarell;fontSource=http%3A%2F%2Fcantarell.gnome.org%2Ffonts%2FCantarell-VF.otf;" parent="Lkt_DgHkiau54XedfzPw-6" vertex="1">
                    <mxGeometry x="10" y="80" width="120" height="40" as="geometry"/>
                </mxCell>
                <mxCell id="Lkt_DgHkiau54XedfzPw-9" style="edgeStyle=orthogonalEdgeStyle;html=1;exitX=1;exitY=0.5;exitDx=0;exitDy=0;entryX=0;entryY=0.5;entryDx=0;entryDy=0;fontFamily=Cantarell;fontSource=http%3A%2F%2Fcantarell.gnome.org%2Ffonts%2FCantarell-VF.otf;" parent="1" source="Lkt_DgHkiau54XedfzPw-7" target="wlctVFZJox-4niqaxLMB-12" edge="1">
                    <mxGeometry relative="1" as="geometry"/>
                </mxCell>
                <mxCell id="Lkt_DgHkiau54XedfzPw-16" style="edgeStyle=orthogonalEdgeStyle;html=1;exitX=0.5;exitY=1;exitDx=0;exitDy=0;entryX=1;entryY=0.5;entryDx=0;entryDy=0;fontFamily=Cantarell;fontSource=http%3A%2F%2Fcantarell.gnome.org%2Ffonts%2FCantarell-VF.otf;" parent="1" source="Lkt_DgHkiau54XedfzPw-14" target="lPu65lSoNFRgzhGjw4Nk-16" edge="1">
                    <mxGeometry relative="1" as="geometry"/>
                </mxCell>
                <mxCell id="Lkt_DgHkiau54XedfzPw-14" value="" style="swimlane;startSize=0;opacity=50;rounded=1;glass=0;fontFamily=Cantarell;fontSource=http%3A%2F%2Fcantarell.gnome.org%2Ffonts%2FCantarell-VF.otf;" parent="1" vertex="1">
                    <mxGeometry x="1332" y="263" width="290" height="310" as="geometry"/>
                </mxCell>
                <mxCell id="wlctVFZJox-4niqaxLMB-1" value="Attachment Description" style="swimlane;whiteSpace=wrap;html=1;strokeColor=default;fontFamily=Cantarell;fontSource=http%3A%2F%2Fcantarell.gnome.org%2Ffonts%2FCantarell-VF.otf;" parent="Lkt_DgHkiau54XedfzPw-14" vertex="1">
                    <mxGeometry x="10" y="16.5" width="270" height="180" as="geometry"/>
                </mxCell>
                <mxCell id="wlctVFZJox-4niqaxLMB-2" value="Format" style="rounded=1;whiteSpace=wrap;html=1;strokeColor=default;fontFamily=Cantarell;fontSource=http%3A%2F%2Fcantarell.gnome.org%2Ffonts%2FCantarell-VF.otf;" parent="wlctVFZJox-4niqaxLMB-1" vertex="1">
                    <mxGeometry x="10" y="30" width="120" height="40" as="geometry"/>
                </mxCell>
                <mxCell id="wlctVFZJox-4niqaxLMB-3" value="Samples" style="rounded=1;whiteSpace=wrap;html=1;strokeColor=default;fontFamily=Cantarell;fontSource=http%3A%2F%2Fcantarell.gnome.org%2Ffonts%2FCantarell-VF.otf;" parent="wlctVFZJox-4niqaxLMB-1" vertex="1">
                    <mxGeometry x="10" y="80" width="120" height="40" as="geometry"/>
                </mxCell>
                <mxCell id="wlctVFZJox-4niqaxLMB-4" value="Load Op" style="rounded=1;whiteSpace=wrap;html=1;strokeColor=default;fontFamily=Cantarell;fontSource=http%3A%2F%2Fcantarell.gnome.org%2Ffonts%2FCantarell-VF.otf;" parent="wlctVFZJox-4niqaxLMB-1" vertex="1">
                    <mxGeometry x="140" y="30" width="120" height="40" as="geometry"/>
                </mxCell>
                <mxCell id="wlctVFZJox-4niqaxLMB-5" value="Store Op" style="rounded=1;whiteSpace=wrap;html=1;strokeColor=default;fontFamily=Cantarell;fontSource=http%3A%2F%2Fcantarell.gnome.org%2Ffonts%2FCantarell-VF.otf;" parent="wlctVFZJox-4niqaxLMB-1" vertex="1">
                    <mxGeometry x="140" y="80" width="120" height="40" as="geometry"/>
                </mxCell>
                <mxCell id="wlctVFZJox-4niqaxLMB-6" value="Initial Layout" style="rounded=1;whiteSpace=wrap;html=1;strokeColor=default;fontFamily=Cantarell;fontSource=http%3A%2F%2Fcantarell.gnome.org%2Ffonts%2FCantarell-VF.otf;" parent="wlctVFZJox-4niqaxLMB-1" vertex="1">
                    <mxGeometry x="10" y="130" width="120" height="40" as="geometry"/>
                </mxCell>
                <mxCell id="wlctVFZJox-4niqaxLMB-7" value="Final Layout" style="rounded=1;whiteSpace=wrap;html=1;strokeColor=default;fontFamily=Cantarell;fontSource=http%3A%2F%2Fcantarell.gnome.org%2Ffonts%2FCantarell-VF.otf;" parent="wlctVFZJox-4niqaxLMB-1" vertex="1">
                    <mxGeometry x="140" y="130" width="120" height="40" as="geometry"/>
                </mxCell>
                <mxCell id="wlctVFZJox-4niqaxLMB-17" value="Attachment Description" style="rounded=0;whiteSpace=wrap;html=1;strokeColor=default;fontFamily=Cantarell;fontSource=http%3A%2F%2Fcantarell.gnome.org%2Ffonts%2FCantarell-VF.otf;" parent="Lkt_DgHkiau54XedfzPw-14" vertex="1">
                    <mxGeometry x="10" y="216.5" width="270" height="30" as="geometry"/>
                </mxCell>
                <mxCell id="wlctVFZJox-4niqaxLMB-18" value="Attachment Description" style="rounded=0;whiteSpace=wrap;html=1;strokeColor=default;fontFamily=Cantarell;fontSource=http%3A%2F%2Fcantarell.gnome.org%2Ffonts%2FCantarell-VF.otf;" parent="Lkt_DgHkiau54XedfzPw-14" vertex="1">
                    <mxGeometry x="10" y="266.5" width="270" height="30" as="geometry"/>
                </mxCell>
                <mxCell id="Lkt_DgHkiau54XedfzPw-17" style="edgeStyle=orthogonalEdgeStyle;html=1;exitX=1;exitY=0.5;exitDx=0;exitDy=0;entryX=0;entryY=0.5;entryDx=0;entryDy=0;fontFamily=Cantarell;fontSource=http%3A%2F%2Fcantarell.gnome.org%2Ffonts%2FCantarell-VF.otf;" parent="1" source="wlctVFZJox-4niqaxLMB-25" target="Lkt_DgHkiau54XedfzPw-6" edge="1">
                    <mxGeometry relative="1" as="geometry"/>
                </mxCell>
                <mxCell id="D90vK8iMG7J7AbNjE9b5-8" style="edgeStyle=orthogonalEdgeStyle;html=1;exitX=0.5;exitY=0;exitDx=0;exitDy=0;entryX=0.5;entryY=1;entryDx=0;entryDy=0;startArrow=classic;startFill=1;fontFamily=Cantarell;fontSource=http%3A%2F%2Fcantarell.gnome.org%2Ffonts%2FCantarell-VF.otf;dashed=1;" parent="1" source="D90vK8iMG7J7AbNjE9b5-3" target="wlctVFZJox-4niqaxLMB-16" edge="1">
                    <mxGeometry relative="1" as="geometry">
                        <Array as="points">
                            <mxPoint x="1377" y="613"/>
                            <mxPoint x="1197" y="613"/>
                        </Array>
                    </mxGeometry>
                </mxCell>
                <mxCell id="ZK73CwlnwU-NnRSls2jZ-9" style="edgeStyle=orthogonalEdgeStyle;html=1;exitX=0;exitY=0.5;exitDx=0;exitDy=0;entryX=1;entryY=0.5;entryDx=0;entryDy=0;fontFamily=Cantarell;fontSource=http%3A%2F%2Fcantarell.gnome.org%2Ffonts%2FCantarell-VF.otf;endArrow=classic;endFill=1;" parent="1" source="D90vK8iMG7J7AbNjE9b5-3" target="ZK73CwlnwU-NnRSls2jZ-7" edge="1">
                    <mxGeometry relative="1" as="geometry"/>
                </mxCell>
                <mxCell id="D90vK8iMG7J7AbNjE9b5-3" value="Framebuffer" style="swimlane;whiteSpace=wrap;html=1;fontFamily=Cantarell;fontSource=http%3A%2F%2Fcantarell.gnome.org%2Ffonts%2FCantarell-VF.otf;" parent="1" vertex="1">
                    <mxGeometry x="1287" y="723" width="180" height="150" as="geometry"/>
                </mxCell>
                <mxCell id="D90vK8iMG7J7AbNjE9b5-4" value="Attachment 0" style="rounded=1;whiteSpace=wrap;html=1;strokeColor=default;fontFamily=Cantarell;fontSource=http%3A%2F%2Fcantarell.gnome.org%2Ffonts%2FCantarell-VF.otf;" parent="D90vK8iMG7J7AbNjE9b5-3" vertex="1">
                    <mxGeometry x="12.5" y="30" width="155" height="30" as="geometry"/>
                </mxCell>
                <mxCell id="D90vK8iMG7J7AbNjE9b5-5" value="Attachment 1" style="rounded=1;whiteSpace=wrap;html=1;strokeColor=default;fontFamily=Cantarell;fontSource=http%3A%2F%2Fcantarell.gnome.org%2Ffonts%2FCantarell-VF.otf;" parent="D90vK8iMG7J7AbNjE9b5-3" vertex="1">
                    <mxGeometry x="12.5" y="70" width="155" height="30" as="geometry"/>
                </mxCell>
                <mxCell id="D90vK8iMG7J7AbNjE9b5-6" value="Attachment 2" style="rounded=1;whiteSpace=wrap;html=1;strokeColor=default;fontFamily=Cantarell;fontSource=http%3A%2F%2Fcantarell.gnome.org%2Ffonts%2FCantarell-VF.otf;" parent="D90vK8iMG7J7AbNjE9b5-3" vertex="1">
                    <mxGeometry x="12.5" y="110" width="155" height="30" as="geometry"/>
                </mxCell>
                <mxCell id="ZK73CwlnwU-NnRSls2jZ-11" style="edgeStyle=orthogonalEdgeStyle;html=1;exitX=1;exitY=0.5;exitDx=0;exitDy=0;entryX=0;entryY=0.5;entryDx=0;entryDy=0;fontFamily=Cantarell;fontSource=http%3A%2F%2Fcantarell.gnome.org%2Ffonts%2FCantarell-VF.otf;endArrow=classic;endFill=1;" parent="1" source="D90vK8iMG7J7AbNjE9b5-9" target="ZK73CwlnwU-NnRSls2jZ-10" edge="1">
                    <mxGeometry relative="1" as="geometry"/>
                </mxCell>
                <mxCell id="D90vK8iMG7J7AbNjE9b5-9" value="Graphics Pipeline(s)" style="rounded=1;whiteSpace=wrap;html=1;fontFamily=Cantarell;fontSource=http%3A%2F%2Fcantarell.gnome.org%2Ffonts%2FCantarell-VF.otf;" parent="1" vertex="1">
                    <mxGeometry x="682" y="778" width="150" height="70" as="geometry"/>
                </mxCell>
                <mxCell id="ZK73CwlnwU-NnRSls2jZ-1" value="Image View" style="shape=parallelogram;perimeter=parallelogramPerimeter;whiteSpace=wrap;html=1;fixedSize=1;size=10;fontFamily=Cantarell;fontSource=http%3A%2F%2Fcantarell.gnome.org%2Ffonts%2FCantarell-VF.otf;" parent="1" vertex="1">
                    <mxGeometry x="1502" y="753" width="120" height="30" as="geometry"/>
                </mxCell>
                <mxCell id="ZK73CwlnwU-NnRSls2jZ-2" value="Image View" style="shape=parallelogram;perimeter=parallelogramPerimeter;whiteSpace=wrap;html=1;fixedSize=1;size=10;fontFamily=Cantarell;fontSource=http%3A%2F%2Fcantarell.gnome.org%2Ffonts%2FCantarell-VF.otf;" parent="1" vertex="1">
                    <mxGeometry x="1502" y="793" width="120" height="30" as="geometry"/>
                </mxCell>
                <mxCell id="ZK73CwlnwU-NnRSls2jZ-3" value="Image View" style="shape=parallelogram;perimeter=parallelogramPerimeter;whiteSpace=wrap;html=1;fixedSize=1;size=10;fontFamily=Cantarell;fontSource=http%3A%2F%2Fcantarell.gnome.org%2Ffonts%2FCantarell-VF.otf;" parent="1" vertex="1">
                    <mxGeometry x="1502" y="833" width="120" height="30" as="geometry"/>
                </mxCell>
                <mxCell id="ZK73CwlnwU-NnRSls2jZ-4" style="edgeStyle=none;html=1;exitX=1;exitY=0.5;exitDx=0;exitDy=0;dashed=1;endArrow=none;endFill=0;fontFamily=Cantarell;fontSource=http%3A%2F%2Fcantarell.gnome.org%2Ffonts%2FCantarell-VF.otf;" parent="1" source="D90vK8iMG7J7AbNjE9b5-4" target="ZK73CwlnwU-NnRSls2jZ-1" edge="1">
                    <mxGeometry relative="1" as="geometry"/>
                </mxCell>
                <mxCell id="ZK73CwlnwU-NnRSls2jZ-5" style="edgeStyle=none;html=1;exitX=1;exitY=0.5;exitDx=0;exitDy=0;dashed=1;endArrow=none;endFill=0;fontFamily=Cantarell;fontSource=http%3A%2F%2Fcantarell.gnome.org%2Ffonts%2FCantarell-VF.otf;" parent="1" source="D90vK8iMG7J7AbNjE9b5-5" target="ZK73CwlnwU-NnRSls2jZ-2" edge="1">
                    <mxGeometry relative="1" as="geometry"/>
                </mxCell>
                <mxCell id="ZK73CwlnwU-NnRSls2jZ-6" style="edgeStyle=none;html=1;exitX=1;exitY=0.5;exitDx=0;exitDy=0;dashed=1;endArrow=none;endFill=0;fontFamily=Cantarell;fontSource=http%3A%2F%2Fcantarell.gnome.org%2Ffonts%2FCantarell-VF.otf;" parent="1" source="D90vK8iMG7J7AbNjE9b5-6" target="ZK73CwlnwU-NnRSls2jZ-3" edge="1">
                    <mxGeometry relative="1" as="geometry"/>
                </mxCell>
                <mxCell id="ZK73CwlnwU-NnRSls2jZ-7" value="BeginRenderPass" style="shape=hexagon;perimeter=hexagonPerimeter2;whiteSpace=wrap;html=1;fixedSize=1;fontFamily=Cantarell;fontSource=http%3A%2F%2Fcantarell.gnome.org%2Ffonts%2FCantarell-VF.otf;" parent="1" vertex="1">
                    <mxGeometry x="1022" y="855" width="150" height="40" as="geometry"/>
                </mxCell>
                <mxCell id="ZK73CwlnwU-NnRSls2jZ-10" value="BindPipeline" style="shape=hexagon;perimeter=hexagonPerimeter2;whiteSpace=wrap;html=1;fixedSize=1;fontFamily=Cantarell;fontSource=http%3A%2F%2Fcantarell.gnome.org%2Ffonts%2FCantarell-VF.otf;" parent="1" vertex="1">
                    <mxGeometry x="1022" y="895" width="150" height="40" as="geometry"/>
                </mxCell>
                <mxCell id="ZK73CwlnwU-NnRSls2jZ-12" value="BeginComandBuffer" style="shape=hexagon;perimeter=hexagonPerimeter2;whiteSpace=wrap;html=1;fixedSize=1;fontFamily=Cantarell;fontSource=http%3A%2F%2Fcantarell.gnome.org%2Ffonts%2FCantarell-VF.otf;" parent="1" vertex="1">
                    <mxGeometry x="1022" y="815" width="150" height="40" as="geometry"/>
                </mxCell>
                <mxCell id="ZK73CwlnwU-NnRSls2jZ-13" value="Draw..." style="shape=hexagon;perimeter=hexagonPerimeter2;whiteSpace=wrap;html=1;fixedSize=1;fontFamily=Cantarell;fontSource=http%3A%2F%2Fcantarell.gnome.org%2Ffonts%2FCantarell-VF.otf;" parent="1" vertex="1">
                    <mxGeometry x="1022" y="1015" width="150" height="40" as="geometry"/>
                </mxCell>
                <mxCell id="ZK73CwlnwU-NnRSls2jZ-14" value="EndCommandBuffer" style="shape=hexagon;perimeter=hexagonPerimeter2;whiteSpace=wrap;html=1;fixedSize=1;fontFamily=Cantarell;fontSource=http%3A%2F%2Fcantarell.gnome.org%2Ffonts%2FCantarell-VF.otf;" parent="1" vertex="1">
                    <mxGeometry x="1022" y="1055" width="150" height="40" as="geometry"/>
                </mxCell>
                <mxCell id="ZK73CwlnwU-NnRSls2jZ-31" style="edgeStyle=orthogonalEdgeStyle;html=1;exitX=1;exitY=0.5;exitDx=0;exitDy=0;fontFamily=Cantarell;fontSource=http%3A%2F%2Fcantarell.gnome.org%2Ffonts%2FCantarell-VF.otf;endArrow=classic;endFill=1;entryX=0.5;entryY=1;entryDx=0;entryDy=0;" parent="1" source="ZK73CwlnwU-NnRSls2jZ-17" target="wlctVFZJox-4niqaxLMB-8" edge="1">
                    <mxGeometry relative="1" as="geometry"/>
                </mxCell>
                <mxCell id="ZK73CwlnwU-NnRSls2jZ-32" style="edgeStyle=orthogonalEdgeStyle;html=1;exitX=1;exitY=0.5;exitDx=0;exitDy=0;fontFamily=Cantarell;fontSource=http%3A%2F%2Fcantarell.gnome.org%2Ffonts%2FCantarell-VF.otf;endArrow=classic;endFill=1;" parent="1" source="ZK73CwlnwU-NnRSls2jZ-18" target="lPu65lSoNFRgzhGjw4Nk-1" edge="1">
                    <mxGeometry relative="1" as="geometry"/>
                </mxCell>
                <mxCell id="ZK73CwlnwU-NnRSls2jZ-42" value="Subpass Synchronization" style="swimlane;startSize=0;fontFamily=Cantarell;fontSource=http%3A%2F%2Fcantarell.gnome.org%2Ffonts%2FCantarell-VF.otf;opacity=50;" parent="1" vertex="1">
                    <mxGeometry x="50" y="120" width="408" height="527" as="geometry"/>
                </mxCell>
                <mxCell id="ZK73CwlnwU-NnRSls2jZ-36" value="Src&amp;nbsp;(Subpass 0)" style="text;html=1;align=center;verticalAlign=middle;resizable=0;points=[];autosize=1;strokeColor=none;fillColor=none;fontFamily=Cantarell;fontSource=http%3A%2F%2Fcantarell.gnome.org%2Ffonts%2FCantarell-VF.otf;" parent="ZK73CwlnwU-NnRSls2jZ-42" vertex="1">
                    <mxGeometry x="130" y="15" width="100" height="30" as="geometry"/>
                </mxCell>
                <mxCell id="ZK73CwlnwU-NnRSls2jZ-37" value="Dst (Subpass 1)" style="text;html=1;align=center;verticalAlign=middle;resizable=0;points=[];autosize=1;strokeColor=none;fillColor=none;fontFamily=Cantarell;fontSource=http%3A%2F%2Fcantarell.gnome.org%2Ffonts%2FCantarell-VF.otf;" parent="ZK73CwlnwU-NnRSls2jZ-42" vertex="1">
                    <mxGeometry x="280" y="15" width="100" height="30" as="geometry"/>
                </mxCell>
                <mxCell id="ZK73CwlnwU-NnRSls2jZ-16" value="Subpass Dependency for Subpass 1" style="swimlane;whiteSpace=wrap;html=1;fontFamily=Cantarell;fontSource=http%3A%2F%2Fcantarell.gnome.org%2Ffonts%2FCantarell-VF.otf;" parent="ZK73CwlnwU-NnRSls2jZ-42" vertex="1">
                    <mxGeometry x="150" y="295" width="240" height="215" as="geometry"/>
                </mxCell>
                <mxCell id="ZK73CwlnwU-NnRSls2jZ-17" value="SrcSubpass=0&lt;br&gt;(Previous)" style="rounded=1;whiteSpace=wrap;html=1;fontFamily=Cantarell;fontSource=http%3A%2F%2Fcantarell.gnome.org%2Ffonts%2FCantarell-VF.otf;" parent="ZK73CwlnwU-NnRSls2jZ-16" vertex="1">
                    <mxGeometry x="130" y="30" width="100" height="46" as="geometry"/>
                </mxCell>
                <mxCell id="ZK73CwlnwU-NnRSls2jZ-18" value="DstSubpass=1&lt;br&gt;(Current)" style="rounded=1;whiteSpace=wrap;html=1;fontFamily=Cantarell;fontSource=http%3A%2F%2Fcantarell.gnome.org%2Ffonts%2FCantarell-VF.otf;" parent="ZK73CwlnwU-NnRSls2jZ-16" vertex="1">
                    <mxGeometry x="130" y="90" width="100" height="46" as="geometry"/>
                </mxCell>
                <mxCell id="ZK73CwlnwU-NnRSls2jZ-33" value="SrcStageMask&lt;br&gt;=&quot;Color Output&quot;" style="rounded=1;whiteSpace=wrap;html=1;fontFamily=Cantarell;fontSource=http%3A%2F%2Fcantarell.gnome.org%2Ffonts%2FCantarell-VF.otf;" parent="ZK73CwlnwU-NnRSls2jZ-16" vertex="1">
                    <mxGeometry x="10" y="30" width="110" height="46" as="geometry"/>
                </mxCell>
                <mxCell id="ZK73CwlnwU-NnRSls2jZ-34" value="DstStageMask&lt;br&gt;=&quot;Frag Shader&quot;" style="rounded=1;whiteSpace=wrap;html=1;fontFamily=Cantarell;fontSource=http%3A%2F%2Fcantarell.gnome.org%2Ffonts%2FCantarell-VF.otf;" parent="ZK73CwlnwU-NnRSls2jZ-16" vertex="1">
                    <mxGeometry x="10" y="90" width="110" height="46" as="geometry"/>
                </mxCell>
                <mxCell id="4f5OkCiOBDOPZs5WImNO-1" value="DstAccessMask" style="rounded=1;whiteSpace=wrap;html=1;fontFamily=Cantarell;fontSource=http%3A%2F%2Fcantarell.gnome.org%2Ffonts%2FCantarell-VF.otf;" parent="ZK73CwlnwU-NnRSls2jZ-16" vertex="1">
                    <mxGeometry x="10" y="142" width="220" height="28" as="geometry"/>
                </mxCell>
                <mxCell id="4f5OkCiOBDOPZs5WImNO-2" value="SrcAccessMask" style="rounded=1;whiteSpace=wrap;html=1;fontFamily=Cantarell;fontSource=http%3A%2F%2Fcantarell.gnome.org%2Ffonts%2FCantarell-VF.otf;" parent="ZK73CwlnwU-NnRSls2jZ-16" vertex="1">
                    <mxGeometry x="10" y="176.5" width="220" height="28" as="geometry"/>
                </mxCell>
                <mxCell id="ZK73CwlnwU-NnRSls2jZ-19" value="Input Assembly" style="rounded=0;whiteSpace=wrap;html=1;fontFamily=Cantarell;fontSource=http%3A%2F%2Fcantarell.gnome.org%2Ffonts%2FCantarell-VF.otf;" parent="ZK73CwlnwU-NnRSls2jZ-42" vertex="1">
                    <mxGeometry x="120" y="45" width="120" height="25" as="geometry"/>
                </mxCell>
                <mxCell id="ZK73CwlnwU-NnRSls2jZ-20" value="Vertex Shader" style="rounded=0;whiteSpace=wrap;html=1;fontFamily=Cantarell;fontSource=http%3A%2F%2Fcantarell.gnome.org%2Ffonts%2FCantarell-VF.otf;" parent="ZK73CwlnwU-NnRSls2jZ-42" vertex="1">
                    <mxGeometry x="120" y="70" width="120" height="25" as="geometry"/>
                </mxCell>
                <mxCell id="ZK73CwlnwU-NnRSls2jZ-21" value="Rasterization" style="rounded=0;whiteSpace=wrap;html=1;fontFamily=Cantarell;fontSource=http%3A%2F%2Fcantarell.gnome.org%2Ffonts%2FCantarell-VF.otf;" parent="ZK73CwlnwU-NnRSls2jZ-42" vertex="1">
                    <mxGeometry x="120" y="95" width="120" height="25" as="geometry"/>
                </mxCell>
                <mxCell id="ZK73CwlnwU-NnRSls2jZ-22" value="Fragment Shader" style="rounded=0;whiteSpace=wrap;html=1;fontFamily=Cantarell;fontSource=http%3A%2F%2Fcantarell.gnome.org%2Ffonts%2FCantarell-VF.otf;" parent="ZK73CwlnwU-NnRSls2jZ-42" vertex="1">
                    <mxGeometry x="120" y="120" width="120" height="25" as="geometry"/>
                </mxCell>
                <mxCell id="ZK73CwlnwU-NnRSls2jZ-23" value="Color Blending" style="rounded=0;whiteSpace=wrap;html=1;fontFamily=Cantarell;fontSource=http%3A%2F%2Fcantarell.gnome.org%2Ffonts%2FCantarell-VF.otf;" parent="ZK73CwlnwU-NnRSls2jZ-42" vertex="1">
                    <mxGeometry x="120" y="145" width="120" height="25" as="geometry"/>
                </mxCell>
                <mxCell id="ZK73CwlnwU-NnRSls2jZ-24" value="Color Output" style="rounded=0;whiteSpace=wrap;html=1;fontFamily=Cantarell;fontSource=http%3A%2F%2Fcantarell.gnome.org%2Ffonts%2FCantarell-VF.otf;" parent="ZK73CwlnwU-NnRSls2jZ-42" vertex="1">
                    <mxGeometry x="120" y="170" width="120" height="25" as="geometry"/>
                </mxCell>
                <mxCell id="ZK73CwlnwU-NnRSls2jZ-25" value="Input Assembly" style="rounded=0;whiteSpace=wrap;html=1;fontFamily=Cantarell;fontSource=http%3A%2F%2Fcantarell.gnome.org%2Ffonts%2FCantarell-VF.otf;" parent="ZK73CwlnwU-NnRSls2jZ-42" vertex="1">
                    <mxGeometry x="270" y="45" width="120" height="25" as="geometry"/>
                </mxCell>
                <mxCell id="ZK73CwlnwU-NnRSls2jZ-26" value="Vertex Shader" style="rounded=0;whiteSpace=wrap;html=1;fontFamily=Cantarell;fontSource=http%3A%2F%2Fcantarell.gnome.org%2Ffonts%2FCantarell-VF.otf;" parent="ZK73CwlnwU-NnRSls2jZ-42" vertex="1">
                    <mxGeometry x="270" y="70" width="120" height="25" as="geometry"/>
                </mxCell>
                <mxCell id="ZK73CwlnwU-NnRSls2jZ-27" value="Rasterization" style="rounded=0;whiteSpace=wrap;html=1;fontFamily=Cantarell;fontSource=http%3A%2F%2Fcantarell.gnome.org%2Ffonts%2FCantarell-VF.otf;" parent="ZK73CwlnwU-NnRSls2jZ-42" vertex="1">
                    <mxGeometry x="270" y="95" width="120" height="25" as="geometry"/>
                </mxCell>
                <mxCell id="ZK73CwlnwU-NnRSls2jZ-28" value="Fragment Shader" style="rounded=0;whiteSpace=wrap;html=1;fontFamily=Cantarell;fontSource=http%3A%2F%2Fcantarell.gnome.org%2Ffonts%2FCantarell-VF.otf;" parent="ZK73CwlnwU-NnRSls2jZ-42" vertex="1">
                    <mxGeometry x="270" y="195" width="120" height="25" as="geometry"/>
                </mxCell>
                <mxCell id="ZK73CwlnwU-NnRSls2jZ-29" value="Color Blending" style="rounded=0;whiteSpace=wrap;html=1;fontFamily=Cantarell;fontSource=http%3A%2F%2Fcantarell.gnome.org%2Ffonts%2FCantarell-VF.otf;" parent="ZK73CwlnwU-NnRSls2jZ-42" vertex="1">
                    <mxGeometry x="270" y="220" width="120" height="25" as="geometry"/>
                </mxCell>
                <mxCell id="ZK73CwlnwU-NnRSls2jZ-30" value="Color Output" style="rounded=0;whiteSpace=wrap;html=1;fontFamily=Cantarell;fontSource=http%3A%2F%2Fcantarell.gnome.org%2Ffonts%2FCantarell-VF.otf;" parent="ZK73CwlnwU-NnRSls2jZ-42" vertex="1">
                    <mxGeometry x="270" y="245" width="120" height="25" as="geometry"/>
                </mxCell>
                <mxCell id="ZK73CwlnwU-NnRSls2jZ-35" value="Wait for SrcStage" style="rounded=0;whiteSpace=wrap;html=1;fontFamily=Cantarell;fontSource=http%3A%2F%2Fcantarell.gnome.org%2Ffonts%2FCantarell-VF.otf;opacity=50;" parent="ZK73CwlnwU-NnRSls2jZ-42" vertex="1">
                    <mxGeometry x="270" y="120" width="120" height="75" as="geometry"/>
                </mxCell>
                <mxCell id="ZK73CwlnwU-NnRSls2jZ-38" style="edgeStyle=orthogonalEdgeStyle;html=1;exitX=0;exitY=0.5;exitDx=0;exitDy=0;entryX=0;entryY=0.5;entryDx=0;entryDy=0;fontFamily=Cantarell;fontSource=http%3A%2F%2Fcantarell.gnome.org%2Ffonts%2FCantarell-VF.otf;endArrow=classic;endFill=1;" parent="ZK73CwlnwU-NnRSls2jZ-42" source="ZK73CwlnwU-NnRSls2jZ-33" target="ZK73CwlnwU-NnRSls2jZ-24" edge="1">
                    <mxGeometry relative="1" as="geometry">
                        <Array as="points">
                            <mxPoint x="48" y="348"/>
                            <mxPoint x="48" y="183"/>
                            <mxPoint x="120" y="183"/>
                        </Array>
                    </mxGeometry>
                </mxCell>
                <mxCell id="ZK73CwlnwU-NnRSls2jZ-39" style="edgeStyle=orthogonalEdgeStyle;html=1;exitX=0;exitY=0.5;exitDx=0;exitDy=0;entryX=0;entryY=0.5;entryDx=0;entryDy=0;fontFamily=Cantarell;fontSource=http%3A%2F%2Fcantarell.gnome.org%2Ffonts%2FCantarell-VF.otf;endArrow=classic;endFill=1;" parent="ZK73CwlnwU-NnRSls2jZ-42" source="ZK73CwlnwU-NnRSls2jZ-34" target="ZK73CwlnwU-NnRSls2jZ-28" edge="1">
                    <mxGeometry relative="1" as="geometry">
                        <Array as="points">
                            <mxPoint x="58" y="408"/>
                            <mxPoint x="58" y="208"/>
                            <mxPoint x="270" y="208"/>
                        </Array>
                    </mxGeometry>
                </mxCell>
                <mxCell id="ZK73CwlnwU-NnRSls2jZ-40" value="" style="endArrow=none;dashed=1;html=1;strokeWidth=2;fontFamily=Cantarell;fontSource=http%3A%2F%2Fcantarell.gnome.org%2Ffonts%2FCantarell-VF.otf;dashPattern=1 2;jumpSize=6;shadow=0;" parent="ZK73CwlnwU-NnRSls2jZ-42" edge="1">
                    <mxGeometry width="50" height="50" relative="1" as="geometry">
                        <mxPoint x="10" y="195" as="sourcePoint"/>
                        <mxPoint x="400" y="195" as="targetPoint"/>
                    </mxGeometry>
                </mxCell>
                <mxCell id="ZK73CwlnwU-NnRSls2jZ-41" value="Sync" style="edgeLabel;html=1;align=center;verticalAlign=middle;resizable=0;points=[];fontFamily=Cantarell;fontSource=http%3A%2F%2Fcantarell.gnome.org%2Ffonts%2FCantarell-VF.otf;" parent="ZK73CwlnwU-NnRSls2jZ-40" vertex="1" connectable="0">
                    <mxGeometry x="-0.9166" y="-1" relative="1" as="geometry">
                        <mxPoint x="-6" y="-10" as="offset"/>
                    </mxGeometry>
                </mxCell>
                <mxCell id="4f5OkCiOBDOPZs5WImNO-13" style="html=1;exitX=0.88;exitY=0.25;exitDx=0;exitDy=0;exitPerimeter=0;entryX=0;entryY=0.5;entryDx=0;entryDy=0;dashed=1;strokeWidth=1;fontFamily=Cantarell;fontSource=http%3A%2F%2Fcantarell.gnome.org%2Ffonts%2FCantarell-VF.otf;endArrow=none;endFill=0;" parent="ZK73CwlnwU-NnRSls2jZ-42" source="4f5OkCiOBDOPZs5WImNO-4" target="ZK73CwlnwU-NnRSls2jZ-28" edge="1">
                    <mxGeometry relative="1" as="geometry"/>
                </mxCell>
                <mxCell id="4f5OkCiOBDOPZs5WImNO-4" value="Read" style="ellipse;shape=cloud;whiteSpace=wrap;html=1;fontFamily=Cantarell;fontSource=http%3A%2F%2Fcantarell.gnome.org%2Ffonts%2FCantarell-VF.otf;" parent="ZK73CwlnwU-NnRSls2jZ-42" vertex="1">
                    <mxGeometry x="183" y="220" width="75" height="35" as="geometry"/>
                </mxCell>
                <mxCell id="GuorzlUuwyiOV3Va1xUx-4" style="edgeStyle=isometricEdgeStyle;html=1;exitX=0.8;exitY=0.8;exitDx=0;exitDy=0;exitPerimeter=0;entryX=0.31;entryY=0.8;entryDx=0;entryDy=0;entryPerimeter=0;endArrow=none;endFill=0;fontFamily=Cantarell;fontSource=http%3A%2F%2Fcantarell.gnome.org%2Ffonts%2FCantarell-VF.otf;" parent="ZK73CwlnwU-NnRSls2jZ-42" source="4f5OkCiOBDOPZs5WImNO-5" target="4f5OkCiOBDOPZs5WImNO-4" edge="1">
                    <mxGeometry relative="1" as="geometry">
                        <Array as="points">
                            <mxPoint x="180" y="260"/>
                        </Array>
                    </mxGeometry>
                </mxCell>
                <mxCell id="GuorzlUuwyiOV3Va1xUx-5" value="Mem Dep." style="edgeLabel;html=1;align=center;verticalAlign=middle;resizable=0;points=[];fontFamily=Cantarell;fontSource=http%3A%2F%2Fcantarell.gnome.org%2Ffonts%2FCantarell-VF.otf;" parent="GuorzlUuwyiOV3Va1xUx-4" vertex="1" connectable="0">
                    <mxGeometry x="-0.0618" relative="1" as="geometry">
                        <mxPoint as="offset"/>
                    </mxGeometry>
                </mxCell>
                <mxCell id="4f5OkCiOBDOPZs5WImNO-5" value="Write" style="ellipse;shape=cloud;whiteSpace=wrap;html=1;fontFamily=Cantarell;fontSource=http%3A%2F%2Fcantarell.gnome.org%2Ffonts%2FCantarell-VF.otf;" parent="ZK73CwlnwU-NnRSls2jZ-42" vertex="1">
                    <mxGeometry x="98" y="220" width="75" height="35" as="geometry"/>
                </mxCell>
                <mxCell id="4f5OkCiOBDOPZs5WImNO-12" value="" style="endArrow=none;dashed=1;html=1;strokeWidth=1;fontFamily=Cantarell;fontSource=http%3A%2F%2Fcantarell.gnome.org%2Ffonts%2FCantarell-VF.otf;exitX=0.625;exitY=0.2;exitDx=0;exitDy=0;exitPerimeter=0;" parent="ZK73CwlnwU-NnRSls2jZ-42" source="4f5OkCiOBDOPZs5WImNO-5" target="ZK73CwlnwU-NnRSls2jZ-24" edge="1">
                    <mxGeometry width="50" height="50" relative="1" as="geometry">
                        <mxPoint x="128" y="297" as="sourcePoint"/>
                        <mxPoint x="178" y="247" as="targetPoint"/>
                    </mxGeometry>
                </mxCell>
                <mxCell id="4f5OkCiOBDOPZs5WImNO-15" style="edgeStyle=orthogonalEdgeStyle;html=1;exitX=0;exitY=0.5;exitDx=0;exitDy=0;entryX=0.55;entryY=0.95;entryDx=0;entryDy=0;entryPerimeter=0;strokeWidth=1;fontFamily=Cantarell;fontSource=http%3A%2F%2Fcantarell.gnome.org%2Ffonts%2FCantarell-VF.otf;endArrow=classic;endFill=1;" parent="ZK73CwlnwU-NnRSls2jZ-42" source="4f5OkCiOBDOPZs5WImNO-1" target="4f5OkCiOBDOPZs5WImNO-4" edge="1">
                    <mxGeometry relative="1" as="geometry">
                        <Array as="points">
                            <mxPoint x="128" y="451"/>
                            <mxPoint x="128" y="277"/>
                            <mxPoint x="224" y="277"/>
                        </Array>
                    </mxGeometry>
                </mxCell>
                <mxCell id="4f5OkCiOBDOPZs5WImNO-16" style="edgeStyle=orthogonalEdgeStyle;html=1;exitX=0;exitY=0.5;exitDx=0;exitDy=0;entryX=0.55;entryY=0.95;entryDx=0;entryDy=0;entryPerimeter=0;strokeWidth=1;fontFamily=Cantarell;fontSource=http%3A%2F%2Fcantarell.gnome.org%2Ffonts%2FCantarell-VF.otf;endArrow=classic;endFill=1;" parent="ZK73CwlnwU-NnRSls2jZ-42" source="4f5OkCiOBDOPZs5WImNO-2" target="4f5OkCiOBDOPZs5WImNO-5" edge="1">
                    <mxGeometry relative="1" as="geometry">
                        <Array as="points">
                            <mxPoint x="98" y="486"/>
                            <mxPoint x="98" y="267"/>
                            <mxPoint x="139" y="267"/>
                        </Array>
                    </mxGeometry>
                </mxCell>
                <mxCell id="ZK73CwlnwU-NnRSls2jZ-43" value="Command Buffer Recording" style="text;html=1;align=center;verticalAlign=middle;resizable=0;points=[];autosize=1;strokeColor=none;fillColor=none;fontFamily=Cantarell;fontSource=http%3A%2F%2Fcantarell.gnome.org%2Ffonts%2FCantarell-VF.otf;" parent="1" vertex="1">
                    <mxGeometry x="1012" y="753" width="170" height="30" as="geometry"/>
                </mxCell>
                <mxCell id="BZ83tg2JVf8gE-xio1_H-2" style="edgeStyle=orthogonalEdgeStyle;html=1;exitX=0.5;exitY=1;exitDx=0;exitDy=0;entryX=0;entryY=0.25;entryDx=0;entryDy=0;fontFamily=Cantarell;fontSource=http%3A%2F%2Fcantarell.gnome.org%2Ffonts%2FCantarell-VF.otf;" parent="1" source="BZ83tg2JVf8gE-xio1_H-1" target="lPu65lSoNFRgzhGjw4Nk-16" edge="1">
                    <mxGeometry relative="1" as="geometry"/>
                </mxCell>
                <mxCell id="BZ83tg2JVf8gE-xio1_H-1" value="" style="swimlane;startSize=0;opacity=50;fontFamily=Cantarell;fontSource=http%3A%2F%2Fcantarell.gnome.org%2Ffonts%2FCantarell-VF.otf;" parent="1" vertex="1">
                    <mxGeometry x="704" y="278" width="180" height="305" as="geometry"/>
                </mxCell>
                <mxCell id="lPu65lSoNFRgzhGjw4Nk-3" value="Subpass Description" style="rounded=0;whiteSpace=wrap;html=1;strokeColor=default;fontFamily=Cantarell;fontSource=http%3A%2F%2Fcantarell.gnome.org%2Ffonts%2FCantarell-VF.otf;" parent="BZ83tg2JVf8gE-xio1_H-1" vertex="1">
                    <mxGeometry x="14.5" y="212.5" width="150" height="30" as="geometry"/>
                </mxCell>
                <mxCell id="lPu65lSoNFRgzhGjw4Nk-4" value="Subpass Description" style="rounded=0;whiteSpace=wrap;html=1;strokeColor=default;fontFamily=Cantarell;fontSource=http%3A%2F%2Fcantarell.gnome.org%2Ffonts%2FCantarell-VF.otf;" parent="BZ83tg2JVf8gE-xio1_H-1" vertex="1">
                    <mxGeometry x="14.5" y="262.5" width="150" height="30" as="geometry"/>
                </mxCell>
                <mxCell id="wlctVFZJox-4niqaxLMB-22" value="Subpass Description" style="swimlane;whiteSpace=wrap;html=1;strokeColor=default;fontFamily=Cantarell;fontSource=http%3A%2F%2Fcantarell.gnome.org%2Ffonts%2FCantarell-VF.otf;" parent="BZ83tg2JVf8gE-xio1_H-1" vertex="1">
                    <mxGeometry x="15.5" y="12.5" width="150" height="180" as="geometry"/>
                </mxCell>
                <mxCell id="wlctVFZJox-4niqaxLMB-23" value="Pipeline Bind Point" style="rounded=1;whiteSpace=wrap;html=1;strokeColor=default;fontFamily=Cantarell;fontSource=http%3A%2F%2Fcantarell.gnome.org%2Ffonts%2FCantarell-VF.otf;" parent="wlctVFZJox-4niqaxLMB-22" vertex="1">
                    <mxGeometry x="15" y="30" width="120" height="40" as="geometry"/>
                </mxCell>
                <mxCell id="wlctVFZJox-4niqaxLMB-24" value="Color Attachments" style="rounded=1;whiteSpace=wrap;html=1;strokeColor=default;fontFamily=Cantarell;fontSource=http%3A%2F%2Fcantarell.gnome.org%2Ffonts%2FCantarell-VF.otf;" parent="wlctVFZJox-4niqaxLMB-22" vertex="1">
                    <mxGeometry x="15" y="80" width="120" height="40" as="geometry"/>
                </mxCell>
                <mxCell id="wlctVFZJox-4niqaxLMB-25" value="Depth/Stencil Attachments" style="rounded=1;whiteSpace=wrap;html=1;strokeColor=default;fontFamily=Cantarell;fontSource=http%3A%2F%2Fcantarell.gnome.org%2Ffonts%2FCantarell-VF.otf;" parent="wlctVFZJox-4niqaxLMB-22" vertex="1">
                    <mxGeometry x="15" y="130" width="120" height="40" as="geometry"/>
                </mxCell>
                <mxCell id="DiYbKEejwSnZsyqMJPqQ-1" style="edgeStyle=orthogonalEdgeStyle;html=1;exitX=0;exitY=0.5;exitDx=0;exitDy=0;fontFamily=Cantarell;fontSource=http%3A%2F%2Fcantarell.gnome.org%2Ffonts%2FCantarell-VF.otf;" parent="1" source="wlctVFZJox-4niqaxLMB-22" target="wlctVFZJox-4niqaxLMB-8" edge="1">
                    <mxGeometry relative="1" as="geometry"/>
                </mxCell>
                <mxCell id="DiYbKEejwSnZsyqMJPqQ-2" style="edgeStyle=orthogonalEdgeStyle;html=1;exitX=0;exitY=0.5;exitDx=0;exitDy=0;fontFamily=Cantarell;fontSource=http%3A%2F%2Fcantarell.gnome.org%2Ffonts%2FCantarell-VF.otf;" parent="1" source="lPu65lSoNFRgzhGjw4Nk-3" target="lPu65lSoNFRgzhGjw4Nk-1" edge="1">
                    <mxGeometry relative="1" as="geometry"/>
                </mxCell>
                <mxCell id="DiYbKEejwSnZsyqMJPqQ-3" style="edgeStyle=orthogonalEdgeStyle;html=1;exitX=0;exitY=0.5;exitDx=0;exitDy=0;fontFamily=Cantarell;fontSource=http%3A%2F%2Fcantarell.gnome.org%2Ffonts%2FCantarell-VF.otf;" parent="1" source="lPu65lSoNFRgzhGjw4Nk-4" target="lPu65lSoNFRgzhGjw4Nk-5" edge="1">
                    <mxGeometry relative="1" as="geometry"/>
                </mxCell>
                <mxCell id="GuorzlUuwyiOV3Va1xUx-7" style="html=1;exitX=0.625;exitY=0.2;exitDx=0;exitDy=0;exitPerimeter=0;fontFamily=Cantarell;fontSource=http%3A%2F%2Fcantarell.gnome.org%2Ffonts%2FCantarell-VF.otf;endArrow=classic;endFill=1;" parent="1" source="GuorzlUuwyiOV3Va1xUx-6" target="ZK73CwlnwU-NnRSls2jZ-3" edge="1">
                    <mxGeometry relative="1" as="geometry">
                        <mxPoint x="1550" y="880" as="targetPoint"/>
                    </mxGeometry>
                </mxCell>
                <mxCell id="GuorzlUuwyiOV3Va1xUx-6" value="Swapchain" style="ellipse;shape=cloud;whiteSpace=wrap;html=1;fontFamily=Cantarell;fontSource=http%3A%2F%2Fcantarell.gnome.org%2Ffonts%2FCantarell-VF.otf;" parent="1" vertex="1">
                    <mxGeometry x="1486" y="915" width="120" height="80" as="geometry"/>
                </mxCell>
                <mxCell id="lGRz_JVbC4NS9obYFsnJ-1" value="BindVertexBuffer" style="shape=hexagon;perimeter=hexagonPerimeter2;whiteSpace=wrap;html=1;fixedSize=1;fontFamily=Cantarell;fontSource=http%3A%2F%2Fcantarell.gnome.org%2Ffonts%2FCantarell-VF.otf;" parent="1" vertex="1">
                    <mxGeometry x="1022" y="935" width="150" height="40" as="geometry"/>
                </mxCell>
                <mxCell id="lGRz_JVbC4NS9obYFsnJ-3" style="edgeStyle=orthogonalEdgeStyle;html=1;exitX=1;exitY=0.5;exitDx=0;exitDy=0;fontFamily=Cantarell;fontSource=http%3A%2F%2Fcantarell.gnome.org%2Ffonts%2FCantarell-VF.otf;" parent="1" source="lGRz_JVbC4NS9obYFsnJ-2" target="lGRz_JVbC4NS9obYFsnJ-1" edge="1">
                    <mxGeometry relative="1" as="geometry"/>
                </mxCell>
                <mxCell id="lGRz_JVbC4NS9obYFsnJ-2" value="Vertex Buffer" style="rounded=1;whiteSpace=wrap;html=1;fontFamily=Cantarell;fontSource=http%3A%2F%2Fcantarell.gnome.org%2Ffonts%2FCantarell-VF.otf;" parent="1" vertex="1">
                    <mxGeometry x="752" y="920" width="150" height="70" as="geometry"/>
                </mxCell>
                <mxCell id="lGRz_JVbC4NS9obYFsnJ-7" style="edgeStyle=orthogonalEdgeStyle;html=1;exitX=1;exitY=0.5;exitDx=0;exitDy=0;entryX=0;entryY=0.5;entryDx=0;entryDy=0;fontFamily=Cantarell;fontSource=http%3A%2F%2Fcantarell.gnome.org%2Ffonts%2FCantarell-VF.otf;" parent="1" source="lGRz_JVbC4NS9obYFsnJ-4" target="lGRz_JVbC4NS9obYFsnJ-6" edge="1">
                    <mxGeometry relative="1" as="geometry"/>
                </mxCell>
                <mxCell id="lGRz_JVbC4NS9obYFsnJ-4" value="Index Buffer" style="rounded=1;whiteSpace=wrap;html=1;fontFamily=Cantarell;fontSource=http%3A%2F%2Fcantarell.gnome.org%2Ffonts%2FCantarell-VF.otf;" parent="1" vertex="1">
                    <mxGeometry x="752" y="1020" width="150" height="70" as="geometry"/>
                </mxCell>
                <mxCell id="lGRz_JVbC4NS9obYFsnJ-6" value="BindIndexBuffer" style="shape=hexagon;perimeter=hexagonPerimeter2;whiteSpace=wrap;html=1;fixedSize=1;fontFamily=Cantarell;fontSource=http%3A%2F%2Fcantarell.gnome.org%2Ffonts%2FCantarell-VF.otf;" parent="1" vertex="1">
                    <mxGeometry x="1022" y="975" width="150" height="40" as="geometry"/>
                </mxCell>
                <mxCell id="lGRz_JVbC4NS9obYFsnJ-22" style="edgeStyle=orthogonalEdgeStyle;html=1;fontFamily=Cantarell;fontSource=http%3A%2F%2Fcantarell.gnome.org%2Ffonts%2FCantarell-VF.otf;" parent="1" source="lGRz_JVbC4NS9obYFsnJ-8" target="lGRz_JVbC4NS9obYFsnJ-2" edge="1">
                    <mxGeometry relative="1" as="geometry"/>
                </mxCell>
                <mxCell id="lGRz_JVbC4NS9obYFsnJ-8" value="Device Memory or&lt;br&gt;Managed Memory&lt;br&gt;(Device Local)" style="shape=cylinder3;whiteSpace=wrap;html=1;boundedLbl=1;backgroundOutline=1;size=10.200000000000045;fontFamily=Cantarell;fontSource=http%3A%2F%2Fcantarell.gnome.org%2Ffonts%2FCantarell-VF.otf;" parent="1" vertex="1">
                    <mxGeometry x="520" y="900" width="100" height="110" as="geometry"/>
                </mxCell>
                <mxCell id="lGRz_JVbC4NS9obYFsnJ-14" style="edgeStyle=orthogonalEdgeStyle;html=1;fontFamily=Cantarell;fontSource=http%3A%2F%2Fcantarell.gnome.org%2Ffonts%2FCantarell-VF.otf;" parent="1" source="lGRz_JVbC4NS9obYFsnJ-13" target="lGRz_JVbC4NS9obYFsnJ-8" edge="1">
                    <mxGeometry relative="1" as="geometry"/>
                </mxCell>
                <mxCell id="lGRz_JVbC4NS9obYFsnJ-15" value="Transfer" style="edgeLabel;html=1;align=center;verticalAlign=middle;resizable=0;points=[];fontFamily=Cantarell;" parent="lGRz_JVbC4NS9obYFsnJ-14" vertex="1" connectable="0">
                    <mxGeometry x="-0.1146" y="1" relative="1" as="geometry">
                        <mxPoint x="1" y="4" as="offset"/>
                    </mxGeometry>
                </mxCell>
                <mxCell id="lGRz_JVbC4NS9obYFsnJ-17" style="edgeStyle=orthogonalEdgeStyle;html=1;exitX=0;exitY=0.5;exitDx=0;exitDy=0;exitPerimeter=0;fontFamily=Cantarell;fontSource=http%3A%2F%2Fcantarell.gnome.org%2Ffonts%2FCantarell-VF.otf;" parent="1" source="lGRz_JVbC4NS9obYFsnJ-13" target="lGRz_JVbC4NS9obYFsnJ-16" edge="1">
                    <mxGeometry relative="1" as="geometry"/>
                </mxCell>
                <mxCell id="lGRz_JVbC4NS9obYFsnJ-19" style="edgeStyle=orthogonalEdgeStyle;html=1;exitX=1;exitY=0.5;exitDx=0;exitDy=0;exitPerimeter=0;entryX=0;entryY=0.5;entryDx=0;entryDy=0;entryPerimeter=0;fontFamily=Cantarell;fontSource=http%3A%2F%2Fcantarell.gnome.org%2Ffonts%2FCantarell-VF.otf;" parent="1" source="lGRz_JVbC4NS9obYFsnJ-13" target="lGRz_JVbC4NS9obYFsnJ-18" edge="1">
                    <mxGeometry relative="1" as="geometry"/>
                </mxCell>
                <mxCell id="lGRz_JVbC4NS9obYFsnJ-20" value="Transfer" style="edgeLabel;html=1;align=center;verticalAlign=middle;resizable=0;points=[];fontFamily=Cantarell;" parent="lGRz_JVbC4NS9obYFsnJ-19" vertex="1" connectable="0">
                    <mxGeometry x="-0.1011" relative="1" as="geometry">
                        <mxPoint as="offset"/>
                    </mxGeometry>
                </mxCell>
                <mxCell id="lGRz_JVbC4NS9obYFsnJ-13" value="Device Memory or&lt;br&gt;Managed Memory&lt;br&gt;(Host Local)" style="shape=cylinder3;whiteSpace=wrap;html=1;boundedLbl=1;backgroundOutline=1;size=10.200000000000045;fontFamily=Cantarell;fontSource=http%3A%2F%2Fcantarell.gnome.org%2Ffonts%2FCantarell-VF.otf;" parent="1" vertex="1">
                    <mxGeometry x="320" y="885" width="100" height="250" as="geometry"/>
                </mxCell>
                <mxCell id="lGRz_JVbC4NS9obYFsnJ-16" value="Stage Buffer" style="rounded=1;whiteSpace=wrap;html=1;fontFamily=Cantarell;fontSource=http%3A%2F%2Fcantarell.gnome.org%2Ffonts%2FCantarell-VF.otf;" parent="1" vertex="1">
                    <mxGeometry x="120" y="975" width="150" height="70" as="geometry"/>
                </mxCell>
            </root>
        </mxGraphModel>
    </diagram>
    <diagram id="Bo4mDew75gxrKhY3j3uS" name="Object Hierachy">
        <mxGraphModel dx="999" dy="752" grid="1" gridSize="10" guides="1" tooltips="1" connect="1" arrows="1" fold="1" page="0" pageScale="1" pageWidth="1654" pageHeight="1169" math="0" shadow="0">
            <root>
                <mxCell id="0"/>
                <mxCell id="1" parent="0"/>
                <mxCell id="T838N58-kmsUEfbbhDyl-7" style="edgeStyle=orthogonalEdgeStyle;html=1;exitX=0;exitY=0.5;exitDx=0;exitDy=0;entryX=1;entryY=0.5;entryDx=0;entryDy=0;fontFamily=Cantarell;fontSource=http%3A%2F%2Fcantarell.gnome.org%2Ffonts%2FCantarell-VF.otf;" parent="1" source="T838N58-kmsUEfbbhDyl-1" target="T838N58-kmsUEfbbhDyl-2" edge="1">
                    <mxGeometry relative="1" as="geometry"/>
                </mxCell>
                <mxCell id="T838N58-kmsUEfbbhDyl-8" value="Extension" style="edgeLabel;html=1;align=center;verticalAlign=middle;resizable=0;points=[];fontFamily=Cantarell;fontSource=http%3A%2F%2Fcantarell.gnome.org%2Ffonts%2FCantarell-VF.otf;" parent="T838N58-kmsUEfbbhDyl-7" vertex="1" connectable="0">
                    <mxGeometry x="-0.1164" y="-2" relative="1" as="geometry">
                        <mxPoint x="-5" y="2" as="offset"/>
                    </mxGeometry>
                </mxCell>
                <mxCell id="T838N58-kmsUEfbbhDyl-20" value="" style="edgeStyle=orthogonalEdgeStyle;html=1;fontFamily=Cantarell;fontSource=http%3A%2F%2Fcantarell.gnome.org%2Ffonts%2FCantarell-VF.otf;" parent="1" source="T838N58-kmsUEfbbhDyl-1" target="T838N58-kmsUEfbbhDyl-19" edge="1">
                    <mxGeometry relative="1" as="geometry"/>
                </mxCell>
                <mxCell id="T838N58-kmsUEfbbhDyl-1" value="GLFW" style="ellipse;whiteSpace=wrap;html=1;aspect=fixed;fontFamily=Cantarell;fontSource=http%3A%2F%2Fcantarell.gnome.org%2Ffonts%2FCantarell-VF.otf;" parent="1" vertex="1">
                    <mxGeometry x="1032" y="175" width="70" height="70" as="geometry"/>
                </mxCell>
                <mxCell id="T838N58-kmsUEfbbhDyl-4" value="" style="edgeStyle=orthogonalEdgeStyle;html=1;fontFamily=Cantarell;fontSource=http%3A%2F%2Fcantarell.gnome.org%2Ffonts%2FCantarell-VF.otf;" parent="1" source="T838N58-kmsUEfbbhDyl-2" target="T838N58-kmsUEfbbhDyl-3" edge="1">
                    <mxGeometry relative="1" as="geometry"/>
                </mxCell>
                <mxCell id="T838N58-kmsUEfbbhDyl-6" style="edgeStyle=orthogonalEdgeStyle;html=1;fontFamily=Cantarell;fontSource=http%3A%2F%2Fcantarell.gnome.org%2Ffonts%2FCantarell-VF.otf;" parent="1" source="T838N58-kmsUEfbbhDyl-2" target="T838N58-kmsUEfbbhDyl-5" edge="1">
                    <mxGeometry relative="1" as="geometry"/>
                </mxCell>
                <mxCell id="T838N58-kmsUEfbbhDyl-26" style="edgeStyle=elbowEdgeStyle;html=1;fontFamily=Cantarell;fontSource=http%3A%2F%2Fcantarell.gnome.org%2Ffonts%2FCantarell-VF.otf;" parent="1" source="T838N58-kmsUEfbbhDyl-2" target="T838N58-kmsUEfbbhDyl-23" edge="1">
                    <mxGeometry relative="1" as="geometry">
                        <Array as="points">
                            <mxPoint x="682" y="395"/>
                            <mxPoint x="702" y="535"/>
                            <mxPoint x="662" y="555"/>
                            <mxPoint x="652" y="295"/>
                            <mxPoint x="672" y="415"/>
                            <mxPoint x="632" y="415"/>
                            <mxPoint x="682" y="385"/>
                        </Array>
                    </mxGeometry>
                </mxCell>
                <mxCell id="T838N58-kmsUEfbbhDyl-2" value="Instance" style="rounded=1;whiteSpace=wrap;html=1;fontFamily=Cantarell;fontSource=http%3A%2F%2Fcantarell.gnome.org%2Ffonts%2FCantarell-VF.otf;" parent="1" vertex="1">
                    <mxGeometry x="742" y="180" width="120" height="60" as="geometry"/>
                </mxCell>
                <mxCell id="T838N58-kmsUEfbbhDyl-3" value="Debug Utility" style="rounded=1;whiteSpace=wrap;html=1;fontFamily=Cantarell;fontSource=http%3A%2F%2Fcantarell.gnome.org%2Ffonts%2FCantarell-VF.otf;" parent="1" vertex="1">
                    <mxGeometry x="482" y="180" width="120" height="60" as="geometry"/>
                </mxCell>
                <mxCell id="T838N58-kmsUEfbbhDyl-12" value="" style="edgeStyle=orthogonalEdgeStyle;html=1;fontFamily=Cantarell;fontSource=http%3A%2F%2Fcantarell.gnome.org%2Ffonts%2FCantarell-VF.otf;" parent="1" source="T838N58-kmsUEfbbhDyl-5" target="T838N58-kmsUEfbbhDyl-11" edge="1">
                    <mxGeometry relative="1" as="geometry"/>
                </mxCell>
                <mxCell id="T838N58-kmsUEfbbhDyl-14" value="" style="edgeStyle=orthogonalEdgeStyle;html=1;fontFamily=Cantarell;fontSource=http%3A%2F%2Fcantarell.gnome.org%2Ffonts%2FCantarell-VF.otf;" parent="1" source="T838N58-kmsUEfbbhDyl-5" target="T838N58-kmsUEfbbhDyl-11" edge="1">
                    <mxGeometry relative="1" as="geometry"/>
                </mxCell>
                <mxCell id="T838N58-kmsUEfbbhDyl-18" style="edgeStyle=orthogonalEdgeStyle;html=1;fontFamily=Cantarell;fontSource=http%3A%2F%2Fcantarell.gnome.org%2Ffonts%2FCantarell-VF.otf;" parent="1" source="T838N58-kmsUEfbbhDyl-5" target="T838N58-kmsUEfbbhDyl-16" edge="1">
                    <mxGeometry relative="1" as="geometry"/>
                </mxCell>
                <mxCell id="T838N58-kmsUEfbbhDyl-27" style="edgeStyle=elbowEdgeStyle;html=1;fontFamily=Cantarell;fontSource=http%3A%2F%2Fcantarell.gnome.org%2Ffonts%2FCantarell-VF.otf;" parent="1" source="T838N58-kmsUEfbbhDyl-5" target="T838N58-kmsUEfbbhDyl-23" edge="1">
                    <mxGeometry relative="1" as="geometry">
                        <Array as="points">
                            <mxPoint x="702" y="415"/>
                            <mxPoint x="712" y="535"/>
                            <mxPoint x="692" y="395"/>
                            <mxPoint x="722" y="525"/>
                            <mxPoint x="692" y="535"/>
                            <mxPoint x="672" y="435"/>
                        </Array>
                    </mxGeometry>
                </mxCell>
                <mxCell id="T838N58-kmsUEfbbhDyl-36" style="edgeStyle=orthogonalEdgeStyle;html=1;exitX=1;exitY=0.5;exitDx=0;exitDy=0;entryX=0;entryY=0.5;entryDx=0;entryDy=0;fontFamily=Cantarell;fontSource=http%3A%2F%2Fcantarell.gnome.org%2Ffonts%2FCantarell-VF.otf;" parent="1" source="T838N58-kmsUEfbbhDyl-5" target="T838N58-kmsUEfbbhDyl-33" edge="1">
                    <mxGeometry relative="1" as="geometry">
                        <Array as="points">
                            <mxPoint x="922" y="315"/>
                            <mxPoint x="922" y="400"/>
                        </Array>
                    </mxGeometry>
                </mxCell>
                <mxCell id="T838N58-kmsUEfbbhDyl-5" value="Physical Device" style="rounded=1;whiteSpace=wrap;html=1;fontFamily=Cantarell;fontSource=http%3A%2F%2Fcantarell.gnome.org%2Ffonts%2FCantarell-VF.otf;" parent="1" vertex="1">
                    <mxGeometry x="742" y="285" width="120" height="60" as="geometry"/>
                </mxCell>
                <mxCell id="T838N58-kmsUEfbbhDyl-24" style="edgeStyle=elbowEdgeStyle;html=1;fontFamily=Cantarell;fontSource=http%3A%2F%2Fcantarell.gnome.org%2Ffonts%2FCantarell-VF.otf;" parent="1" source="T838N58-kmsUEfbbhDyl-11" target="T838N58-kmsUEfbbhDyl-23" edge="1">
                    <mxGeometry relative="1" as="geometry"/>
                </mxCell>
                <mxCell id="T838N58-kmsUEfbbhDyl-11" value="Graphics Q.F." style="shape=hexagon;perimeter=hexagonPerimeter2;whiteSpace=wrap;html=1;fixedSize=1;rounded=0;fontFamily=Cantarell;fontSource=http%3A%2F%2Fcantarell.gnome.org%2Ffonts%2FCantarell-VF.otf;" parent="1" vertex="1">
                    <mxGeometry x="709.5" y="415" width="90" height="50" as="geometry"/>
                </mxCell>
                <mxCell id="T838N58-kmsUEfbbhDyl-25" style="edgeStyle=elbowEdgeStyle;html=1;fontFamily=Cantarell;fontSource=http%3A%2F%2Fcantarell.gnome.org%2Ffonts%2FCantarell-VF.otf;" parent="1" source="T838N58-kmsUEfbbhDyl-16" target="T838N58-kmsUEfbbhDyl-23" edge="1">
                    <mxGeometry relative="1" as="geometry"/>
                </mxCell>
                <mxCell id="T838N58-kmsUEfbbhDyl-16" value="Present Q.F." style="shape=hexagon;perimeter=hexagonPerimeter2;whiteSpace=wrap;html=1;fixedSize=1;rounded=0;fontFamily=Cantarell;fontSource=http%3A%2F%2Fcantarell.gnome.org%2Ffonts%2FCantarell-VF.otf;" parent="1" vertex="1">
                    <mxGeometry x="804.5" y="415" width="90" height="50" as="geometry"/>
                </mxCell>
                <mxCell id="T838N58-kmsUEfbbhDyl-22" style="edgeStyle=elbowEdgeStyle;html=1;fontFamily=Cantarell;fontSource=http%3A%2F%2Fcantarell.gnome.org%2Ffonts%2FCantarell-VF.otf;" parent="1" source="T838N58-kmsUEfbbhDyl-19" target="T838N58-kmsUEfbbhDyl-16" edge="1">
                    <mxGeometry relative="1" as="geometry"/>
                </mxCell>
                <mxCell id="T838N58-kmsUEfbbhDyl-35" style="edgeStyle=orthogonalEdgeStyle;html=1;fontFamily=Cantarell;fontSource=http%3A%2F%2Fcantarell.gnome.org%2Ffonts%2FCantarell-VF.otf;" parent="1" source="T838N58-kmsUEfbbhDyl-19" target="T838N58-kmsUEfbbhDyl-33" edge="1">
                    <mxGeometry relative="1" as="geometry"/>
                </mxCell>
                <mxCell id="T838N58-kmsUEfbbhDyl-42" style="edgeStyle=orthogonalEdgeStyle;html=1;fontFamily=Cantarell;fontSource=http%3A%2F%2Fcantarell.gnome.org%2Ffonts%2FCantarell-VF.otf;" parent="1" source="T838N58-kmsUEfbbhDyl-19" target="T838N58-kmsUEfbbhDyl-40" edge="1">
                    <mxGeometry relative="1" as="geometry"/>
                </mxCell>
                <mxCell id="T838N58-kmsUEfbbhDyl-19" value="Surface" style="whiteSpace=wrap;html=1;rounded=1;fontFamily=Cantarell;fontSource=http%3A%2F%2Fcantarell.gnome.org%2Ffonts%2FCantarell-VF.otf;" parent="1" vertex="1">
                    <mxGeometry x="1007" y="285" width="120" height="60" as="geometry"/>
                </mxCell>
                <mxCell id="T838N58-kmsUEfbbhDyl-45" style="edgeStyle=orthogonalEdgeStyle;html=1;entryX=0;entryY=0.5;entryDx=0;entryDy=0;fontFamily=Cantarell;fontSource=http%3A%2F%2Fcantarell.gnome.org%2Ffonts%2FCantarell-VF.otf;" parent="1" source="T838N58-kmsUEfbbhDyl-23" target="T838N58-kmsUEfbbhDyl-40" edge="1">
                    <mxGeometry relative="1" as="geometry"/>
                </mxCell>
                <mxCell id="T838N58-kmsUEfbbhDyl-52" style="edgeStyle=orthogonalEdgeStyle;html=1;exitX=0.5;exitY=1;exitDx=0;exitDy=0;entryX=0;entryY=0.5;entryDx=0;entryDy=0;fontFamily=Cantarell;fontSource=http%3A%2F%2Fcantarell.gnome.org%2Ffonts%2FCantarell-VF.otf;" parent="1" source="T838N58-kmsUEfbbhDyl-23" target="T838N58-kmsUEfbbhDyl-28" edge="1">
                    <mxGeometry relative="1" as="geometry"/>
                </mxCell>
                <mxCell id="T838N58-kmsUEfbbhDyl-53" style="edgeStyle=orthogonalEdgeStyle;html=1;exitX=0.5;exitY=1;exitDx=0;exitDy=0;entryX=0;entryY=0.5;entryDx=0;entryDy=0;fontFamily=Cantarell;fontSource=http%3A%2F%2Fcantarell.gnome.org%2Ffonts%2FCantarell-VF.otf;" parent="1" source="T838N58-kmsUEfbbhDyl-23" target="T838N58-kmsUEfbbhDyl-29" edge="1">
                    <mxGeometry relative="1" as="geometry"/>
                </mxCell>
                <mxCell id="T838N58-kmsUEfbbhDyl-64" style="edgeStyle=orthogonalEdgeStyle;html=1;exitX=0.5;exitY=1;exitDx=0;exitDy=0;entryX=0;entryY=0.5;entryDx=0;entryDy=0;fontFamily=Cantarell;fontSource=http%3A%2F%2Fcantarell.gnome.org%2Ffonts%2FCantarell-VF.otf;" parent="1" source="T838N58-kmsUEfbbhDyl-23" target="T838N58-kmsUEfbbhDyl-62" edge="1">
                    <mxGeometry relative="1" as="geometry"/>
                </mxCell>
                <mxCell id="T838N58-kmsUEfbbhDyl-66" style="edgeStyle=orthogonalEdgeStyle;html=1;exitX=0.5;exitY=1;exitDx=0;exitDy=0;entryX=1;entryY=0.5;entryDx=0;entryDy=0;fontFamily=Cantarell;fontSource=http%3A%2F%2Fcantarell.gnome.org%2Ffonts%2FCantarell-VF.otf;" parent="1" source="T838N58-kmsUEfbbhDyl-23" target="T838N58-kmsUEfbbhDyl-58" edge="1">
                    <mxGeometry relative="1" as="geometry"/>
                </mxCell>
                <mxCell id="T838N58-kmsUEfbbhDyl-70" style="edgeStyle=orthogonalEdgeStyle;html=1;exitX=0.5;exitY=1;exitDx=0;exitDy=0;entryX=0;entryY=0.75;entryDx=0;entryDy=0;fontFamily=Cantarell;fontSource=http%3A%2F%2Fcantarell.gnome.org%2Ffonts%2FCantarell-VF.otf;" parent="1" source="T838N58-kmsUEfbbhDyl-23" target="T838N58-kmsUEfbbhDyl-56" edge="1">
                    <mxGeometry relative="1" as="geometry"/>
                </mxCell>
                <mxCell id="T838N58-kmsUEfbbhDyl-72" style="edgeStyle=orthogonalEdgeStyle;html=1;exitX=0.5;exitY=1;exitDx=0;exitDy=0;entryX=1;entryY=0.5;entryDx=0;entryDy=0;fontFamily=Cantarell;fontSource=http%3A%2F%2Fcantarell.gnome.org%2Ffonts%2FCantarell-VF.otf;" parent="1" source="T838N58-kmsUEfbbhDyl-23" target="T838N58-kmsUEfbbhDyl-71" edge="1">
                    <mxGeometry relative="1" as="geometry"/>
                </mxCell>
                <mxCell id="T838N58-kmsUEfbbhDyl-76" style="edgeStyle=orthogonalEdgeStyle;html=1;exitX=0.5;exitY=1;exitDx=0;exitDy=0;entryX=0;entryY=0.5;entryDx=0;entryDy=0;fontFamily=Cantarell;fontSource=http%3A%2F%2Fcantarell.gnome.org%2Ffonts%2FCantarell-VF.otf;" parent="1" source="T838N58-kmsUEfbbhDyl-23" target="T838N58-kmsUEfbbhDyl-75" edge="1">
                    <mxGeometry relative="1" as="geometry"/>
                </mxCell>
                <mxCell id="T838N58-kmsUEfbbhDyl-82" style="edgeStyle=orthogonalEdgeStyle;html=1;exitX=0.5;exitY=1;exitDx=0;exitDy=0;entryX=0;entryY=0.5;entryDx=0;entryDy=0;fontFamily=Cantarell;fontSource=http%3A%2F%2Fcantarell.gnome.org%2Ffonts%2FCantarell-VF.otf;" parent="1" source="T838N58-kmsUEfbbhDyl-23" target="T838N58-kmsUEfbbhDyl-81" edge="1">
                    <mxGeometry relative="1" as="geometry"/>
                </mxCell>
                <mxCell id="ilHVSUGgLxCyNDMk8u7H-4" style="edgeStyle=orthogonalEdgeStyle;html=1;exitX=0.5;exitY=1;exitDx=0;exitDy=0;entryX=0;entryY=0.5;entryDx=0;entryDy=0;" parent="1" source="T838N58-kmsUEfbbhDyl-23" target="vMpw9RwAps2ISUbDe9xa-1" edge="1">
                    <mxGeometry relative="1" as="geometry"/>
                </mxCell>
                <mxCell id="ilHVSUGgLxCyNDMk8u7H-10" style="edgeStyle=orthogonalEdgeStyle;html=1;exitX=0.5;exitY=1;exitDx=0;exitDy=0;entryX=0;entryY=0.75;entryDx=0;entryDy=0;" parent="1" source="T838N58-kmsUEfbbhDyl-23" target="T838N58-kmsUEfbbhDyl-54" edge="1">
                    <mxGeometry relative="1" as="geometry"/>
                </mxCell>
                <mxCell id="ilHVSUGgLxCyNDMk8u7H-11" style="edgeStyle=orthogonalEdgeStyle;html=1;exitX=0.5;exitY=1;exitDx=0;exitDy=0;entryX=0.5;entryY=0;entryDx=0;entryDy=0;" parent="1" source="T838N58-kmsUEfbbhDyl-23" target="5C9n5Jkxc_oBGQ3GqpbG-1" edge="1">
                    <mxGeometry relative="1" as="geometry"/>
                </mxCell>
                <mxCell id="ilHVSUGgLxCyNDMk8u7H-12" style="edgeStyle=orthogonalEdgeStyle;html=1;exitX=0.5;exitY=1;exitDx=0;exitDy=0;entryX=0.5;entryY=0;entryDx=0;entryDy=0;" parent="1" source="T838N58-kmsUEfbbhDyl-23" target="5C9n5Jkxc_oBGQ3GqpbG-2" edge="1">
                    <mxGeometry relative="1" as="geometry"/>
                </mxCell>
                <mxCell id="T838N58-kmsUEfbbhDyl-23" value="Device" style="rounded=1;whiteSpace=wrap;html=1;fontFamily=Cantarell;fontSource=http%3A%2F%2Fcantarell.gnome.org%2Ffonts%2FCantarell-VF.otf;" parent="1" vertex="1">
                    <mxGeometry x="742" y="515" width="120" height="60" as="geometry"/>
                </mxCell>
                <mxCell id="T838N58-kmsUEfbbhDyl-28" value="Graphics Q." style="shape=hexagon;perimeter=hexagonPerimeter2;whiteSpace=wrap;html=1;fixedSize=1;rounded=0;fontFamily=Cantarell;fontSource=http%3A%2F%2Fcantarell.gnome.org%2Ffonts%2FCantarell-VF.otf;" parent="1" vertex="1">
                    <mxGeometry x="862" y="600" width="90" height="50" as="geometry"/>
                </mxCell>
                <mxCell id="T838N58-kmsUEfbbhDyl-29" value="Present Q." style="shape=hexagon;perimeter=hexagonPerimeter2;whiteSpace=wrap;html=1;fixedSize=1;rounded=0;fontFamily=Cantarell;fontSource=http%3A%2F%2Fcantarell.gnome.org%2Ffonts%2FCantarell-VF.otf;" parent="1" vertex="1">
                    <mxGeometry x="862" y="650" width="90" height="50" as="geometry"/>
                </mxCell>
                <mxCell id="T838N58-kmsUEfbbhDyl-38" style="edgeStyle=orthogonalEdgeStyle;html=1;exitX=0.5;exitY=1;exitDx=0;exitDy=0;entryX=0.5;entryY=0;entryDx=0;entryDy=0;fontFamily=Cantarell;fontSource=http%3A%2F%2Fcantarell.gnome.org%2Ffonts%2FCantarell-VF.otf;" parent="1" source="T838N58-kmsUEfbbhDyl-33" target="T838N58-kmsUEfbbhDyl-37" edge="1">
                    <mxGeometry relative="1" as="geometry">
                        <Array as="points">
                            <mxPoint x="1227" y="425"/>
                            <mxPoint x="1227" y="425"/>
                        </Array>
                    </mxGeometry>
                </mxCell>
                <mxCell id="T838N58-kmsUEfbbhDyl-39" value="Select" style="edgeLabel;html=1;align=center;verticalAlign=middle;resizable=0;points=[];fontFamily=Cantarell;fontSource=http%3A%2F%2Fcantarell.gnome.org%2Ffonts%2FCantarell-VF.otf;" parent="T838N58-kmsUEfbbhDyl-38" vertex="1" connectable="0">
                    <mxGeometry x="-0.2276" y="1" relative="1" as="geometry">
                        <mxPoint x="-1" y="6" as="offset"/>
                    </mxGeometry>
                </mxCell>
                <mxCell id="T838N58-kmsUEfbbhDyl-33" value="Swapchain Detail" style="shape=hexagon;perimeter=hexagonPerimeter2;whiteSpace=wrap;html=1;fixedSize=1;rounded=0;fontFamily=Cantarell;fontSource=http%3A%2F%2Fcantarell.gnome.org%2Ffonts%2FCantarell-VF.otf;" parent="1" vertex="1">
                    <mxGeometry x="1182" y="375" width="90" height="50" as="geometry"/>
                </mxCell>
                <mxCell id="T838N58-kmsUEfbbhDyl-46" style="edgeStyle=orthogonalEdgeStyle;html=1;entryX=1;entryY=0.5;entryDx=0;entryDy=0;fontFamily=Cantarell;fontSource=http%3A%2F%2Fcantarell.gnome.org%2Ffonts%2FCantarell-VF.otf;" parent="1" source="T838N58-kmsUEfbbhDyl-37" target="T838N58-kmsUEfbbhDyl-40" edge="1">
                    <mxGeometry relative="1" as="geometry"/>
                </mxCell>
                <mxCell id="T838N58-kmsUEfbbhDyl-37" value="Swapchain Create Info" style="shape=hexagon;perimeter=hexagonPerimeter2;whiteSpace=wrap;html=1;fixedSize=1;rounded=0;fontFamily=Cantarell;fontSource=http%3A%2F%2Fcantarell.gnome.org%2Ffonts%2FCantarell-VF.otf;" parent="1" vertex="1">
                    <mxGeometry x="1182" y="520" width="90" height="50" as="geometry"/>
                </mxCell>
                <mxCell id="T838N58-kmsUEfbbhDyl-50" style="edgeStyle=orthogonalEdgeStyle;html=1;fontFamily=Cantarell;fontSource=http%3A%2F%2Fcantarell.gnome.org%2Ffonts%2FCantarell-VF.otf;" parent="1" source="T838N58-kmsUEfbbhDyl-40" target="T838N58-kmsUEfbbhDyl-47" edge="1">
                    <mxGeometry relative="1" as="geometry"/>
                </mxCell>
                <mxCell id="T838N58-kmsUEfbbhDyl-40" value="Swapchain" style="whiteSpace=wrap;html=1;rounded=1;fontFamily=Cantarell;fontSource=http%3A%2F%2Fcantarell.gnome.org%2Ffonts%2FCantarell-VF.otf;" parent="1" vertex="1">
                    <mxGeometry x="1007" y="515" width="120" height="60" as="geometry"/>
                </mxCell>
                <mxCell id="T838N58-kmsUEfbbhDyl-49" style="edgeStyle=orthogonalEdgeStyle;html=1;fontFamily=Cantarell;fontSource=http%3A%2F%2Fcantarell.gnome.org%2Ffonts%2FCantarell-VF.otf;" parent="1" source="T838N58-kmsUEfbbhDyl-47" target="T838N58-kmsUEfbbhDyl-48" edge="1">
                    <mxGeometry relative="1" as="geometry"/>
                </mxCell>
                <mxCell id="T838N58-kmsUEfbbhDyl-47" value="Swapchain Images" style="shape=hexagon;perimeter=hexagonPerimeter2;whiteSpace=wrap;html=1;fixedSize=1;rounded=0;fontFamily=Cantarell;fontSource=http%3A%2F%2Fcantarell.gnome.org%2Ffonts%2FCantarell-VF.otf;" parent="1" vertex="1">
                    <mxGeometry x="1022" y="680" width="90" height="50" as="geometry"/>
                </mxCell>
                <mxCell id="T838N58-kmsUEfbbhDyl-65" style="edgeStyle=orthogonalEdgeStyle;html=1;exitX=0.5;exitY=1;exitDx=0;exitDy=0;entryX=0.5;entryY=0;entryDx=0;entryDy=0;fontFamily=Cantarell;fontSource=http%3A%2F%2Fcantarell.gnome.org%2Ffonts%2FCantarell-VF.otf;" parent="1" source="T838N58-kmsUEfbbhDyl-48" target="T838N58-kmsUEfbbhDyl-62" edge="1">
                    <mxGeometry relative="1" as="geometry"/>
                </mxCell>
                <mxCell id="T838N58-kmsUEfbbhDyl-48" value="Swapchain Image Views" style="shape=hexagon;perimeter=hexagonPerimeter2;whiteSpace=wrap;html=1;fixedSize=1;rounded=0;fontFamily=Cantarell;fontSource=http%3A%2F%2Fcantarell.gnome.org%2Ffonts%2FCantarell-VF.otf;" parent="1" vertex="1">
                    <mxGeometry x="1022" y="770" width="90" height="50" as="geometry"/>
                </mxCell>
                <mxCell id="T838N58-kmsUEfbbhDyl-68" style="edgeStyle=orthogonalEdgeStyle;html=1;exitX=0;exitY=0.25;exitDx=0;exitDy=0;entryX=0.25;entryY=0;entryDx=0;entryDy=0;fontFamily=Cantarell;fontSource=http%3A%2F%2Fcantarell.gnome.org%2Ffonts%2FCantarell-VF.otf;" parent="1" source="T838N58-kmsUEfbbhDyl-54" target="T838N58-kmsUEfbbhDyl-58" edge="1">
                    <mxGeometry relative="1" as="geometry">
                        <Array as="points">
                            <mxPoint x="652" y="840"/>
                        </Array>
                    </mxGeometry>
                </mxCell>
                <mxCell id="T838N58-kmsUEfbbhDyl-54" value="Pipeline Layout" style="rounded=1;whiteSpace=wrap;html=1;fontFamily=Cantarell;fontSource=http%3A%2F%2Fcantarell.gnome.org%2Ffonts%2FCantarell-VF.otf;" parent="1" vertex="1">
                    <mxGeometry x="842" y="825" width="120" height="60" as="geometry"/>
                </mxCell>
                <mxCell id="T838N58-kmsUEfbbhDyl-63" style="edgeStyle=orthogonalEdgeStyle;html=1;exitX=1;exitY=0.75;exitDx=0;exitDy=0;entryX=0.25;entryY=0;entryDx=0;entryDy=0;fontFamily=Cantarell;fontSource=http%3A%2F%2Fcantarell.gnome.org%2Ffonts%2FCantarell-VF.otf;" parent="1" source="T838N58-kmsUEfbbhDyl-56" target="T838N58-kmsUEfbbhDyl-62" edge="1">
                    <mxGeometry relative="1" as="geometry"/>
                </mxCell>
                <mxCell id="ilHVSUGgLxCyNDMk8u7H-2" style="edgeStyle=orthogonalEdgeStyle;html=1;exitX=0;exitY=0.5;exitDx=0;exitDy=0;entryX=0.75;entryY=0;entryDx=0;entryDy=0;" parent="1" source="T838N58-kmsUEfbbhDyl-56" target="T838N58-kmsUEfbbhDyl-58" edge="1">
                    <mxGeometry relative="1" as="geometry"/>
                </mxCell>
                <mxCell id="T838N58-kmsUEfbbhDyl-56" value="Render Pass" style="rounded=1;whiteSpace=wrap;html=1;fontFamily=Cantarell;fontSource=http%3A%2F%2Fcantarell.gnome.org%2Ffonts%2FCantarell-VF.otf;" parent="1" vertex="1">
                    <mxGeometry x="842" y="895" width="120" height="60" as="geometry"/>
                </mxCell>
                <mxCell id="T838N58-kmsUEfbbhDyl-58" value="Pipeline" style="rounded=1;whiteSpace=wrap;html=1;fontFamily=Cantarell;fontSource=http%3A%2F%2Fcantarell.gnome.org%2Ffonts%2FCantarell-VF.otf;" parent="1" vertex="1">
                    <mxGeometry x="622" y="990" width="120" height="60" as="geometry"/>
                </mxCell>
                <mxCell id="T838N58-kmsUEfbbhDyl-62" value="Framebuffers" style="rounded=1;whiteSpace=wrap;html=1;fontFamily=Cantarell;fontSource=http%3A%2F%2Fcantarell.gnome.org%2Ffonts%2FCantarell-VF.otf;" parent="1" vertex="1">
                    <mxGeometry x="1007" y="965" width="120" height="60" as="geometry"/>
                </mxCell>
                <mxCell id="T838N58-kmsUEfbbhDyl-74" style="edgeStyle=orthogonalEdgeStyle;html=1;fontFamily=Cantarell;fontSource=http%3A%2F%2Fcantarell.gnome.org%2Ffonts%2FCantarell-VF.otf;" parent="1" source="T838N58-kmsUEfbbhDyl-71" target="T838N58-kmsUEfbbhDyl-73" edge="1">
                    <mxGeometry relative="1" as="geometry"/>
                </mxCell>
                <mxCell id="5C9n5Jkxc_oBGQ3GqpbG-10" value="Allocate" style="edgeLabel;html=1;align=center;verticalAlign=middle;resizable=0;points=[];fontFamily=Cantarell;" parent="T838N58-kmsUEfbbhDyl-74" vertex="1" connectable="0">
                    <mxGeometry x="-0.2839" y="1" relative="1" as="geometry">
                        <mxPoint x="-6" y="-1" as="offset"/>
                    </mxGeometry>
                </mxCell>
                <mxCell id="T838N58-kmsUEfbbhDyl-71" value="Command Pool" style="rounded=1;whiteSpace=wrap;html=1;fontFamily=Cantarell;fontSource=http%3A%2F%2Fcantarell.gnome.org%2Ffonts%2FCantarell-VF.otf;" parent="1" vertex="1">
                    <mxGeometry x="622" y="1085" width="120" height="60" as="geometry"/>
                </mxCell>
                <mxCell id="T838N58-kmsUEfbbhDyl-73" value="Command Buffers" style="shape=hexagon;perimeter=hexagonPerimeter2;whiteSpace=wrap;html=1;fixedSize=1;rounded=0;fontFamily=Cantarell;fontSource=http%3A%2F%2Fcantarell.gnome.org%2Ffonts%2FCantarell-VF.otf;" parent="1" vertex="1">
                    <mxGeometry x="460" y="1090" width="90" height="50" as="geometry"/>
                </mxCell>
                <mxCell id="T838N58-kmsUEfbbhDyl-75" value="Synchronization Objects" style="rounded=1;whiteSpace=wrap;html=1;fontFamily=Cantarell;fontSource=http%3A%2F%2Fcantarell.gnome.org%2Ffonts%2FCantarell-VF.otf;" parent="1" vertex="1">
                    <mxGeometry x="842" y="1025" width="120" height="60" as="geometry"/>
                </mxCell>
                <mxCell id="T838N58-kmsUEfbbhDyl-83" style="edgeStyle=orthogonalEdgeStyle;html=1;exitX=0.5;exitY=1;exitDx=0;exitDy=0;entryX=0.5;entryY=0;entryDx=0;entryDy=0;fontFamily=Cantarell;fontSource=http%3A%2F%2Fcantarell.gnome.org%2Ffonts%2FCantarell-VF.otf;" parent="1" source="T838N58-kmsUEfbbhDyl-81" target="T838N58-kmsUEfbbhDyl-54" edge="1">
                    <mxGeometry relative="1" as="geometry"/>
                </mxCell>
                <mxCell id="T838N58-kmsUEfbbhDyl-81" value="Shader Modules&lt;br&gt;(Temporary)" style="rounded=1;whiteSpace=wrap;html=1;fontFamily=Cantarell;fontSource=http%3A%2F%2Fcantarell.gnome.org%2Ffonts%2FCantarell-VF.otf;" parent="1" vertex="1">
                    <mxGeometry x="842" y="740" width="120" height="60" as="geometry"/>
                </mxCell>
                <mxCell id="vMpw9RwAps2ISUbDe9xa-1" value="Buffers" style="rounded=1;whiteSpace=wrap;html=1;fontFamily=Cantarell;fontSource=http%3A%2F%2Fcantarell.gnome.org%2Ffonts%2FCantarell-VF.otf;" parent="1" vertex="1">
                    <mxGeometry x="842" y="1110" width="120" height="60" as="geometry"/>
                </mxCell>
                <mxCell id="ilHVSUGgLxCyNDMk8u7H-7" style="edgeStyle=orthogonalEdgeStyle;html=1;exitX=0.75;exitY=1;exitDx=0;exitDy=0;entryX=0;entryY=0.5;entryDx=0;entryDy=0;" parent="1" source="5C9n5Jkxc_oBGQ3GqpbG-1" target="T838N58-kmsUEfbbhDyl-54" edge="1">
                    <mxGeometry relative="1" as="geometry"/>
                </mxCell>
                <mxCell id="ilHVSUGgLxCyNDMk8u7H-8" style="edgeStyle=orthogonalEdgeStyle;html=1;exitX=0.25;exitY=1;exitDx=0;exitDy=0;entryX=1;entryY=0.5;entryDx=0;entryDy=0;" parent="1" source="5C9n5Jkxc_oBGQ3GqpbG-1" target="5C9n5Jkxc_oBGQ3GqpbG-3" edge="1">
                    <mxGeometry relative="1" as="geometry"/>
                </mxCell>
                <mxCell id="5C9n5Jkxc_oBGQ3GqpbG-1" value="Descriptor Set Layout" style="rounded=1;whiteSpace=wrap;html=1;fontFamily=Cantarell;fontSource=http%3A%2F%2Fcantarell.gnome.org%2Ffonts%2FCantarell-VF.otf;" parent="1" vertex="1">
                    <mxGeometry x="654" y="630" width="120" height="60" as="geometry"/>
                </mxCell>
                <mxCell id="5C9n5Jkxc_oBGQ3GqpbG-4" style="edgeStyle=none;html=1;" parent="1" source="5C9n5Jkxc_oBGQ3GqpbG-2" target="5C9n5Jkxc_oBGQ3GqpbG-3" edge="1">
                    <mxGeometry relative="1" as="geometry">
                        <Array as="points">
                            <mxPoint x="542" y="710"/>
                        </Array>
                    </mxGeometry>
                </mxCell>
                <mxCell id="5C9n5Jkxc_oBGQ3GqpbG-9" value="Allocate" style="edgeLabel;html=1;align=center;verticalAlign=middle;resizable=0;points=[];fontFamily=Cantarell;fontSource=http%3A%2F%2Fcantarell.gnome.org%2Ffonts%2FCantarell-VF.otf;" parent="5C9n5Jkxc_oBGQ3GqpbG-4" vertex="1" connectable="0">
                    <mxGeometry x="-0.3056" relative="1" as="geometry">
                        <mxPoint y="3" as="offset"/>
                    </mxGeometry>
                </mxCell>
                <mxCell id="5C9n5Jkxc_oBGQ3GqpbG-2" value="Descriptor Set Pool" style="rounded=1;whiteSpace=wrap;html=1;fontFamily=Cantarell;fontSource=http%3A%2F%2Fcantarell.gnome.org%2Ffonts%2FCantarell-VF.otf;" parent="1" vertex="1">
                    <mxGeometry x="482" y="630" width="120" height="60" as="geometry"/>
                </mxCell>
                <mxCell id="5C9n5Jkxc_oBGQ3GqpbG-3" value="Descriptor Set(s)" style="rounded=1;whiteSpace=wrap;html=1;fontFamily=Cantarell;fontSource=http%3A%2F%2Fcantarell.gnome.org%2Ffonts%2FCantarell-VF.otf;" parent="1" vertex="1">
                    <mxGeometry x="482" y="725" width="120" height="60" as="geometry"/>
                </mxCell>
            </root>
        </mxGraphModel>
    </diagram>
    <diagram id="DHCJqzSn4EnDMm3XgzXb" name="Descriptor">
        <mxGraphModel dx="1159" dy="717" grid="1" gridSize="10" guides="1" tooltips="1" connect="1" arrows="1" fold="1" page="1" pageScale="1" pageWidth="1654" pageHeight="1169" math="0" shadow="0">
            <root>
                <mxCell id="0"/>
                <mxCell id="1" parent="0"/>
                <mxCell id="h3Sk4Lmx9TWWfSmt2_9P-2" value="Shader" style="swimlane;whiteSpace=wrap;html=1;rounded=1;fontFamily=Cantarell;fontSource=http%3A%2F%2Fcantarell.gnome.org%2Ffonts%2FCantarell-VF.otf;" parent="1" vertex="1">
                    <mxGeometry x="258" y="209" width="200" height="170" as="geometry"/>
                </mxCell>
                <mxCell id="h3Sk4Lmx9TWWfSmt2_9P-3" value="uniform object, binding=0" style="rounded=1;whiteSpace=wrap;html=1;fontFamily=Cantarell;fontSource=http%3A%2F%2Fcantarell.gnome.org%2Ffonts%2FCantarell-VF.otf;" parent="h3Sk4Lmx9TWWfSmt2_9P-2" vertex="1">
                    <mxGeometry x="20" y="30" width="160" height="60" as="geometry"/>
                </mxCell>
                <mxCell id="h3Sk4Lmx9TWWfSmt2_9P-4" value="uniform sampler, binding=1" style="rounded=1;whiteSpace=wrap;html=1;fontFamily=Cantarell;fontSource=http%3A%2F%2Fcantarell.gnome.org%2Ffonts%2FCantarell-VF.otf;" parent="h3Sk4Lmx9TWWfSmt2_9P-2" vertex="1">
                    <mxGeometry x="20" y="100" width="160" height="60" as="geometry"/>
                </mxCell>
                <mxCell id="h3Sk4Lmx9TWWfSmt2_9P-5" value="Descriptor Set Layout" style="swimlane;whiteSpace=wrap;html=1;rounded=1;fontFamily=Cantarell;fontSource=http%3A%2F%2Fcantarell.gnome.org%2Ffonts%2FCantarell-VF.otf;" parent="1" vertex="1">
                    <mxGeometry x="508" y="209" width="200" height="170" as="geometry"/>
                </mxCell>
                <mxCell id="h3Sk4Lmx9TWWfSmt2_9P-6" value="Descriptor Set Layout Binding, binding=0" style="rounded=1;whiteSpace=wrap;html=1;fontFamily=Cantarell;fontSource=http%3A%2F%2Fcantarell.gnome.org%2Ffonts%2FCantarell-VF.otf;" parent="h3Sk4Lmx9TWWfSmt2_9P-5" vertex="1">
                    <mxGeometry x="20" y="30" width="160" height="60" as="geometry"/>
                </mxCell>
                <mxCell id="h3Sk4Lmx9TWWfSmt2_9P-7" value="Descriptor Set Layout Binding, binding=1" style="rounded=1;whiteSpace=wrap;html=1;fontFamily=Cantarell;fontSource=http%3A%2F%2Fcantarell.gnome.org%2Ffonts%2FCantarell-VF.otf;" parent="h3Sk4Lmx9TWWfSmt2_9P-5" vertex="1">
                    <mxGeometry x="20" y="100" width="160" height="60" as="geometry"/>
                </mxCell>
                <mxCell id="h3Sk4Lmx9TWWfSmt2_9P-10" style="edgeStyle=none;html=1;fontFamily=Cantarell;fontSource=http%3A%2F%2Fcantarell.gnome.org%2Ffonts%2FCantarell-VF.otf;" parent="1" source="h3Sk4Lmx9TWWfSmt2_9P-6" target="h3Sk4Lmx9TWWfSmt2_9P-3" edge="1">
                    <mxGeometry relative="1" as="geometry"/>
                </mxCell>
                <mxCell id="h3Sk4Lmx9TWWfSmt2_9P-12" value="Bind" style="edgeLabel;html=1;align=center;verticalAlign=middle;resizable=0;points=[];fontFamily=Cantarell;" parent="h3Sk4Lmx9TWWfSmt2_9P-10" vertex="1" connectable="0">
                    <mxGeometry x="0.1217" y="-1" relative="1" as="geometry">
                        <mxPoint y="1" as="offset"/>
                    </mxGeometry>
                </mxCell>
                <mxCell id="h3Sk4Lmx9TWWfSmt2_9P-11" style="edgeStyle=none;html=1;fontFamily=Cantarell;fontSource=http%3A%2F%2Fcantarell.gnome.org%2Ffonts%2FCantarell-VF.otf;" parent="1" source="h3Sk4Lmx9TWWfSmt2_9P-7" target="h3Sk4Lmx9TWWfSmt2_9P-4" edge="1">
                    <mxGeometry relative="1" as="geometry"/>
                </mxCell>
                <mxCell id="h3Sk4Lmx9TWWfSmt2_9P-13" value="Bind" style="edgeLabel;html=1;align=center;verticalAlign=middle;resizable=0;points=[];fontFamily=Cantarell;" parent="h3Sk4Lmx9TWWfSmt2_9P-11" vertex="1" connectable="0">
                    <mxGeometry x="0.1598" y="1" relative="1" as="geometry">
                        <mxPoint x="2" y="-1" as="offset"/>
                    </mxGeometry>
                </mxCell>
                <mxCell id="h3Sk4Lmx9TWWfSmt2_9P-25" style="edgeStyle=orthogonalEdgeStyle;html=1;fontFamily=Cantarell;fontSource=http%3A%2F%2Fcantarell.gnome.org%2Ffonts%2FCantarell-VF.otf;" parent="1" source="h3Sk4Lmx9TWWfSmt2_9P-6" target="h3Sk4Lmx9TWWfSmt2_9P-16" edge="1">
                    <mxGeometry relative="1" as="geometry">
                        <Array as="points">
                            <mxPoint x="798" y="269"/>
                            <mxPoint x="798" y="299"/>
                        </Array>
                    </mxGeometry>
                </mxCell>
                <mxCell id="h3Sk4Lmx9TWWfSmt2_9P-26" style="edgeStyle=orthogonalEdgeStyle;html=1;fontFamily=Cantarell;fontSource=http%3A%2F%2Fcantarell.gnome.org%2Ffonts%2FCantarell-VF.otf;" parent="1" source="h3Sk4Lmx9TWWfSmt2_9P-6" target="h3Sk4Lmx9TWWfSmt2_9P-20" edge="1">
                    <mxGeometry relative="1" as="geometry">
                        <Array as="points">
                            <mxPoint x="798" y="269"/>
                            <mxPoint x="798" y="489"/>
                        </Array>
                    </mxGeometry>
                </mxCell>
                <mxCell id="h3Sk4Lmx9TWWfSmt2_9P-27" style="edgeStyle=orthogonalEdgeStyle;html=1;exitX=1;exitY=0.5;exitDx=0;exitDy=0;fontFamily=Cantarell;fontSource=http%3A%2F%2Fcantarell.gnome.org%2Ffonts%2FCantarell-VF.otf;" parent="1" source="h3Sk4Lmx9TWWfSmt2_9P-6" target="h3Sk4Lmx9TWWfSmt2_9P-23" edge="1">
                    <mxGeometry relative="1" as="geometry">
                        <Array as="points">
                            <mxPoint x="798" y="269"/>
                            <mxPoint x="798" y="679"/>
                        </Array>
                    </mxGeometry>
                </mxCell>
                <mxCell id="h3Sk4Lmx9TWWfSmt2_9P-28" style="edgeStyle=orthogonalEdgeStyle;html=1;exitX=1;exitY=0.5;exitDx=0;exitDy=0;fontFamily=Cantarell;fontSource=http%3A%2F%2Fcantarell.gnome.org%2Ffonts%2FCantarell-VF.otf;" parent="1" source="h3Sk4Lmx9TWWfSmt2_9P-7" target="h3Sk4Lmx9TWWfSmt2_9P-17" edge="1">
                    <mxGeometry relative="1" as="geometry">
                        <Array as="points">
                            <mxPoint x="758" y="339"/>
                            <mxPoint x="758" y="369"/>
                        </Array>
                    </mxGeometry>
                </mxCell>
                <mxCell id="h3Sk4Lmx9TWWfSmt2_9P-29" style="edgeStyle=orthogonalEdgeStyle;html=1;exitX=1;exitY=0.5;exitDx=0;exitDy=0;fontFamily=Cantarell;fontSource=http%3A%2F%2Fcantarell.gnome.org%2Ffonts%2FCantarell-VF.otf;" parent="1" source="h3Sk4Lmx9TWWfSmt2_9P-7" target="h3Sk4Lmx9TWWfSmt2_9P-21" edge="1">
                    <mxGeometry relative="1" as="geometry">
                        <Array as="points">
                            <mxPoint x="758" y="339"/>
                            <mxPoint x="758" y="559"/>
                        </Array>
                    </mxGeometry>
                </mxCell>
                <mxCell id="h3Sk4Lmx9TWWfSmt2_9P-30" style="edgeStyle=orthogonalEdgeStyle;html=1;fontFamily=Cantarell;fontSource=http%3A%2F%2Fcantarell.gnome.org%2Ffonts%2FCantarell-VF.otf;" parent="1" source="h3Sk4Lmx9TWWfSmt2_9P-7" target="h3Sk4Lmx9TWWfSmt2_9P-24" edge="1">
                    <mxGeometry relative="1" as="geometry">
                        <Array as="points">
                            <mxPoint x="758" y="339"/>
                            <mxPoint x="758" y="749"/>
                        </Array>
                    </mxGeometry>
                </mxCell>
                <mxCell id="h3Sk4Lmx9TWWfSmt2_9P-38" style="edgeStyle=none;html=1;exitX=0;exitY=0.5;exitDx=0;exitDy=0;entryX=1;entryY=0.5;entryDx=0;entryDy=0;dashed=1;fontFamily=Cantarell;fontSource=http%3A%2F%2Fcantarell.gnome.org%2Ffonts%2FCantarell-VF.otf;" parent="1" source="h3Sk4Lmx9TWWfSmt2_9P-31" target="h3Sk4Lmx9TWWfSmt2_9P-16" edge="1">
                    <mxGeometry relative="1" as="geometry"/>
                </mxCell>
                <mxCell id="h3Sk4Lmx9TWWfSmt2_9P-39" style="edgeStyle=none;html=1;exitX=0;exitY=0.5;exitDx=0;exitDy=0;entryX=1;entryY=0.5;entryDx=0;entryDy=0;dashed=1;fontFamily=Cantarell;fontSource=http%3A%2F%2Fcantarell.gnome.org%2Ffonts%2FCantarell-VF.otf;" parent="1" source="h3Sk4Lmx9TWWfSmt2_9P-31" target="h3Sk4Lmx9TWWfSmt2_9P-20" edge="1">
                    <mxGeometry relative="1" as="geometry"/>
                </mxCell>
                <mxCell id="h3Sk4Lmx9TWWfSmt2_9P-31" value="UBO1" style="ellipse;whiteSpace=wrap;html=1;aspect=fixed;rounded=1;fontFamily=Cantarell;fontSource=http%3A%2F%2Fcantarell.gnome.org%2Ffonts%2FCantarell-VF.otf;" parent="1" vertex="1">
                    <mxGeometry x="1278" y="285" width="80" height="80" as="geometry"/>
                </mxCell>
                <mxCell id="h3Sk4Lmx9TWWfSmt2_9P-40" style="edgeStyle=none;html=1;exitX=0;exitY=0.5;exitDx=0;exitDy=0;entryX=1;entryY=0.5;entryDx=0;entryDy=0;dashed=1;fontFamily=Cantarell;fontSource=http%3A%2F%2Fcantarell.gnome.org%2Ffonts%2FCantarell-VF.otf;" parent="1" source="h3Sk4Lmx9TWWfSmt2_9P-32" target="h3Sk4Lmx9TWWfSmt2_9P-23" edge="1">
                    <mxGeometry relative="1" as="geometry"/>
                </mxCell>
                <mxCell id="h3Sk4Lmx9TWWfSmt2_9P-32" value="UBO2" style="ellipse;whiteSpace=wrap;html=1;aspect=fixed;rounded=1;fontFamily=Cantarell;fontSource=http%3A%2F%2Fcantarell.gnome.org%2Ffonts%2FCantarell-VF.otf;" parent="1" vertex="1">
                    <mxGeometry x="1278" y="665" width="80" height="80" as="geometry"/>
                </mxCell>
                <mxCell id="h3Sk4Lmx9TWWfSmt2_9P-37" style="edgeStyle=none;html=1;exitX=0;exitY=0.5;exitDx=0;exitDy=0;entryX=1;entryY=0.5;entryDx=0;entryDy=0;dashed=1;fontFamily=Cantarell;fontSource=http%3A%2F%2Fcantarell.gnome.org%2Ffonts%2FCantarell-VF.otf;" parent="1" source="h3Sk4Lmx9TWWfSmt2_9P-33" target="h3Sk4Lmx9TWWfSmt2_9P-17" edge="1">
                    <mxGeometry relative="1" as="geometry"/>
                </mxCell>
                <mxCell id="h3Sk4Lmx9TWWfSmt2_9P-33" value="Image1" style="rounded=1;whiteSpace=wrap;html=1;fontFamily=Cantarell;fontSource=http%3A%2F%2Fcantarell.gnome.org%2Ffonts%2FCantarell-VF.otf;" parent="1" vertex="1">
                    <mxGeometry x="1258" y="415" width="120" height="60" as="geometry"/>
                </mxCell>
                <mxCell id="h3Sk4Lmx9TWWfSmt2_9P-35" style="html=1;entryX=1;entryY=0.5;entryDx=0;entryDy=0;fontFamily=Cantarell;fontSource=http%3A%2F%2Fcantarell.gnome.org%2Ffonts%2FCantarell-VF.otf;dashed=1;exitX=0;exitY=0.5;exitDx=0;exitDy=0;" parent="1" source="h3Sk4Lmx9TWWfSmt2_9P-34" target="h3Sk4Lmx9TWWfSmt2_9P-24" edge="1">
                    <mxGeometry relative="1" as="geometry"/>
                </mxCell>
                <mxCell id="h3Sk4Lmx9TWWfSmt2_9P-36" style="edgeStyle=none;html=1;exitX=0;exitY=0.5;exitDx=0;exitDy=0;entryX=1;entryY=0.5;entryDx=0;entryDy=0;dashed=1;fontFamily=Cantarell;fontSource=http%3A%2F%2Fcantarell.gnome.org%2Ffonts%2FCantarell-VF.otf;" parent="1" source="h3Sk4Lmx9TWWfSmt2_9P-34" target="h3Sk4Lmx9TWWfSmt2_9P-21" edge="1">
                    <mxGeometry relative="1" as="geometry"/>
                </mxCell>
                <mxCell id="h3Sk4Lmx9TWWfSmt2_9P-34" value="Image2" style="rounded=1;whiteSpace=wrap;html=1;fontFamily=Cantarell;fontSource=http%3A%2F%2Fcantarell.gnome.org%2Ffonts%2FCantarell-VF.otf;" parent="1" vertex="1">
                    <mxGeometry x="1258" y="545" width="120" height="60" as="geometry"/>
                </mxCell>
                <mxCell id="h3Sk4Lmx9TWWfSmt2_9P-50" style="edgeStyle=none;html=1;exitX=0;exitY=0.5;exitDx=0;exitDy=0;fontFamily=Cantarell;fontSource=http%3A%2F%2Fcantarell.gnome.org%2Ffonts%2FCantarell-VF.otf;fontSize=24;" parent="1" source="h3Sk4Lmx9TWWfSmt2_9P-42" target="h3Sk4Lmx9TWWfSmt2_9P-44" edge="1">
                    <mxGeometry relative="1" as="geometry"/>
                </mxCell>
                <mxCell id="h3Sk4Lmx9TWWfSmt2_9P-51" value="Provide" style="edgeLabel;html=1;align=center;verticalAlign=middle;resizable=0;points=[];fontSize=24;fontFamily=Cantarell;" parent="h3Sk4Lmx9TWWfSmt2_9P-50" vertex="1" connectable="0">
                    <mxGeometry x="0.2286" relative="1" as="geometry">
                        <mxPoint x="21" as="offset"/>
                    </mxGeometry>
                </mxCell>
                <mxCell id="h3Sk4Lmx9TWWfSmt2_9P-42" value="Slot" style="text;html=1;strokeColor=none;fillColor=none;align=center;verticalAlign=middle;whiteSpace=wrap;rounded=0;fontFamily=Cantarell;fontSource=http%3A%2F%2Fcantarell.gnome.org%2Ffonts%2FCantarell-VF.otf;fontSize=32;" parent="1" vertex="1">
                    <mxGeometry x="553" y="910" width="110" height="50" as="geometry"/>
                </mxCell>
                <mxCell id="h3Sk4Lmx9TWWfSmt2_9P-48" style="edgeStyle=none;html=1;exitX=0;exitY=0.5;exitDx=0;exitDy=0;fontFamily=Cantarell;fontSource=http%3A%2F%2Fcantarell.gnome.org%2Ffonts%2FCantarell-VF.otf;fontSize=24;" parent="1" source="h3Sk4Lmx9TWWfSmt2_9P-43" target="h3Sk4Lmx9TWWfSmt2_9P-42" edge="1">
                    <mxGeometry relative="1" as="geometry"/>
                </mxCell>
                <mxCell id="h3Sk4Lmx9TWWfSmt2_9P-49" value="Insert" style="edgeLabel;html=1;align=center;verticalAlign=middle;resizable=0;points=[];fontSize=24;fontFamily=Cantarell;" parent="h3Sk4Lmx9TWWfSmt2_9P-48" vertex="1" connectable="0">
                    <mxGeometry x="0.1369" y="-1" relative="1" as="geometry">
                        <mxPoint x="28" y="1" as="offset"/>
                    </mxGeometry>
                </mxCell>
                <mxCell id="h3Sk4Lmx9TWWfSmt2_9P-43" value="Card" style="text;html=1;strokeColor=none;fillColor=none;align=center;verticalAlign=middle;whiteSpace=wrap;rounded=0;fontFamily=Cantarell;fontSource=http%3A%2F%2Fcantarell.gnome.org%2Ffonts%2FCantarell-VF.otf;fontSize=32;" parent="1" vertex="1">
                    <mxGeometry x="913" y="910" width="110" height="50" as="geometry"/>
                </mxCell>
                <mxCell id="h3Sk4Lmx9TWWfSmt2_9P-44" value="User" style="text;html=1;strokeColor=none;fillColor=none;align=center;verticalAlign=middle;whiteSpace=wrap;rounded=0;fontFamily=Cantarell;fontSource=http%3A%2F%2Fcantarell.gnome.org%2Ffonts%2FCantarell-VF.otf;fontSize=32;" parent="1" vertex="1">
                    <mxGeometry x="303" y="910" width="110" height="50" as="geometry"/>
                </mxCell>
                <mxCell id="h3Sk4Lmx9TWWfSmt2_9P-46" style="edgeStyle=none;html=1;exitX=0;exitY=0.5;exitDx=0;exitDy=0;entryX=1;entryY=0.5;entryDx=0;entryDy=0;fontFamily=Cantarell;fontSource=http%3A%2F%2Fcantarell.gnome.org%2Ffonts%2FCantarell-VF.otf;fontSize=32;" parent="1" source="h3Sk4Lmx9TWWfSmt2_9P-45" target="h3Sk4Lmx9TWWfSmt2_9P-43" edge="1">
                    <mxGeometry relative="1" as="geometry"/>
                </mxCell>
                <mxCell id="h3Sk4Lmx9TWWfSmt2_9P-47" value="&lt;font style=&quot;font-size: 24px;&quot;&gt;Combine&lt;/font&gt;" style="edgeLabel;html=1;align=center;verticalAlign=middle;resizable=0;points=[];fontSize=24;fontFamily=Cantarell;" parent="h3Sk4Lmx9TWWfSmt2_9P-46" vertex="1" connectable="0">
                    <mxGeometry x="-0.0943" y="1" relative="1" as="geometry">
                        <mxPoint x="-14" y="-1" as="offset"/>
                    </mxGeometry>
                </mxCell>
                <mxCell id="h3Sk4Lmx9TWWfSmt2_9P-45" value="Resources" style="text;html=1;strokeColor=none;fillColor=none;align=center;verticalAlign=middle;whiteSpace=wrap;rounded=0;fontFamily=Cantarell;fontSource=http%3A%2F%2Fcantarell.gnome.org%2Ffonts%2FCantarell-VF.otf;fontSize=32;" parent="1" vertex="1">
                    <mxGeometry x="1240.5" y="910" width="155" height="50" as="geometry"/>
                </mxCell>
                <mxCell id="h3Sk4Lmx9TWWfSmt2_9P-15" value="Descriptor Set" style="swimlane;whiteSpace=wrap;html=1;rounded=1;fontFamily=Cantarell;fontSource=http%3A%2F%2Fcantarell.gnome.org%2Ffonts%2FCantarell-VF.otf;" parent="1" vertex="1">
                    <mxGeometry x="890" y="234.5" width="200" height="170" as="geometry"/>
                </mxCell>
                <mxCell id="h3Sk4Lmx9TWWfSmt2_9P-16" value="Virtual Binding" style="rounded=1;whiteSpace=wrap;html=1;fontFamily=Cantarell;fontSource=http%3A%2F%2Fcantarell.gnome.org%2Ffonts%2FCantarell-VF.otf;" parent="h3Sk4Lmx9TWWfSmt2_9P-15" vertex="1">
                    <mxGeometry x="10" y="30" width="180" height="60" as="geometry"/>
                </mxCell>
                <mxCell id="h3Sk4Lmx9TWWfSmt2_9P-17" value="Virtual Binding" style="rounded=1;whiteSpace=wrap;html=1;fontFamily=Cantarell;fontSource=http%3A%2F%2Fcantarell.gnome.org%2Ffonts%2FCantarell-VF.otf;" parent="h3Sk4Lmx9TWWfSmt2_9P-15" vertex="1">
                    <mxGeometry x="10" y="100" width="180" height="60" as="geometry"/>
                </mxCell>
                <mxCell id="h3Sk4Lmx9TWWfSmt2_9P-19" value="Descriptor Set" style="swimlane;whiteSpace=wrap;html=1;rounded=1;fontFamily=Cantarell;fontSource=http%3A%2F%2Fcantarell.gnome.org%2Ffonts%2FCantarell-VF.otf;" parent="1" vertex="1">
                    <mxGeometry x="890" y="430" width="200" height="170" as="geometry"/>
                </mxCell>
                <mxCell id="h3Sk4Lmx9TWWfSmt2_9P-20" value="Virtual Binding" style="rounded=1;whiteSpace=wrap;html=1;fontFamily=Cantarell;fontSource=http%3A%2F%2Fcantarell.gnome.org%2Ffonts%2FCantarell-VF.otf;" parent="h3Sk4Lmx9TWWfSmt2_9P-19" vertex="1">
                    <mxGeometry x="10" y="30" width="180" height="60" as="geometry"/>
                </mxCell>
                <mxCell id="h3Sk4Lmx9TWWfSmt2_9P-21" value="Virtual Binding" style="rounded=1;whiteSpace=wrap;html=1;fontFamily=Cantarell;fontSource=http%3A%2F%2Fcantarell.gnome.org%2Ffonts%2FCantarell-VF.otf;" parent="h3Sk4Lmx9TWWfSmt2_9P-19" vertex="1">
                    <mxGeometry x="10" y="100" width="180" height="60" as="geometry"/>
                </mxCell>
                <mxCell id="h3Sk4Lmx9TWWfSmt2_9P-22" value="Descriptor Set" style="swimlane;whiteSpace=wrap;html=1;rounded=1;fontFamily=Cantarell;fontSource=http%3A%2F%2Fcantarell.gnome.org%2Ffonts%2FCantarell-VF.otf;" parent="1" vertex="1">
                    <mxGeometry x="890" y="614.5" width="200" height="170" as="geometry"/>
                </mxCell>
                <mxCell id="h3Sk4Lmx9TWWfSmt2_9P-23" value="Virtual Binding" style="rounded=1;whiteSpace=wrap;html=1;fontFamily=Cantarell;fontSource=http%3A%2F%2Fcantarell.gnome.org%2Ffonts%2FCantarell-VF.otf;" parent="h3Sk4Lmx9TWWfSmt2_9P-22" vertex="1">
                    <mxGeometry x="10" y="30" width="180" height="60" as="geometry"/>
                </mxCell>
                <mxCell id="h3Sk4Lmx9TWWfSmt2_9P-24" value="Virtual Binding" style="rounded=1;whiteSpace=wrap;html=1;fontFamily=Cantarell;fontSource=http%3A%2F%2Fcantarell.gnome.org%2Ffonts%2FCantarell-VF.otf;" parent="h3Sk4Lmx9TWWfSmt2_9P-22" vertex="1">
                    <mxGeometry x="10" y="100" width="180" height="60" as="geometry"/>
                </mxCell>
                <mxCell id="h3Sk4Lmx9TWWfSmt2_9P-53" style="edgeStyle=orthogonalEdgeStyle;html=1;entryX=0;entryY=0.25;entryDx=0;entryDy=0;fontFamily=Cantarell;fontSource=http%3A%2F%2Fcantarell.gnome.org%2Ffonts%2FCantarell-VF.otf;fontSize=12;endArrow=none;endFill=0;dashed=1;" parent="1" source="h3Sk4Lmx9TWWfSmt2_9P-52" target="h3Sk4Lmx9TWWfSmt2_9P-16" edge="1">
                    <mxGeometry relative="1" as="geometry"/>
                </mxCell>
                <mxCell id="h3Sk4Lmx9TWWfSmt2_9P-54" style="edgeStyle=orthogonalEdgeStyle;html=1;exitX=0.5;exitY=1;exitDx=0;exitDy=0;exitPerimeter=0;entryX=0;entryY=0.25;entryDx=0;entryDy=0;dashed=1;fontFamily=Cantarell;fontSource=http%3A%2F%2Fcantarell.gnome.org%2Ffonts%2FCantarell-VF.otf;fontSize=12;endArrow=none;endFill=0;" parent="1" source="h3Sk4Lmx9TWWfSmt2_9P-52" target="h3Sk4Lmx9TWWfSmt2_9P-17" edge="1">
                    <mxGeometry relative="1" as="geometry"/>
                </mxCell>
                <mxCell id="h3Sk4Lmx9TWWfSmt2_9P-55" style="edgeStyle=orthogonalEdgeStyle;html=1;exitX=0.5;exitY=1;exitDx=0;exitDy=0;exitPerimeter=0;entryX=0;entryY=0.25;entryDx=0;entryDy=0;dashed=1;fontFamily=Cantarell;fontSource=http%3A%2F%2Fcantarell.gnome.org%2Ffonts%2FCantarell-VF.otf;fontSize=12;endArrow=none;endFill=0;" parent="1" source="h3Sk4Lmx9TWWfSmt2_9P-52" target="h3Sk4Lmx9TWWfSmt2_9P-20" edge="1">
                    <mxGeometry relative="1" as="geometry"/>
                </mxCell>
                <mxCell id="h3Sk4Lmx9TWWfSmt2_9P-56" style="edgeStyle=orthogonalEdgeStyle;html=1;exitX=0.5;exitY=1;exitDx=0;exitDy=0;exitPerimeter=0;entryX=0;entryY=0.25;entryDx=0;entryDy=0;dashed=1;fontFamily=Cantarell;fontSource=http%3A%2F%2Fcantarell.gnome.org%2Ffonts%2FCantarell-VF.otf;fontSize=12;endArrow=none;endFill=0;" parent="1" source="h3Sk4Lmx9TWWfSmt2_9P-52" target="h3Sk4Lmx9TWWfSmt2_9P-21" edge="1">
                    <mxGeometry relative="1" as="geometry"/>
                </mxCell>
                <mxCell id="h3Sk4Lmx9TWWfSmt2_9P-57" style="edgeStyle=orthogonalEdgeStyle;html=1;exitX=0.5;exitY=1;exitDx=0;exitDy=0;exitPerimeter=0;entryX=0;entryY=0.25;entryDx=0;entryDy=0;dashed=1;fontFamily=Cantarell;fontSource=http%3A%2F%2Fcantarell.gnome.org%2Ffonts%2FCantarell-VF.otf;fontSize=12;endArrow=none;endFill=0;" parent="1" source="h3Sk4Lmx9TWWfSmt2_9P-52" target="h3Sk4Lmx9TWWfSmt2_9P-23" edge="1">
                    <mxGeometry relative="1" as="geometry"/>
                </mxCell>
                <mxCell id="h3Sk4Lmx9TWWfSmt2_9P-58" style="edgeStyle=orthogonalEdgeStyle;html=1;exitX=0.5;exitY=1;exitDx=0;exitDy=0;exitPerimeter=0;entryX=0;entryY=0.25;entryDx=0;entryDy=0;dashed=1;fontFamily=Cantarell;fontSource=http%3A%2F%2Fcantarell.gnome.org%2Ffonts%2FCantarell-VF.otf;fontSize=12;endArrow=none;endFill=0;" parent="1" source="h3Sk4Lmx9TWWfSmt2_9P-52" target="h3Sk4Lmx9TWWfSmt2_9P-24" edge="1">
                    <mxGeometry relative="1" as="geometry"/>
                </mxCell>
                <mxCell id="h3Sk4Lmx9TWWfSmt2_9P-52" value="Descriptor Pool" style="shape=cylinder3;whiteSpace=wrap;html=1;boundedLbl=1;backgroundOutline=1;size=15;rounded=0;fontFamily=Cantarell;fontSource=http%3A%2F%2Fcantarell.gnome.org%2Ffonts%2FCantarell-VF.otf;fontSize=12;" parent="1" vertex="1">
                    <mxGeometry x="770" y="80" width="170" height="110" as="geometry"/>
                </mxCell>
            </root>
        </mxGraphModel>
    </diagram>
</mxfile>